<?xml version="1.0" standalone="no"?>
<!DOCTYPE svg PUBLIC "-//W3C//DTD SVG 1.1//EN" "http://www.w3.org/Graphics/SVG/1.1/DTD/svg11.dtd" >
<svg xmlns="http://www.w3.org/2000/svg" xmlns:xlink="http://www.w3.org/1999/xlink" version="1.1">
<metadata></metadata>
<defs>
<font id="dominiqueregular" horiz-adv-x="946" >
<font-face units-per-em="2048" ascent="1638" descent="-410" />
<missing-glyph horiz-adv-x="462" />
<glyph horiz-adv-x="0" />
<glyph horiz-adv-x="682" />
<glyph unicode="&#xa;" horiz-adv-x="0" />
<glyph unicode="&#xd;" horiz-adv-x="0" />
<glyph unicode=" "  horiz-adv-x="462" />
<glyph unicode="&#x09;" horiz-adv-x="462" />
<glyph unicode="&#xa0;" horiz-adv-x="462" />
<glyph unicode="!" horiz-adv-x="514" d="M411 1282v-93q-2 -89 -9 -176q-1 -14 -3.5 -43t-3.5 -44q-1 -14 -3.5 -44t-3.5 -44q-3 -49 -7 -154q-2 -51 -8 -161q-1 -5 -1 -17t-1 -17v7q-2 -44 -8 -140q-1 -18 -1 -55v-31v-15q0 -19 -2 -28q-3 -15 -15 -22q-10 -7 -22 -5q-18 3 -24 24q-6 22 -8 33q-2 9 -5 26.5 t-4 26.5l-30 174q-4 28 -13.5 84t-14.5 84q-5 30 -14 91t-13 91q-4 31 -14.5 87.5t-14.5 79.5q-10 61 -28 183q-4 27 -12.5 82.5t-12.5 83.5q-11 8 -13 21q-1 11 6.5 19t18.5 10h4q2 1 5 1h2h2q4 1 12.5 2t12.5 1q24 4 36 5q10 1 31.5 2.5t32.5 2.5q44 4 67 4h3q13 0 37 -2 q1 0 3.5 -0.5t3.5 -0.5q8 -2 14 -4q5 -2 12 -11q5 -7 5 -13q0 -11 -1 -17q1 -3 1 -9v-11v-22q0 -8 0.5 -23t0.5 -23zM352 1068q5 82 5 147v74v36q0 22 -1 32q-2 4 -3 7h-1l-2 1q-9 1 -51 -2q-9 -1 -27 -2t-27 -2t-28 -2.5t-29 -2.5q-3 0 -9.5 -1t-9.5 -2q1 -11 4.5 -33.5 t5.5 -33.5q5 -29 13.5 -88.5t12.5 -89.5q4 -26 12 -76q2 -15 7.5 -45t8.5 -45q7 -36 16 -92l12 -84q1 -9 27 -169q5 -27 14 -81.5t13 -81.5q1 9 1 26v-1q0 7 1 21t1 21v-7q0 12 2 35t2 34v-2q3 51 7 160q2 62 10 181q2 28 6.5 84t6.5 84zM338 125q27 -3 50 -29 q18 -21 16 -47l-3 -21q-1 -4 -5 -17q-11 -29 -30 -42q-14 -9 -27 -12q-12 -2 -19 -2t-11 1q-8 2 -11 3q-16 5 -30 21q-8 10 -11 16q-2 5 -4 15q-4 17 1 37q6 24 12 34q11 19 24 28q3 2 27 13q4 2 11 2h5h5zM347 32q0 1 3 17v7l-1 1q-1 1 -1 2t-1 2t-1 2q-4 4 -7 6 q-1 1 -2.5 1t-2.5 1l-1 1q-1 0 -3.5 -2t-4.5 -2q-4 -2 -6 -4l-4 -4q-2 -4 -6 -14q-2 -6 -4 -18q0 -1 0.5 -3.5t0.5 -4.5v-2l1 -2q1 -2 2 -2t2 -1l2 -2l4 -2q1 0 3 -1q1 0 2.5 0.5t2.5 0.5q1 1 4 1t4 1q2 1 4 3q1 0 2 2l1 2q4 7 7 14z" />
<glyph unicode="&#x22;" horiz-adv-x="563" d="M230 1559q15 -18 20 -52q4 -36 -2 -75q-8 -56 -13 -84q-2 -14 -7.5 -42t-8.5 -42q-1 -10 -11 -16.5t-21 -4.5q-15 3 -20 19q-7 1 -13 6q-8 7 -10 19q-9 59 -16 94q-2 14 -8 42t-8 42q-1 7 -4 19t-4 19q-2 10 -2 17q0 2 0.5 5.5t0.5 5.5v3q0 1 2 7t4 9q2 5 10 13 q4 4 12 10q1 1 5 2.5t5 2.5h2t2 1q5 2 15 4q8 2 13 2h1q2 0 5.5 -0.5t5.5 -0.5q4 0 10 -2t13 -5q16 -10 22 -18zM185 1529q-1 0 -1 0.5t-1 0.5q1 0 1 -0.5t1 -0.5zM183 1530h-1h1zM158 1528v-1l-1 -1l1 1v1zM157 1526l-1 -1zM156 1525v-1v1zM156 1524l-1 -1zM156 1524v1v-1z M198 1466q0 20 -3 41q-1 3 -5 14q0 1 -1 2.5t-2 2.5l-3 3l-4 2h-2q-2 0 -5 -0.5t-4 -0.5l-9 -3l-1 -1h-1l-1 -1l-1 -2q0 -4 5 -32q1 -4 2 -12t2 -12q2 -10 6 -29t6 -29q3 -11 7 -40v1l1 2q3 18 7 47q6 43 6 47zM460 1501v-15q0 -6 -2 -18l-3 -21q-1 -7 -12 -41l-15 -45 q-5 -13 -14.5 -38t-13.5 -38v-2q-1 -5 -6 -12l-5 -5q-2 -2 -8 -4t-9 -2q-10 -2 -19 7q-8 7 -10 18q-8 44 -25 157q-4 28 -5 42v20q0 7 1 10q2 10 4 13q4 9 6 11q12 18 40 25q20 4 29 4h3q10 0 15 -1t13 -5q11 -6 13 -7q3 -2 7 -8l3 -3q8 -14 10 -22q0 -1 1.5 -8.5t1.5 -11.5 zM401 1451q3 13 5 35v18q0 2 -1 4l-2 4h-1v1h-6q-10 0 -16 -1l-9 -3l-1 -1h-1q-1 -1 -1 -2h-1q-1 -2 -1 -8q0 -19 6 -55q1 -7 3.5 -22.5t3.5 -23.5q1 -1 1 -5t1 -5q1 5 5 14.5t5 14.5q5 15 10 35z" />
<glyph unicode="#" horiz-adv-x="761" d="M658 749q3 -11 -2 -21q-4 -8 -14 -13q-1 -1 -17 -14q-2 -1 -5.5 -4t-4.5 -4q-12 -10 -35 -30t-35 -30q-8 -7 -26 -21q38 -134 42 -148q19 -75 21 -82q11 -45 21 -97q2 -11 -6 -20q-7 -7 -19 -9q-10 -2 -19 7q-4 3 -8 11q0 3 -2 7l-3 18q0 1 -1 5t-1 5q-16 75 -70 265 q0 -1 -1 -1q-14 -12 -21 -17t-21 -16t-21 -16l-24 -18q4 -14 10.5 -41t9.5 -38q4 -14 10.5 -41t9.5 -41l9 -36q1 -6 4 -16t5 -18.5t3 -16.5q2 -11 -6 -20q-7 -7 -19 -9q-11 -2 -19 6q-8 7 -10 19v1q-2 8 -5.5 23t-5.5 22q-7 28 -21 86t-21 86q-6 -4 -17.5 -12.5t-17.5 -12.5 q-9 -6 -20.5 -4t-17.5 11t-4 20t11 17q34 24 51 37q-6 21 -17 65t-16 65q-8 34 -13 50q-1 3 -2.5 8.5t-2.5 8.5q-22 -13 -65.5 -39t-64.5 -39q-8 -6 -20 -4q-11 2 -17 11q-6 8 -4 19.5t11 17.5q24 14 72 44t72 44q-1 5 -4 14.5t-4 14.5q-5 19 -16 58t-17 58q-6 20 -18 61 t-18 61q-3 11 1 21q6 11 15 14q3 1 9 1q21 0 26 -18q10 -32 28 -96q7 -27 23 -80.5t23 -79.5q74 46 85 53q-10 32 -27.5 96t-27.5 96q-3 11 1 21q5 10 15 13q6 2 9 2q20 0 25 -18l27 -93q18 -58 26 -87q62 38 136 82q8 5 15 5q1 0 2.5 -0.5t2.5 -0.5q11 -2 17 -11 q6 -8 4 -20q-2 -13 -11 -17q-41 -24 -121 -74l-30 -18q8 -28 24.5 -84.5t24.5 -84.5l39 33l18 15t17 15q3 3 8.5 7.5t8.5 6.5l3.5 3.5t4.5 3.5t5 3.5t4 3.5l12 6q4 2 9 2q6 0 12 -3q11 -6 14 -15zM435 611q4 3 11.5 9.5t11.5 9.5q-1 3 -2.5 9.5t-2.5 9.5q-7 26 -22.5 79 t-23.5 80q-22 -14 -68 -42l-18 -12q2 -7 6 -22t6 -22q4 -18 14 -53t14 -53q2 -7 5.5 -20.5t5.5 -20.5q8 6 23 17.5t22 16.5q3 2 9 7t9 7z" />
<glyph unicode="$" horiz-adv-x="911" d="M809 1031q1 -31 1 -94q0 -12 -6 -19q-8 -8 -19 -10t-19 7q-10 8 -10 18q0 67 -1 101q0 8 -2 22q-1 4 -1 11v11q-2 16 -4 24q-1 4 -2.5 11.5t-2.5 11.5q0 -3 2 -7q-1 4 -3 9.5t-3 9.5q-1 2 -3 8t-3 8l-12 30q-1 1 -2 2.5t-1 2.5q-4 8 -6 11q-1 1 -3 5t-3 5t-3.5 5t-3.5 5 q-1 2 -6 9.5t-8 10.5q-2 3 -7.5 9.5t-8.5 9.5q-5 6 -15 16q-2 2 -7 6.5t-7 6.5q-9 9 -22 17q-18 11 -46 22q-1 -13 -2.5 -40.5t-2.5 -41.5q-4 -59 -14 -177q-3 -30 -7.5 -89.5t-6.5 -88.5q-8 -110 -11 -165q-1 -21 -3 -59t-3.5 -69.5t-2.5 -59.5v-19q6 -12 18 -34 q2 -4 10 -18t12 -22q1 -3 8 -16.5t10 -21.5q14 -35 17 -44q17 -50 25 -89q11 -51 13 -87q4 -37 0 -62q-2 -23 -13 -55q-13 -36 -28 -55q-9 -12 -21 -21q-12 -10 -19 -14q-2 -1 -7.5 -5t-8.5 -5q1 -8 2 -22t1 -22l3 -42q3 -42 3 -44q0 -11 -7 -19q-9 -9 -18 -10q-11 -2 -20 7 q-9 7 -9 18q0 12 -2 36q0 5 -1 15t-1 15q-1 8 -2.5 25t-1.5 26q-6 -1 -17 -1q-21 0 -32 1q0 -28 2 -82q0 -7 0.5 -20t0.5 -20q2 -39 0 -59q-1 -9 -11 -17q-9 -6 -21 -4q-11 2 -17 11t-4 21v2q0 7 -0.5 19t-0.5 18q0 5 -0.5 16t-0.5 16q-1 21 -1 64q0 8 -0.5 22.5t-0.5 21.5 q-22 7 -54 23q-23 11 -43 26q-15 11 -31 27l-17 17q-22 24 -26 30q-16 23 -26 45l-9 21q-12 28 -17 43q-4 12 -6 19q-1 3 -3 10.5t-3 11.5q-2 9 -6 29q0 3 -1 9.5t-2 9.5q-6 28 -8 42q-5 28 -11 84q-6 60 -8 82q0 7 -1 21.5t-2 21.5q-3 45 -2 51q1 9 11 17q9 6 21 4 q11 -2 17 -11q6 -8 4 -20v-1q0 -6 0.5 -13t1.5 -15t1 -13l3 -39q2 -14 4 -42t4 -42q9 -84 25 -157q5 -19 7 -25q7 -24 10 -31q15 -40 23 -54q6 -11 14 -23q4 -6 16 -20q3 -3 8.5 -9t8.5 -9q21 -21 42 -35q7 4 21 14q9 6 16 13q6 5 16 17q-1 42 -1 125l3 177l6 267 q-56 100 -84 149q-28 50 -42 76q-12 22 -22 44q-10 21 -17 40q-12 32 -18 57q-10 44 -11 68q-2 20 -1 31q3 31 3 32q11 57 50 112q40 55 88 85q42 26 86 38q0 21 2 63q4 125 7 184q0 8 3 14q1 1 2 3t2 3q7 7 18 9h2q11 0 18 -6q9 -7 9 -19q0 -7 -1 -20t-1 -20 q-6 -115 -7 -175v-28h11q20 0 41 -3q1 5 1 16.5t1 17.5q0 7 0.5 19t1 22t1.5 19q1 10 2.5 29.5t2.5 29.5q2 13 5 39.5t4 40.5q1 9 11 17q5 4 15 4h5q11 -2 17 -11q7 -10 5 -21q-8 -70 -11 -105q0 -2 -6 -92q0 -7 -1 -19t-1 -19q12 -3 19 -7q4 -1 11 -4t11 -5q10 -4 23 -13 q4 -3 12.5 -8.5t12.5 -8.5q8 -6 22 -20q6 -5 31 -33q13 -16 14 -17q2 -3 6 -8.5t6 -8.5q4 -6 12 -20l12 -21q13 -26 19 -44q7 -22 12 -45q2 -6 4 -22q1 -3 2 -9.5t1 -9.5q0 -8 1 -23.5t2 -23.5zM406 1087q3 52 7 156q-2 -2 -5.5 -7t-5.5 -7q0 -1 -1 -1l-1 -2v-1l-1 -1 q-1 -1 -2 -2.5t-1 -2.5t-1 -1l-1 -2q-13 -24 -23 -44q-12 -25 -18 -44q-13 -40 -20 -73q-10 -49 -12 -77q-4 -64 3 -103l1 -1q4 -6 10 -18.5t10 -18.5q7 -12 21 -36.5t21 -37.5q4 101 7 148q2 29 6 88t6 88zM416 1319v15q-6 -2 -32 -14q-27 -14 -58 -40q-26 -25 -45 -52 q-20 -32 -28 -56q-6 -19 -6 -23q-1 -7 -3 -23q-1 -37 6 -73q4 -18 16 -54l3 -9l3 30q5 41 13 69q11 37 24 75q10 29 37 76l1 2q1 0 1 2t1 2l1 1l1 1q1 0 1 1t1 2q0 1 0.5 1t0.5 1t1 2l2 2q1 2 4 6t4 6q8 10 26 28q12 11 25 22zM432 311q-2 -92 -2 -139l9 24q9 29 11 38 q3 14 7 42q1 4 6 46q0 57 2 169v1q0 5 -2 17q-4 9 -13 26.5t-14 26.5q-1 -27 -1 -80zM451 4h28l-9 126q-2 -4 -7 -13.5t-8 -14.5q-11 -18 -24 -33q0 -11 0.5 -32.5t0.5 -31.5q6 -1 19 -1zM519 354q-1 -5 -1 -16.5t-1 -17.5q0 -45 4 -133q2 -53 10 -157q6 4 9 7q5 5 13 15 q9 14 16 35q10 29 11 55q1 30 -6 73q-2 16 -4 26q-1 4 -2 11.5t-2 11.5q-5 22 -10 38q-1 3 -3 10.5t-3 11.5q-2 4 -4.5 12t-3.5 12q-5 14 -17 42q-1 1 -2 4t-2 5q0 -15 -2 -45zM496 1021q20 247 23 305q-28 -18 -42 -28q-2 -1 -4 -3t-4 -3q0 -13 -2 -39q-9 -176 -9 -179 q-2 -30 -5.5 -89t-5.5 -88q-1 -11 -2.5 -32.5t-1.5 -31.5q-4 -108 -5 -162q5 -10 15.5 -29t15.5 -28q1 9 1 26t1 25q3 63 11 178q4 64 14 178z" />
<glyph unicode="%" horiz-adv-x="960" d="M857 1383q4 -16 -1 -25l-6 -9q-4 -4 -10 -8q-4 -2 -10 -4q-22 -54 -34 -81q-24 -53 -78 -155q-20 -37 -39 -80q-29 -63 -35 -77q-11 -26 -34.5 -79t-35.5 -80q-5 -11 -28.5 -67t-36.5 -85q-12 -27 -37 -79t-37 -78q-31 -69 -70 -160q-33 -78 -63 -156q-17 -44 -31 -76 q-2 -6 -7.5 -18.5t-8.5 -18.5q-16 -36 -18 -38q-6 -9 -15 -13q-12 -3 -21 1t-13 13q-7 -1 -16 2q-45 20 -55 25q-10 4 -13.5 15t1.5 21q4 10 17 14l33 75q6 12 17.5 37t17.5 38q31 66 65 156q30 77 133 325q13 32 39 90.5t31 69.5q58 131 71 161q23 55 67 165q12 28 34.5 83 t34.5 83l-3 9q-1 11 6.5 19t18.5 9q6 0 16 1t18.5 1.5t16.5 0.5h8q26 0 39 -1h-4q1 0 18 -1t25 -2q28 -4 33 -23zM751 1285q20 46 29 70l-1 1h-1q-20 1 -61 -1l-1 -1q0 -2 -1 -4.5t-2 -3.5q-11 -28 -34.5 -84.5t-35.5 -85.5q-53 -131 -67 -163q-30 -72 -71 -164 q-9 -20 -33.5 -74t-36.5 -84q-46 -108 -68 -162q-5 -14 -16.5 -41.5t-17.5 -41.5q-10 -25 -30 -77q-6 -14 -16.5 -41t-15.5 -40q-26 -61 -33 -76q-6 -13 -18 -38.5t-18 -38.5q-16 -33 -29 -64q4 -2 11.5 -5.5t11.5 -5.5q1 0 2.5 -1t2.5 -2q1 2 3.5 8t3.5 8q3 7 9 20.5 t9 20.5q4 10 30 77q14 37 32 79q44 106 67 159q37 83 72 155q19 39 35 76q5 13 17 38.5t17 38.5q96 224 138 315q14 31 45 89.5t34 64.5q26 52 38 79zM305 1126q-2 1 -4 5q-7 10 -5 21q1 8 12 17l15 12q4 3 14 9q8 4 18 8q16 4 24 4h4h13q17 -2 27 -7q14 -6 23 -17 q8 -8 12 -16t8 -22q3 -20 -2 -36q-2 -10 -10 -23t-23 -25q-3 -3 -11 -7q-10 -6 -15 -7q-20 -5 -34 -3q-16 3 -29 12q-18 12 -28 27q-10 17 -10 33q0 10 1 15zM358 1118v-5v-2q0 -1 1 -2.5t1 -2.5q1 -1 3 -4l5 -5q1 -1 3.5 -2t3.5 -1t3 -1t3 -1t3 0.5t3 0.5q1 1 3 1t3 1l9 6 q1 1 2.5 3t2.5 3q3 5 5 10q2 6 2 8q0 1 -0.5 3.5t-0.5 3.5l-1 1v2t-2 2.5t-2 2.5l-4 4q-1 0 -3.5 1t-3.5 2q-6 2 -8 2q-9 0 -14 -1h-1l-2 -1q0 -4 -2 -8q-1 -2 -4 -6t-5 -7.5t-3 -7.5zM679 398q8 -8 12 -17q4 -12 4 -20q0 -12 -1 -18q-1 -15 -8 -31q-1 -2 -2.5 -6.5 t-2.5 -6.5l-10 -15q-7 -7 -12 -10q-9 -6 -19 -9q-11 -3 -24 -1q-14 3 -26 9q-16 9 -24 17q-7 6 -11 14q-5 11 -6 13q-4 12 -4 18q0 14 2 20q5 14 6 16t5 8l6 9l24 27q8 9 21 9q9 0 17 -6l2 -2q12 0 22 -3q1 0 7 -2t9 -4q2 -1 4 -2.5t4 -2.5t5 -4zM637 332q2 7 4 23v4 q-1 0 -1 0.5t-1 0.5q-2 0 -7 1t-7 2h-3l-4 -1q-4 0 -4 1l-12 -15l-2 -4v-2l-1 -2v-4l1 -2v-2q1 -1 3 -4q3 -3 5 -4q1 -1 3 -1.5t4 -1.5l4 -2q4 -2 7 -2h2v1h1l2 2z" />
<glyph unicode="&#x26;" horiz-adv-x="847" d="M744 595q1 -18 -3 -34q-1 -3 -2 -8t-2 -8q-3 -12 -8 -28q-21 -75 -53 -168q-14 -44 -30 -83q-21 -51 -38 -78v-2v-1q0 -1 1 -1q19 -28 54 -69q30 -35 61 -73q6 -7 4 -20q-2 -11 -11 -17q-10 -6 -20 -5q-8 1 -17 12q-11 13 -62 72q-24 28 -44 56q-10 -11 -32 -31 q-28 -23 -62 -42q-30 -17 -58 -25q-34 -11 -60 -12q-41 -2 -67 4q-9 2 -27 8q-16 5 -28 12q-9 4 -25 14q-12 6 -18 10q-25 16 -45 39q-17 20 -30 47q-25 52 -18 117q0 4 1 11.5t1 11.5t1 10.5t2 9.5q0 3 9 43q2 6 4 19t4 20q1 4 3.5 12.5t3.5 13.5q1 3 2.5 9.5t2.5 9.5 q4 14 14 40q11 28 35.5 81.5t35.5 81.5q3 7 9 22t9 22l2 4l2 4q-20 44 -24 56q-17 42 -30 82q-9 27 -23 81q-14 60 -18 90q-2 14 -4 46q-1 21 0 41q2 32 4 50q2 22 6 41q1 3 12 40q8 26 14 38q10 22 31 46q2 3 7 8l8 8q12 12 19 18q13 10 14 11q16 10 24 14q30 14 59 20 q14 2 22 3q6 2 9 2h7q32 0 53 -5q4 -1 12.5 -3.5t12.5 -3.5q28 -8 48 -24l15 -12q3 -2 16 -11.5t19 -14.5q3 -2 10 -7.5t10 -8.5q10 -8 14 -13q20 -22 29 -35q12 -17 22 -41q3 -7 7 -21q4 -16 4 -25q2 -30 0 -45q-9 -83 -47 -166q-12 -26 -38 -76q-32 -62 -38 -74 q-50 -102 -73 -154l-60 -138q5 -10 41 -71q23 -39 71 -117q42 -66 64 -99q0 1 1.5 3t2.5 3q2 3 4 9.5t4 9.5q7 14 8 17q3 8 9 24.5t8 22.5q2 7 6.5 19t6.5 18q24 72 35 108q12 36 17 54q2 5 4.5 15l3.5 14q2 8 7 31v7q-1 11 6 19.5t18 9.5t19.5 -6.5t9.5 -18.5zM234 884 q3 -12 29 -81q3 -6 7.5 -18t6.5 -18l2 2t1 2q3 5 22 37q28 49 48 78q5 6 13.5 18.5t12.5 19.5q4 5 11 15.5t10 15.5l30 51q30 51 38 75q5 16 10 38q11 51 13 68q0 13 -4 35q-2 16 -4 28q-5 22 -14 42q-8 14 -13 20q-9 10 -25 21q-5 3 -17 7q-23 6 -25 6q-17 0 -35 -3 q-19 -4 -48 -18q-10 -6 -20 -14q-1 -1 -4 -3t-4 -3l-12 -12q-13 -14 -25 -31q-10 -17 -16 -33q-9 -28 -15 -55q-4 -23 -5 -32q0 -5 -1 -15t-1 -15q-2 -38 1 -69q6 -51 11 -73q12 -50 22 -86zM225 124q9 -6 17 -10v14v38q2 48 7 87q11 76 46 167q4 9 66 154q8 17 21.5 49 t25 58t22.5 49q7 15 20 41.5t17 34.5q16 35 38 77q7 15 21.5 41.5t18.5 34.5q20 41 32 73q20 63 24 116v18q0 7 -2 19q-2 6 -11 29q-10 18 -12 20q-4 6 -16 20q-10 11 -34 29q0 -1 0.5 -2t0.5 -2q8 -32 10 -48q4 -22 4 -33q1 -31 -13 -89q-6 -28 -15 -53q-6 -18 -28 -57 q-30 -54 -47 -80q-4 -6 -13 -18.5t-14 -19.5q-4 -5 -10.5 -15t-9.5 -15q-10 -16 -30 -50q-8 -14 -26 -42q-2 -3 -6.5 -10t-6.5 -11t-5.5 -10.5t-5.5 -9.5q-1 -2 -3.5 -6t-3.5 -6v-1q-15 -29 -21 -47q-4 -6 -7 -16l-18 -42q-6 -13 -18 -39.5t-18 -40.5q-15 -33 -30 -76 l-6 -21q-2 -7 -6 -23q-2 -7 -5 -20.5t-4 -20.5q-13 -70 -15 -93q-2 -24 3 -48q3 -15 14 -36q10 -18 21 -32q9 -10 31 -26zM514 155q14 15 28 31q-30 44 -75 117q-49 78 -89 146q-1 2 -3.5 6.5t-3.5 6.5q-5 -11 -15 -35q-20 -48 -28 -72q-13 -40 -21 -83q-7 -35 -10 -78 q-2 -34 -2 -50q0 -25 3 -49q0 -1 1 -3.5t1 -3.5q19 -4 31 -5q28 -1 58 5q30 8 56 21q39 20 69 46z" />
<glyph unicode="'" horiz-adv-x="364" d="M260 1521q2 -10 2 -17q0 -22 -3 -45q-6 -39 -6 -41q-6 -26 -9 -40q-1 -7 -4 -20.5t-5 -19.5q-10 -38 -13 -45q-2 -7 -8 -19q-6 -11 -14 -23q-6 -9 -18 -9q-11 -2 -20 7l-5 5q-7 2 -10 5q-7 6 -9 19q-3 18 -7 38.5t-9 45.5t-8 39l-3 18t-3.5 21.5t-2.5 17.5q-3 26 -1 46 q6 38 29 52q14 10 29 14q3 0 8.5 1t8.5 2q4 1 11 1h11q3 0 11 -2q1 0 7 -2t9 -4q1 -1 6 -4t7 -5q8 -8 11 -12t8 -24zM207 1517h-1h1zM209 1491q0 14 -1 21q0 2 -2 4v1l-2 1l-1 1q-3 1 -9 1h-11q-12 -4 -18 -7q-1 -1 -2 -1t-2 -1l-1 -1v-1q-1 -1 -1 -2q-1 -2 -2 -8t-1 -8 q0 -18 6 -52q1 -8 4 -24.5t5 -24.5q1 -8 4 -24.5t5 -24.5q1 3 2.5 8t1.5 8q2 8 10 44l9 48zM207 1517q1 0 1 -1t1 -1q-1 0 -1 1t-1 1z" />
<glyph unicode="(" horiz-adv-x="409" d="M302 1406q6 -9 4 -21q0 -6 -1 -16.5t-1 -15.5t-1 -16.5t-2 -17.5q-2 -19 -8 -65l-12 -81q-2 -14 -5.5 -43t-5.5 -43q-10 -82 -15 -167l-9 -138l-3 -54q-6 -114 -6 -171q0 -61 1 -91q0 -12 1 -26t2.5 -31.5t2.5 -26.5q10 -117 17 -172q1 -12 3 -26t5 -31.5t4 -26.5 q2 -12 4.5 -25t5.5 -28.5t5 -24.5q1 -3 1 -7q0 -7 -3 -15q-4 -13 -22 -15q-16 -2 -24 11q0 1 -2 3t-2 3q-15 25 -41 77q-16 32 -33 78q-11 32 -14 41q-3 10 -10 40q-9 37 -16 90q-10 70 -15 173q-6 116 -4 174q2 62 4 91q1 7 2 21.5t1 22.5q1 15 5 45q6 57 11 89q1 7 3.5 22 t3.5 23q2 15 8 45q2 8 5 22t4 21q2 8 6 23t5 21q12 50 19 75l15 51q2 7 6.5 21t6.5 21q13 42 33 95q3 10 15 14q3 1 10 1t11 -2q3 -1 8 -6q11 -2 17 -11zM224 1147q1 10 3.5 30t4.5 30q-8 -29 -22 -87q-21 -88 -32 -168q-8 -58 -11 -87q-3 -32 -7 -89q0 -13 -2 -39.5 t-2 -40.5q-1 -25 1 -75q1 -58 9 -176q6 -81 23 -165q8 -32 13 -48q0 -2 1 -5t2 -5q-9 82 -15 165q-1 10 -2.5 27.5t-2.5 32t-1 27.5q-1 28 -1 86q0 38 7 176q2 30 6 88t5 88q0 -1 -0.5 -3.5t-0.5 -3.5q5 89 13 157q3 32 11 85z" />
<glyph unicode=")" horiz-adv-x="452" d="M343 877q7 -101 6 -170q-2 -118 -6 -177q-3 -42 -9 -86l-12 -90q-2 -17 -8 -43q-1 -10 -4 -19l-6 -24q-1 -4 -3 -11t-3 -11q-6 -18 -9 -26l-15 -39q-11 -27 -37 -79q-8 -17 -20 -35q-5 -8 -15 -22q-6 -9 -7 -10q-3 -4 -11 -10q-7 -5 -16 -5q-11 0 -19 7q-4 3 -8 11 q-4 9 0 30l3 12q26 112 34 168q1 7 2.5 22t2.5 22t2 20t2 19q1 14 3 44t3 44q1 17 2.5 50t2.5 49q3 51 3 101v41q0 14 -2 40l-6 87q-4 55 -7 86q-9 86 -9 89t-4.5 37t-7.5 51q-2 15 -6.5 45t-7.5 45q-10 61 -33 170q-3 11 -7 34t-7 34q-3 6 -1 14q1 1 1 3t1 3q6 11 15 14 q6 2 9 2q6 0 12 -3h1q15 0 20 -6q5 -5 13 -17q1 -2 2.5 -4t2.5 -4q5 -9 10 -16q4 -5 12 -15.5t12 -16.5q6 -8 22 -40q15 -29 18 -38q2 -6 6.5 -20t7.5 -20q9 -26 25 -78l6 -21t6 -20l12 -45q11 -45 18 -90q4 -29 8 -83zM295 675v26.5v32v26.5q-2 56 -4 84q-4 60 -7 89 q-3 27 -13 79q-7 32 -18 71q-6 23 -20 69q-7 22 -23 66q-5 16 -14 35q-4 9 -14 27q-1 4 -4 8q2 -8 5.5 -24.5t4.5 -25.5q14 -72 24 -142q2 -15 6.5 -43t6.5 -43q4 -30 10 -92q12 -116 16 -175q3 -41 3 -81v-44q1 -43 0 -43q-2 -61 -10 -188q-1 -10 -2 -27t-2 -31.5t-2 -26.5 q-7 -69 -10 -85q0 -2 -1 -6t-1 -6q9 21 19 52q5 16 10 38l9 39q3 15 7.5 45.5t4.5 33.5q8 53 10 77q1 12 2.5 38t2.5 38q2 35 4 109z" />
<glyph unicode="*" horiz-adv-x="489" d="M386 1299q4 -11 -1 -21t-15 -14q-12 -4 -36 -12.5t-36 -12.5q19 -40 44 -89q10 -19 18 -30q7 -9 4.5 -20t-11.5 -17t-21 -4q-10 1 -16 11q-4 6 -19 30q-2 4 -5.5 11.5t-5.5 10.5q1 -8 3 -24.5t3 -24.5q1 -11 -6.5 -19.5t-18.5 -9.5t-19 6.5t-10 18.5q-1 10 -3.5 31 t-3.5 32l-42 -90q-4 -10 -15 -13.5t-21 1.5t-13.5 15.5t1.5 20.5q36 78 55 117q-10 -3 -29 -10t-29 -11q-11 -4 -20.5 1t-13.5 15q-4 11 1 21t15 14q17 6 50 17.5t49 17.5q0 2 -0.5 6.5t-0.5 6.5l-9 18q-5 10 -16 28.5t-17 27.5t-4 21q2 11 11 17q7 4 15 4h5q1 0 7 -3 q5 17 24 19h2q11 0 18.5 -7.5t8.5 -17.5l3 -45q2 6 8 17t8 16q8 15 25 15q7 0 11 -2q10 -4 14 -15t-1 -21q-5 -9 -14 -27.5t-13 -27.5q8 3 24 8.5t24 8.5q3 1 8 1q20 0 26 -17z" />
<glyph unicode="+" horiz-adv-x="968" d="M864 587q2 -12 2 -18q0 -18 -4 -26q-6 -12 -17 -20q-10 -7 -33 -9q-6 -1 -17 -1q-28 -2 -41 -2q0 -1 -42 -1l-41 1q-56 0 -84 1q-7 0 -20.5 0.5t-20.5 0.5v-1l1 -2l21 -276q1 -11 -6.5 -19.5t-18.5 -9.5t-19.5 6.5t-9.5 18.5l-21 276q0 1 0.5 3.5t0.5 3.5q-12 0 -36.5 -1 t-36.5 -1q-58 0 -87 -1l-177 -6q-11 0 -19.5 7t-9.5 18v1q-23 2 -25 25q-1 9 2 21l1 2v3q0 2 1.5 6t2.5 6q1 3 3.5 8.5t3.5 8.5q7 17 20 25q8 6 14 7q3 0 8 1t8 2q7 1 21.5 2t15.5 1q12 1 38 1q52 2 77 2q14 0 41.5 -0.5t40.5 -0.5h80q-1 2 -1 6q-12 139 -26 235 q-1 11 6.5 19t18.5 9q1 0 1 0.5t1 0.5q8 0 17 -7q7 -6 9 -18q16 -115 27 -235q0 -6 -1 -9q7 0 19 0.5t19 0.5q56 2 82 4q57 4 83 5q6 0 18.5 0.5t18.5 0.5h7q2 0 6 -0.5t6 -0.5q16 0 24 -2q16 -4 23 -11q8 -8 13 -21q10 -26 12 -40zM779 566q5 0 16 1t17 1q0 5 -2 15 q0 2 -2 6.5t-2 6.5q-1 2 -2.5 6t-1.5 5q-1 0 -3 0.5t-3 0.5q-20 1 -152 -7q-26 -1 -156 -4h-52h-32h-84q-26 0 -78 -2q-26 0 -38 -1q-4 0 -16 -0.5t-18 -1.5h-1q-1 -1 -2 -1v-1q-5 -9 -5 -11q-1 -1 -2.5 -4.5t-1.5 -5.5q0 -1 -1 -4t-1 -5v-1v-1q27 1 83.5 2.5t83.5 2.5 q56 2 82 2q14 0 41.5 0.5t40.5 0.5q57 1 170 -1q9 0 37.5 -1t43.5 0q13 0 41 2zM815 569h1h-1z" />
<glyph unicode="," horiz-adv-x="393" d="M290 125q2 -18 2 -26q0 -27 -4 -47q-6 -34 -12 -48q-8 -22 -16 -41q-7 -18 -18 -37q-13 -24 -28 -42q-7 -9 -18.5 -9.5t-19.5 6.5q-19 17 -3 38q3 3 7 10t7 10q15 24 22 42q16 39 18 43q4 13 7 32l3 24l-12 -6q-12 -4 -20 -4q-17 0 -21 1q-7 1 -16 5q-32 12 -48 36 q-11 18 -14 30q-5 17 -3 35q1 2 2 6.5t1 7.5q0 1 2 7t4 9q11 18 24 27q16 10 25 12q7 2 20 2h11q11 -1 29 -9l12 -6q12 -9 13 -10q20 -18 31 -47q5 -13 11 -39q2 -6 2 -9v-3zM214 128q3 2 9.5 5t9.5 4q-3 14 -9 26q-1 2 -3.5 5.5t-4.5 6.5l-4 6q-1 1 -3 2.5t-3 2.5 q-2 1 -6.5 3.5t-6.5 3.5q-8 2 -11 2q-1 0 -3 -0.5t-3 -0.5t-3 -1t-3 -1q-1 -1 -4 -3l-5 -5q-1 -1 -2 -3.5t-1 -3.5q-2 -6 -2 -9q0 -2 0.5 -5t0.5 -5q2 -8 4 -11q3 -6 7 -10l4 -4q3 -2 16 -7q2 0 5.5 -1t5.5 -2h3q4 1 12 5z" />
<glyph unicode="-" horiz-adv-x="661" d="M558 613q3 -8 1 -20q0 -4 -2 -14q0 -15 -2 -23q-8 -31 -30 -36q-1 0 -29 -3q-4 0 -11 -0.5t-10 -0.5q-55 -4 -85 -5q0 -1 -42 -1l-42 1h-39h-44q-7 0 -20.5 0.5t-20.5 0.5q-52 3 -53 3q-9 1 -17 11q-6 9 -4 21l-1 1q-6 9 -4 21q1 13 10 27q5 9 8 17q3 10 7 16q9 17 16 21 q10 6 22 6h7h17h20q10 0 29 -0.5t28 -0.5q29 0 85 -2q32 -2 47 -3l36 -3q1 0 28.5 -1t41.5 -2q5 0 13 -2q15 -3 27 -12q11 -9 13 -17zM504 579v11q-10 2 -13 2h-26t-26 1l-30 3t-30 2q-74 4 -112 4h-55h-26h-1h-5h-5l-3 -6q-2 -8 -4 -12q0 -1 -5 -8q-1 -1 -2.5 -4.5 t-2.5 -5.5h8q2 0 7 -0.5t8 -0.5q27 -1 82 -1h37h48q41 0 83 3q7 1 21 1t21 1q3 0 10 1t11 1h9q0 1 0.5 3.5t0.5 4.5z" />
<glyph unicode="." horiz-adv-x="411" d="M304 142q5 -15 5 -28q0 -14 -1 -21q-1 -4 -5 -17q-7 -20 -18 -34q-26 -33 -69 -39q-25 -4 -43 3q-8 3 -22 11q-15 10 -17 12q-13 13 -17 20q-6 9 -9 18l-3 9q-1 2 -2 5.5t-1 5.5q0 14 2 21q0 2 2 5.5t2 5.5v1l1 2q1 1 2.5 3.5t1.5 3.5q3 6 11 16q14 18 21 24q2 2 5.5 5 t6.5 5.5t6 4.5q11 7 18 9q11 4 19 5q5 1 17 1q3 1 9 1h5q4 0 12 -2q5 -1 15 -5q19 -9 32 -25q6 -8 8 -12q0 -1 2.5 -6t3.5 -8zM253 95q1 3 2 7t1 7q0 4 -2 12q0 1 -1 4t-1 4q-4 6 -5 7l-6 6q-1 0 -3.5 1t-3.5 2q-2 1 -7 1q-2 -1 -6 -1q-11 0 -17 -1q-1 0 -3.5 -1t-3.5 -1 q-7 -4 -13 -10q-16 -16 -22 -25l-6 -12v-2v-1l3 -9q1 -1 8 -11q2 -2 5.5 -5t4.5 -4q2 -1 5.5 -2.5t5.5 -2.5q8 -2 12 -2q8 0 12 1q3 1 14 5q1 1 4.5 3t5.5 3q4 4 10 12q3 5 7 15z" />
<glyph unicode="/" horiz-adv-x="974" d="M863 1403q9 -9 10 -19q1 -7 -7 -19q-14 -19 -40 -59q-30 -50 -44 -76q-22 -40 -44 -82q-14 -26 -40 -78q-6 -12 -18.5 -36.5t-18.5 -36.5q-6 -13 -18.5 -39t-19.5 -39q-41 -83 -75 -157q-7 -15 -19 -44t-14 -35l-36 -81q-12 -26 -34 -80.5t-34 -80.5q-13 -29 -71 -158 q-46 -104 -68 -156q-22 -55 -32 -75l-2.5 -5t-2.5 -4q-7 -14 -11 -18q-14 -14 -25 -17q-2 0 -5.5 -1t-5.5 -1q-20 -5 -24 -5h-21q-8 0 -14 3q-1 0 -3 1.5t-3 2.5q-3 3 -7 11q-8 5 -9 7q-8 10 -4 21l12 33l30 78q5 13 16.5 39t17.5 39q32 76 68 160q11 27 33 79.5t33 78.5 q39 93 68 164q70 170 135 320q12 27 35 81.5t34 81.5q63 151 78 188q-3 8 -2 16q1 9 9 15.5t17 6.5h5q28 -7 68 -16q21 -4 29 -5q6 -1 18 -2.5t18 -2.5h1q6 8 18 8h2q10 0 17 -6zM771 1319q3 6 10 16.5t11 15.5q-2 1 -7 1t-8 1q-11 1 -28 5q-6 1 -18.5 4t-18.5 5 q-2 -5 -7 -16t-7 -17q-13 -30 -37 -89.5t-37 -89.5q-11 -26 -33.5 -78.5t-33.5 -78.5q-59 -140 -136 -325q-9 -22 -66 -157q-7 -18 -20.5 -50t-24.5 -58.5t-21 -50.5q-11 -27 -34.5 -81.5t-35.5 -81.5q-22 -52 -32 -78q-4 -10 -12 -30.5t-12 -30.5q4 0 10 2q1 1 4 1t5 1v1 l2 2q5 8 19 39q3 7 8.5 21t8.5 21q24 58 140 317q12 28 34.5 81.5t32.5 76.5q6 13 17.5 38.5t16.5 38.5q27 64 34 79q43 95 75 159q13 26 38.5 77.5t38.5 77.5l18.5 37t19.5 38q36 69 43 82q28 50 43 74z" />
<glyph unicode="0" horiz-adv-x="950" d="M129 452v-1v-1v2zM129 449v1v-1zM846 843q2 -88 0 -176q-2 -102 -8 -176q-6 -58 -10 -91q-8 -60 -15 -88q-7 -32 -10 -43q-1 -4 -3.5 -12t-4.5 -14.5t-4 -12.5q-1 -4 -4 -12.5t-5 -12.5t-5.5 -12t-4.5 -12q-6 -16 -19 -38q-5 -8 -17 -24q-1 -2 -8.5 -11.5t-11.5 -14.5 q-8 -9 -18 -16.5t-25.5 -17.5t-20.5 -13q-24 -16 -37 -22q-25 -12 -54 -18q-38 -6 -57 -8q-20 -2 -60 4q-32 5 -53 14q-29 13 -33 16q-2 1 -4.5 3t-3.5 3q-3 2 -9 6.5t-9 6.5q-4 3 -11.5 9t-11.5 9q-10 8 -15 13q-2 3 -6.5 8t-7.5 7q-3 3 -7.5 8.5t-6.5 8.5q-9 10 -20 25 l-6 9t-5 8q-38 55 -76 166q-8 24 -11 36q-1 4 -3.5 12.5t-3.5 12.5t-2.5 11.5t-2.5 11.5q0 3 -1 9.5t-2 10.5q-1 2 -1 6t-1 6l-1 1v2q-1 3 -1 8q0 -1 0.5 -2t0.5 -2v1v1q-1 1 -1 2v2v1q-2 4 -2 7v6v2q0 1 -0.5 3t-0.5 3v1q0 1 -0.5 3t-0.5 3l-1 2v2q0 4 -1 11.5t-1 11.5 q-1 12 -4 37t-5 37q-3 33 -8 146q0 10 -1 28.5t-1.5 33.5t-0.5 28l3 87q2 62 4 91q3 43 11 94q8 47 19 85q11 42 34 86q22 44 53 78q39 42 87 67q15 9 29 14q31 13 59 20q35 8 66 8h1q14 0 61 -7q10 -2 16 -9q7 -1 21 -5q20 -8 23 -9q15 -7 33 -22q51 -41 69 -60 q10 -11 50 -71q24 -38 42 -73q16 -30 31 -84q1 -3 5.5 -19t6.5 -25q6 -30 8 -45q4 -28 8 -88q2 -29 4 -87zM196 450v-2v2zM412 79q1 -1 3 -1t3 -1q-2 2 -6.5 8t-6.5 8q-13 16 -23 32q-2 4 -6.5 11.5t-8 13.5t-6.5 11q-16 32 -20 44q-15 47 -24 84q-19 83 -33 170 q-12 69 -21 176q-4 41 -6 85q-1 30 -1 90q0 28 2 82q1 31 5 88q8 121 20 180q8 41 29 86q12 26 20 38q15 23 30 41q19 23 47 46q-26 -7 -34 -10q-38 -17 -69 -40q-24 -19 -43 -43q-16 -22 -25 -39q-1 -4 -5 -10.5t-5 -9.5q-2 -4 -5.5 -12t-5.5 -12q-9 -25 -11 -32 q-8 -26 -11 -39q-1 -3 -12 -68q-1 -7 -2.5 -19.5t-2.5 -23t-1 -19.5q-1 -11 -2 -34.5t-2 -35.5q-4 -94 -3 -140q0 -15 1 -45.5t2 -46.5q1 -31 5 -83q5 -54 10 -91q0 -4 1 -11t1 -10q0 -1 0.5 -4t0.5 -5q1 -2 1 -7v-3q2 -4 2 -7v-6q0 -1 0.5 -1t0.5 -1v-6v-1q0 -1 1 -4 q0 -4 2 -11.5t2 -11.5q1 -5 3.5 -14.5t2.5 -11.5q5 -21 14 -50q16 -49 33 -92q2 -4 6 -12.5t6 -12.5q10 -20 16 -29q8 -14 33 -47q2 -2 6.5 -7t6.5 -8q4 -5 14 -15q8 -8 26 -22q28 -20 45 -29zM779 660q2 87 0 175q-1 81 -11 170q-1 6 -3 17.5t-3 17.5l-9 36q-14 48 -23 71 q-24 48 -38 70q-21 33 -40 61q-11 13 -26 27q-20 18 -31 26q1 -1 3.5 -2.5t3.5 -2.5q-18 14 -27 20q-14 10 -22 14q-4 2 -16 4h-8q-4 -1 -17 -5q-18 -8 -22 -10l-21 -15q-13 -10 -37 -32q-14 -13 -30 -34q-11 -14 -19 -30q-2 -5 -6.5 -14.5t-7.5 -14.5q-13 -34 -19 -56 q-2 -8 -10 -55q-3 -22 -10 -118q-4 -58 -6 -118q-3 -95 2 -171q7 -93 16 -168q13 -83 27 -157q19 -95 40 -150q18 -37 21 -41q7 -13 25 -37q25 -33 55 -57q0 -1 1 -1t2 -1q4 -2 11 -12q36 6 53 12q13 6 45 27q28 18 32 21q14 12 27 29q16 21 29 51q1 3 3.5 8l3.5 7 q2 5 5 13.5t4 12.5q6 16 8 24q1 4 12 47q9 41 16 93q8 64 12 127q4 79 5 121z" />
<glyph unicode="1" horiz-adv-x="573" d="M472 1399v-9q0 -3 -0.5 -9.5t-0.5 -9.5q-1 -15 -3.5 -45t-3.5 -45q-2 -28 -4 -84l-3 -87q-4 -157 -4 -354q0 -26 0.5 -54.5t1.5 -64t1 -54.5q1 -56 1 -168v-176q-2 -119 -5 -153q3 -8 3 -15v-5q-1 -18 -8 -32q0 -1 -5 -8q-4 -6 -9 -11l-5 -5t-7 -5q-2 -1 -6 -2.5t-6 -2.5 q-11 -4 -35 -10q-22 -4 -35 -3q-32 4 -45 14q-8 6 -13 11q-7 6 -11 14q-1 2 -2.5 6t-2.5 6q0 1 -1 2.5t-1 2.5t-0.5 3t-0.5 3t-1.5 11t-1.5 15v172q0 28 1 84.5t1 84.5q0 117 1 175q1 60 5 173q3 94 2 169q0 31 -1.5 91t-2.5 91v39v46v39l-36 -33q-10 -9 -32 -27 q-33 -26 -44 -34q-10 -7 -26 -3q-14 4 -20 15q-6 10 -3 26q4 11 8 15q1 1 3.5 2.5t3.5 2.5l21 15q25 20 55 48q20 19 62 55q31 27 62 50q11 8 32 25t32 26q3 2 8.5 5.5t7.5 5.5q1 1 3.5 3t3.5 3q11 7 15 8q3 1 10 1q4 0 12 -2q20 -5 27 -31q2 -8 2 -16zM399 1310l3 42 q-12 -9 -35 -27.5t-34 -27.5v-1q-2 -67 0 -201q3 -168 3 -169q0 -117 -2 -176q-4 -117 -5 -178q-1 -28 -1 -84v-84q-1 -57 -1 -171v-87v-44v-36q1 -1 1 -3t1 -4l1 -1q1 0 2 -1l2 -2q2 -1 6 -1h11q19 3 34 9q-2 6 -2 9q5 47 7 143v141q0 113 -1 170q-1 29 -1 86.5t-1 86.5 q-2 117 2 349q1 59 5 177q1 29 5 85z" />
<glyph unicode="2" horiz-adv-x="897" d="M793 61q3 -14 -4 -26q-7 -11 -20 -16q-11 -4 -34 -6q-4 0 -67 -12l-75 -9q-36 -6 -50 -8q-27 -4 -61 -4h-24h-51q-18 0 -52 2q-8 0 -22 2q-22 2 -29 4q-1 0 -3.5 1t-3.5 1q-23 -5 -29 -5q-10 0 -34 2h-21h-15q-2 0 -6 0.5t-6 0.5q-1 0 -8 1t-11 2q-2 1 -6.5 3t-7.5 3 q-24 11 -34 32q-5 12 -7 26q0 5 2 19q0 2 1 6t1 6q1 3 3 9.5t3 9.5q2 4 18 43q13 30 16 37q2 6 8 17.5t9 17.5q17 44 31 76q4 8 11 26t10 27q6 15 16 43t13 36q18 48 36 89q17 40 34 77q5 11 17 36.5t18 39.5q5 13 15.5 41t16.5 41q3 7 15.5 38t18.5 48q15 38 31 83 q20 52 29 79q18 56 25 84q8 30 11 45q4 19 5 32q4 48 4 71t-4 69q0 2 -1 6.5t-1 6.5q-3 20 -11 45q-8 15 -9 17q-5 7 -18 17q-5 4 -15 10q-18 -1 -54 -5l-18 -3q-36 -8 -53 -15q-49 -22 -73 -39q-10 -8 -42 -40q-8 -8 -20.5 -24t-15.5 -19q-10 -12 -14 -19q-6 -9 -16 -29 q-6 -12 -20.5 -15.5t-25.5 3.5q-11 6 -15 20q-4 12 3 26q10 19 24 40q2 2 8 11t10 14t12.5 14.5t9.5 10.5q28 31 44 45q24 22 46 34q10 6 32 16q28 14 42 19q23 8 60 14q44 6 46 6q6 0 22 2t25 2h18h3q14 0 21 -1q26 -2 35 -4q30 -5 56 -16q28 -13 50 -37q19 -22 27 -32 q21 -28 36 -66q26 -64 26 -133q0 -24 -3 -48q-5 -42 -7 -49q-1 -4 -3 -11.5t-3 -10.5q-2 -4 -4.5 -12t-3.5 -12q-4 -13 -14 -37q-24 -60 -37 -90q-6 -14 -18 -39.5t-16 -33.5q-52 -110 -79 -164q-6 -12 -18 -36.5t-18 -37.5q-8 -16 -20.5 -46t-15.5 -36q-44 -104 -63 -157 q-16 -48 -30 -81q-22 -56 -32 -84q-15 -40 -27 -81q-2 -7 -6 -20.5t-6 -19.5q-1 -2 -2.5 -7t-2.5 -8q10 -3 17 -13q22 -2 67 -2h47q45 0 68 3q9 1 26 3.5t24 3.5q2 0 50 6q8 1 24.5 4t25.5 5q34 6 55 8q10 2 16 4q13 4 25.5 -3t16.5 -20zM179 58q1 0 1 -1l2 -1l-1 1 q-1 1 -2 1zM291 158q6 18 29 83q13 38 15 41q2 7 7.5 19t8.5 19q5 14 15 43t15 43q9 26 31 78q45 106 75 169l75 156q46 95 73 158q27 64 33 80q1 3 3 8.5t3 8.5l6 21q4 13 5 22q0 4 1.5 10l2.5 10q2 18 2 28q0 4 0.5 12t0.5 12q0 28 -2 42q0 3 -1 8.5t-2 8.5t-2 8.5t-2 8.5 q-4 19 -13 42q-10 23 -24 42l-9 12q-18 21 -29 30q-6 4 -18 10q-7 3 -21 7q1 0 1 -2t1 -2q6 -14 11 -30q3 -11 10 -56q7 -47 5 -106q-1 -51 -14 -106q-5 -23 -22 -80q-9 -28 -29 -84q-32 -87 -61 -161q-5 -13 -15.5 -40t-16.5 -40q-18 -46 -36 -86q-46 -100 -68 -151 q-7 -17 -19 -51t-18 -50q-26 -68 -40 -101q-2 -5 -6.5 -15.5t-6.5 -16.5q-14 -35 -18 -43q-17 -36 -32 -70q-14 -35 -16 -46v-2l6 -3q4 -2 6 -2h20h21q4 0 13 -1t13 -1q0 3 2 7q1 3 3 9.5t3 9.5q4 13 12.5 40t12.5 40zM592 1310v-4v2v2z" />
<glyph unicode="3" d="M844 648q3 -83 -17 -180q-5 -28 -23 -82q-3 -9 -18 -44q-13 -30 -16 -37q-19 -36 -44 -77q-4 -7 -12 -19t-12 -19q-10 -16 -28 -39q-32 -40 -56 -66q-14 -15 -29 -29q-5 -5 -15.5 -14.5t-15.5 -13.5q-27 -23 -38 -28q-28 -15 -54 -19t-55 -6q-14 -1 -42 -1q-33 0 -49 3 q-28 5 -33 7q-22 8 -41 18q-30 15 -58 43q-28 30 -40 54q-8 14 -11 21q-6 11 -10 23q-7 20 -12 44q-3 13 -7 46q-6 43 -6 89q0 13 10 23t24 10t24 -10t10 -23q0 -51 5 -87q0 -1 2 -15.5t4 -21.5q3 -12 11 -36q13 -29 28 -51q17 -21 32 -33q25 -18 46 -27q9 -3 27 -7h2 q5 4 13.5 10.5t13.5 9.5q18 16 26 25q4 5 12.5 14t12.5 13q4 6 11.5 17t11.5 16q3 4 43 73q4 7 19 33t23 41q7 13 19 38t19 37q14 28 20 42q3 6 7.5 16.5t6.5 15.5q34 84 42 135q2 16 2 25q0 15 -1 22q-5 23 -7 31q-6 22 -10 32q-2 6 -12 20l-11 11q-10 6 -15 8q-15 5 -26 8 q-19 2 -57 -2q-38 -7 -52 -10q-16 -3 -26 3q-13 6 -16 20q-3 11 2 23q-2 5 -2 15q1 10 5 30q8 35 21 77q4 11 8.5 23.5t10 28t8.5 23.5q16 41 27 79q8 26 11 40l6 33q4 35 -1 79q-7 45 -18 74q-8 18 -19 34q-11 12 -23 23q-4 3 -14 9q-2 1 -6 1h-9q-9 1 -9 0l-33 -6 q-2 -1 -7 -4.5t-7 -5.5q-32 -26 -58 -58q-13 -17 -37 -53q-4 -6 -11.5 -18.5t-11.5 -18.5q-2 -3 -5.5 -9t-5.5 -9t-5 -8.5t-4 -7.5q-20 -38 -29 -57q-6 -13 -20 -16t-26 4t-15 20q-4 12 3 26q4 8 26 50q1 2 6.5 12.5t8.5 15.5q5 7 13.5 21t12.5 21q6 10 20 30q30 44 48 63 q21 22 45 42l3 6q8 15 20 16h5t5 1q3 2 8.5 6t10 7t8.5 5q42 24 76 32q35 8 67 8h3q14 0 22 -1q17 -2 30 -6q34 -12 54 -33q20 -22 32 -47q17 -39 22 -64q0 -3 2 -10.5t3 -11.5t2 -11t1 -11t1 -14t2 -15q2 -28 2 -43q0 -21 -3 -42q-4 -32 -8 -47q-1 -3 -3 -10.5t-3 -11.5 t-4 -11.5t-4 -11.5q-2 -7 -7.5 -20t-8.5 -20q-3 -8 -20 -44q-21 -42 -43 -75q-6 -10 -20 -30h1q9 2 25 7t25 8q4 1 11.5 2.5t11.5 2.5q33 7 44 7q7 0 23 -2q2 0 7 -1t8 -1q13 -4 30 -12q25 -11 46 -34q14 -15 20 -28l12 -27q8 -19 13 -43q7 -40 8 -49q0 -8 1 -23.5t1 -23.5z M521 931q24 37 53 100q14 34 20 51q6 14 6 16q1 3 2.5 9.5t2.5 9.5t6 28q2 12 2 19q0 5 0.5 14.5t0.5 14.5q0 18 -4 56q0 3 -2 10.5t-2 11.5q-6 32 -16 58q-13 26 -16 30l-15 15q-8 6 -13 8q-11 4 -20 5q-18 2 -54 -2h-1q1 -1 6.5 -5t7.5 -6q4 -3 7.5 -7t7.5 -9t6 -8 q7 -8 13 -19q2 -3 10 -19q4 -8 10 -24q1 -3 3.5 -9.5t3.5 -9.5q12 -44 15 -87q2 -28 1 -43q-2 -32 -5 -48q-5 -32 -21 -79q-18 -52 -28 -78q-10 -24 -14 -37q-1 -2 -2.5 -6t-1.5 -6q4 5 31 46zM773 551q4 48 4 73q0 27 -1 41q0 12 -2 34q-1 7 -3 19t-4 20q-3 11 -11 31 q-4 11 -12 22q-8 9 -17 17q-6 4 -18 10q-10 4 -23 7h-17q-11 -2 -58 -14q-16 -4 -38 -11q10 -3 22 -8q15 -5 25 -12q22 -15 37 -37q5 -7 13 -23q1 -2 3 -7t3 -7q8 -22 11 -33q7 -23 8 -43q1 -7 1 -20v-18q-1 -18 -7 -50q-3 -14 -11 -40q-12 -37 -32 -85q-8 -20 -16 -38 l-21 -42q-7 -12 -19 -37t-19 -38q-8 -15 -23 -41t-19 -33q-40 -69 -43 -73q-8 -12 -26 -36q-17 -22 -31 -36q3 1 8 1t8 1q17 3 32 9q22 12 27 16q23 19 65 61q24 24 55 64l15 21q6 8 16 24q6 10 28 48q20 34 29 51q4 7 9.5 21t7.5 19q2 4 5.5 12t4.5 12q1 3 2 6.5t2 8t2 6.5 l12 42q10 38 16 85z" />
<glyph unicode="4" horiz-adv-x="940" d="M833 601q5 -95 5 -171q0 -77 -5 -174q-2 -56 -4 -86q-1 -10 -2 -40.5t-3 -47.5q0 -9 -5 -17q-1 -1 -2.5 -3.5t-2.5 -3.5q-9 -9 -24 -9h-1l-6 -9q-6 -6 -15 -9q-2 0 -5 -0.5t-4 -0.5t-4 -0.5t-5 -0.5q-23 -2 -47 5q-3 1 -9.5 3t-9.5 3q-26 8 -39 19q-21 19 -27 60 q-6 47 -6 49q-2 28 -2 83v88q0 55 2 167q1 58 1 175v1q-38 2 -57 2q-21 0 -59 2t-119 12q-12 2 -118 7q-21 1 -62.5 3t-61.5 3q-15 0 -24 9t-9 24v5q-2 13 4 23q14 23 32 63q1 4 5 11.5t5 11.5q15 39 27 78q22 77 24 85q7 27 17 81q7 32 16 85q4 32 5 48q1 8 1.5 17.5 t1 20.5t0.5 17q3 50 1 112q-1 13 9 23t24 10t23.5 -9.5t10.5 -23.5q1 -18 1 -55q0 -7 -0.5 -20t-0.5 -20q-2 -48 -4 -74q-5 -45 -12 -90q-4 -24 -14 -72q-15 -70 -19 -84q-1 -5 -10 -36.5t-14 -48.5q-3 -11 -29 -78q-10 -25 -20 -45l-1 -1v-2q4 0 10 -0.5t10 -0.5l66 -3 q10 0 30.5 -1t31.5 -2q22 -1 62 -7q56 -8 111 -9q34 -2 52 -2q17 0 53 -2q-2 184 -2 275q0 125 -4 377q0 23 23 32q5 10 13 14q7 4 17 4q6 0 9 -1q5 -1 16 -3t16 -3q6 0 18.5 -2t18.5 -2q42 -5 51 -7q13 -3 20.5 -16t3.5 -26q11 -151 12 -253q1 -58 1 -175q0 -125 1 -187 q1 -59 7 -175zM769 327q3 77 1 173q0 29 -8 177q-3 52 -3.5 116t0 115.5t-0.5 115.5q0 92 -3 185q-1 14 -2.5 43t-1.5 43q-1 24 -5 77q-5 0 -16 1t-16 2q-14 2 -40 6q3 -210 3 -211q1 -58 1 -175.5v-176.5q2 -268 1 -345q-2 -112 -2 -167v-87q0 -35 5 -80q2 -13 6 -27l1 -1 q1 -1 1 -2q2 -2 3 -2q3 -1 10 -3t10 -3q5 -2 19 -4q13 -1 26 0q0 9 1 25t1 25t1 28.5t2 29.5q1 14 2.5 38.5t2.5 45t1 38.5z" />
<glyph unicode="5" horiz-adv-x="919" d="M802 515q9 -33 11 -77q1 -14 1 -41q0 -44 -3 -86q-6 -63 -15 -93q-10 -34 -24 -59q-17 -30 -37 -49q-25 -25 -50 -38q-29 -15 -54 -22l-33 -6q-22 -4 -34 -4q-23 0 -34 1q-7 1 -20.5 2t-20.5 1q-47 5 -91 15q-4 1 -12 3.5t-12 3.5t-11.5 3t-10.5 3q-7 3 -21.5 8t-22.5 7 q-14 5 -42 17q-25 10 -43 19q-24 12 -36 19q-36 20 -54 31q-12 7 -15.5 20.5t3.5 25.5t20.5 15.5t25.5 -3.5q9 -6 64 -37l24 -12q4 -2 12 -5.5t12 -5.5q28 -12 42 -17q25 -9 56 -19q32 -10 49 -13q26 -6 28 -6t6 -1t6 -1l1 1l1 1q8 5 24 17q23 18 38 37q1 2 4.5 6t5.5 6 q15 20 19 27q2 4 6 12.5t6 12.5q10 24 20 57q3 9 10 37q1 5 2.5 15t2.5 15q6 52 6 80q0 36 -5 83q-9 60 -23 94q-4 11 -11 23q-1 3 -3 6t-5 6.5t-4 5.5q-13 17 -27 30q-4 4 -8 14q-75 30 -163 43q-39 5 -78 6q-49 2 -73 -1q-20 -4 -30 -8h-1q-1 -1 -2 -1l-2 -2t-1 -2 q-10 -10 -24 -10q-13 0 -23 10q-12 12 -10 24q0 7 1 10v2q2 50 2 74q0 12 -0.5 35.5t-0.5 35.5q0 23 -1 48.5t-2.5 56.5t-2.5 48q-1 25 -2 53t-2 62.5t-2 53.5q-1 17 -2 49t-2 49l-3 105q0 13 10 23t24 10h3q6 3 15 3q106 5 254 5h30q76 0 173 -5q14 -1 41.5 -3t41.5 -3 q61 -4 89 -5q14 0 24 -10t10 -24t-10.5 -24t-23.5 -9q-48 2 -72 4q-18 1 -64 5q-67 4 -137 6q-117 2 -176 1q-108 -2 -164 -4q0 -24 2 -72l3 -69l6 -153q1 -29 3.5 -89t3.5 -89q1 -28 1 -84v-43h3q33 5 60 5h9q37 0 82 -5l48 -6q18 -2 44 -8q36 -8 82 -23q35 -12 83 -37 q38 -20 72 -45q13 -9 37 -31l30 -30q15 -20 31 -43q8 -11 21 -42q9 -25 11 -32zM746 368q2 61 -3 102q-5 29 -18 60q-11 24 -29 48q-14 16 -29 32q-9 9 -14 13l3.5 -10.5t3.5 -11.5q9 -33 14 -79q5 -43 5 -77q0 -42 -6 -84q-7 -54 -18 -91q-15 -47 -33 -84q-16 -30 -39 -58 q-3 -4 -9 -10t-9 -10q12 0 19 1q29 5 50 13q18 8 37 21q17 14 31 31q14 19 20 34q11 27 18 71q5 45 6 89z" />
<glyph unicode="6" horiz-adv-x="997" d="M892 605q5 -43 -1 -95q-2 -18 -8 -54q-1 -3 -3 -10t-2 -10q-1 -3 -2.5 -8t-1.5 -8q-2 -7 -5.5 -21t-5.5 -21q-1 -5 -4 -14t-5 -14q-1 -3 -3.5 -8.5t-3.5 -8.5q-22 -54 -46 -94q-18 -31 -37 -54q-16 -20 -26 -30q-3 -4 -9.5 -10t-9.5 -10q-2 -3 -7.5 -7t-8.5 -7 q-42 -37 -82 -57q-36 -17 -64 -26q-10 -9 -26 -7h-3q-28 -5 -34 -5q-28 -1 -82 11q-4 1 -11.5 3t-11.5 3l-18 6q-60 20 -86 39q-51 37 -85 87q-28 43 -42 95q-8 30 -11 45q-6 28 -16 86q-14 86 -22 182q-4 55 -5 85q-2 68 -1 87q0 1 1 18.5t2 25.5q2 18 6 52q8 58 14 87 q7 34 10 46q2 9 6.5 25t5.5 19q7 23 13 41l6 18q1 4 5 11.5t5 11.5q5 12 10 23q2 4 5.5 12t5.5 12l21 39q1 2 11 17q5 9 13 20q43 62 84 96q32 25 56 40q31 19 55 29q33 14 59 19q24 4 35 4h2q17 0 26 -1q30 -3 62 -14q27 -10 57 -25q44 -23 80 -53q21 -17 42 -43 q19 -24 36 -51q21 -37 29 -60q6 -18 7 -29q0 -1 3 -32q1 -13 -9.5 -23.5t-24.5 -10.5q-13 0 -23 10t-10 24q0 7 -2 19q-3 17 -9 32q-15 33 -47 76q-19 23 -42 42q-22 17 -42 29q-16 9 -50 25q-32 13 -61 17q-19 1 -37 0q-29 -5 -51 -14q-8 -4 -35 -18q-25 -14 -33 -20 q-4 -2 -11 -8t-10 -8q-37 -30 -61 -61q-20 -28 -29 -43q-10 -16 -15 -25q-2 -3 -5 -8.5t-5.5 -10t-4.5 -8.5q-3 -5 -7.5 -15t-6.5 -15t-6 -14.5t-6 -14.5l-12 -33q-10 -27 -18 -61q-9 -38 -15 -71q-4 -22 -10 -66q0 -2 -0.5 -6t-0.5 -6q-4 -28 -5 -42q-2 -30 -2 -44v-45 q0 -7 1 -22t1 -23q4 -59 7 -92q2 -28 8 -84q5 -34 17 -102q3 -19 11 -55q1 -5 3.5 -14t3.5 -12q8 -28 13 -42q1 -1 2 -3.5t2 -4.5q0 12 5 72q5 52 13 91q15 81 54 170q2 3 5 8.5t4 8.5q4 8 10 17q2 3 6 9.5t6 9.5t6.5 9.5t7.5 9.5q19 26 40 45q20 18 31 26q12 9 33 21 q11 6 33 16q30 14 45 19q12 5 22 8q30 10 55 14q35 5 66 2q34 -3 58 -11q33 -11 54 -26q32 -24 46 -38q17 -20 24 -29q6 -9 14 -29q6 -14 9 -26q4 -16 6 -34zM582 713h-1h1zM580 714h-1h1zM515 97q46 88 66 133q25 62 37 106q20 72 26 109q9 81 3 134q-7 42 -18 69 q-13 27 -24 42q1 0 2 -2l1 -2q-4 6 -14 16q-2 2 -6.5 5.5t-6.5 5.5l-9 3q-5 -2 -37 -15q-1 0 -15.5 -6.5t-21.5 -10.5q-14 -8 -40 -26q-23 -17 -47 -49q-15 -19 -26 -38q-5 -8 -13 -24q-2 -3 -4.5 -9t-3.5 -9q-17 -43 -31 -92q-11 -39 -19 -92q-3 -30 -7 -83q-2 -45 2 -78 q1 -2 1 -5t1 -4q6 -9 6 -20v-7q22 -15 41 -24q28 -11 55 -18q25 -7 55 -12q16 -2 33 0q3 0 7.5 1t6.5 2zM826 531q3 39 -1 71q-3 20 -11 41q-7 14 -12 21q-16 19 -33 32q-22 16 -35 22q-14 6 -48 12q-20 2 -29 2l6 -9q11 -15 21 -35q7 -14 17 -44q11 -36 15 -87 q3 -38 -2 -82q-5 -53 -14 -91q-22 -93 -51 -164q-19 -46 -38 -84l-1 -1q13 7 26 17q46 37 79 78q17 23 45 73q7 12 19 38l12 33q10 30 14 45q9 33 11 44q3 16 7 41q0 -1 -0.5 -2.5t-0.5 -2.5q0 5 2 16t2 16z" />
<glyph unicode="7" horiz-adv-x="925" d="M818 1417q4 -7 4 -16q0 -13 -9 -24q-1 -1 -3 -3.5t-3 -3.5t-8 -10.5t-11 -14.5q-4 -6 -12.5 -18.5t-12.5 -18.5q-35 -54 -47 -78l-18.5 -37t-19.5 -38t-21.5 -39.5t-21.5 -39.5l-12.5 -25t-14.5 -28.5t-12 -24.5q-7 -13 -20.5 -38t-19.5 -38q-25 -50 -71 -154 q-34 -84 -51 -135q-4 -12 -12 -37.5t-12 -38.5q-14 -44 -20 -67q-3 -14 -9.5 -43.5t-10.5 -44.5q-17 -76 -18 -82q-6 -33 -13 -86q-2 -13 -6 -38t-6 -38q-4 -38 -5 -57q0 -5 -1 -14.5t-2 -14.5q-3 -30 -4 -36q-3 -12 -15 -19t-24 -5q-15 -6 -30 -9q-43 -9 -75 -1 q-20 5 -31 11q-10 6 -15 10t-13 14q-7 9 -9 32q0 1 -0.5 5t-0.5 5q0 8 2 23.5t2 23.5q4 54 7 81q1 8 3 24.5t3 24.5q0 1 2 18t4 25q6 28 16 84q5 29 19 85q3 13 9.5 39t9.5 39q2 8 5.5 23.5t5.5 22.5q1 3 12 40l27 78q5 13 13.5 39.5t12.5 39.5q3 10 30 85q22 60 28 76 q29 74 73 168q24 52 38 78q33 64 40 76q4 7 12 20.5t12 20.5q11 19 22 34q23 31 25 34h-22q-15 1 -45.5 2t-45.5 1t-44 1t-43 1q-78 2 -191 15q-10 0 -17 4q-1 1 -3.5 3t-3.5 3q-9 9 -9 23t10 24t21 10h2q89 -10 154 -13q8 0 22.5 -1t26 -1.5t22.5 -0.5q48 0 72 -1 q1 0 35 -1.5t51 -1.5q58 0 87 -1q28 -1 84 -1l44 1q43 1 43 -1q16 -2 24 -10q7 -7 9 -19zM708 1346q12 19 23 34q-3 0 -8 -0.5t-8 -0.5h-67h-25l-3 -3q-3 -4 -10 -12t-11 -11q-2 -2 -6.5 -7.5t-7.5 -8.5q-19 -26 -39 -59q-35 -60 -45 -80q-6 -13 -19 -38t-20 -38 q-7 -14 -37 -79l-33 -75q-20 -50 -29 -75q-20 -52 -29 -78l-27 -84q-5 -13 -14 -39.5t-13 -39.5q-21 -60 -25 -79q-3 -14 -9.5 -41.5t-10.5 -41.5q-16 -58 -22 -87q-2 -8 -15 -82q-1 -7 -4 -20t-4 -20q-1 -6 -3 -18.5t-3 -18.5l-9 -90q-1 -7 -2 -22.5t-2 -22.5 q-1 -12 -1 -36l6 -3q7 -2 17 -4q13 -2 27 0q-1 0 -3 -0.5t-3 -0.5q12 2 20 4q3 1 9 2.5t9 2.5q1 9 2.5 26t2.5 26q4 45 12 91l12 84q11 69 34 166q16 66 22 83q4 14 13 42.5t14 42.5q35 102 63 166q51 116 75 162l39 75q6 12 19 37.5t20 38.5t20.5 38t19.5 38q21 43 40 76 l24 42q4 6 12 18.5t12 19.5z" />
<glyph unicode="8" horiz-adv-x="897" d="M790 478q8 -41 4 -99q-3 -52 -14 -90q-20 -68 -55 -112q-18 -24 -49 -52q-52 -46 -105 -72q-32 -16 -61 -27l-18 -6q-5 -3 -15 -7q-12 -4 -20 -4h-3q-6 -2 -8 -2q-7 0 -13 3q-1 0 -2.5 -0.5t-2.5 -0.5q-5 -1 -16.5 -1t-17.5 -1h-17q-64 0 -109 24q-9 4 -39 23t-46 38 q-14 15 -29 37q-10 13 -17 26q-13 23 -20 45q-8 27 -11 49q-4 28 -4 41q-1 29 8 71q10 49 24 82q24 58 40 86q7 13 23 37q4 6 11.5 18.5t11.5 18.5q7 12 22.5 35.5t23.5 35.5q7 11 46 71q16 24 25 36q4 5 12.5 15.5t12.5 16.5l-12 9q-5 4 -15 14l-33 33q-16 17 -31 37 q-10 12 -14 19q-2 3 -6.5 9.5t-6.5 10.5q-15 23 -24 48q-3 7 -7 21q-11 37 -12 41t-2 11.5t-1 11.5q-2 10 -4 30q-1 14 -1 41q0 17 4 51q3 21 9 44q1 4 3 10.5t3 9.5q8 30 9 32q7 19 14 31q4 8 14 22q4 5 12 15.5t12 15.5q18 21 36 34q15 10 44 22q9 4 27 10q31 10 57 13 q27 3 61 1q26 0 51 -6q3 -1 37 -12q3 -2 11.5 -4t11.5 -4q23 -10 28 -13q18 -12 26 -19q28 -23 43 -44q6 -9 20 -36q10 -22 18 -45q8 -28 11 -43q6 -26 8 -43q4 -22 6 -47q2 -28 1 -43q-2 -35 -5 -52q-1 -8 -11 -43q-9 -30 -13 -39q-10 -24 -21 -44q-14 -26 -22 -38 q-28 -43 -58 -73q-40 -42 -60 -62q-2 -2 -5 -4.5t-4 -3.5q1 0 1 -1l2 -1q16 -11 28 -20q1 0 2.5 -2t2.5 -2t2.5 -2t2.5 -2h1l3 -3q1 -1 3 -2t3 -2l2 -2l2 -2q0 -1 2 -2t3 -1q1 -1 3 -2.5t3 -2.5q3 -3 9.5 -8t9.5 -8q3 -2 8 -8t8 -8q2 -2 6 -5.5t6 -5.5l21 -21q12 -12 32 -38 q21 -27 33 -53q14 -30 20 -60zM326 943q24 -30 44 -48q2 -2 6.5 -6t6.5 -6t6.5 -6t6.5 -6q1 -1 3.5 -2.5t3.5 -2.5q3 4 8 10.5t7 9.5q25 33 33 47q6 8 16 24t16 24q24 35 29 45q14 25 24 49q27 67 35 125q2 22 2 66q0 31 -3 61q-1 5 -2.5 15.5t-2.5 15.5q-2 16 -4 22 q-1 0 -1 0.5t-1 0.5q-25 8 -40 10q-22 2 -34 2q-35 0 -52 -2q-26 -4 -66 -21q-16 -8 -23 -13q-16 -15 -35 -39q-14 -17 -20 -32q-7 -19 -18 -63q-1 -5 -3.5 -14t-3.5 -13q0 -3 -1 -9.5t-1 -9.5v6q-2 -39 -2 -47q0 -17 1 -25q1 -4 1 -11t1 -10t2 -8.5t1 -8.5q1 -3 2.5 -11 t2.5 -11q12 -36 15 -43q9 -20 26 -46q4 -7 14 -19zM310 85q13 -4 17 -5q-1 1 -7 10q-13 18 -21 34q-12 24 -17 43q-7 21 -10 50q-3 33 4 87q6 41 18 82q7 27 25 79q10 28 32 84q6 16 20 48q6 13 20 37q6 10 28 39q16 22 25 32q8 10 22 26q11 8 27.5 27t19.5 22q1 0 1 1v1 l1 -1q8 8 24 24.5t24 24.5q3 3 14 13t16 16q5 5 13.5 15t12.5 15q16 21 27 40q10 16 26 48q11 26 17 47q7 24 8 28q2 6 4 22q3 29 2 52q-2 30 -4 45q-5 30 -12 60q-5 23 -17 52q-10 24 -22 41q-2 2 -5.5 6t-5.5 6q1 -6 1 -17q2 -24 2 -37v-41q0 -12 -2 -38q-4 -43 -17 -87 q-14 -48 -33 -88q-6 -13 -20 -39q-14 -24 -22 -35q-4 -6 -12 -17.5t-12 -17.5t-11 -17.5t-11 -16.5q-16 -24 -25 -36l-27 -33q-4 -6 -12.5 -17.5t-13.5 -17.5q-16 -22 -29 -37q-2 -2 -5.5 -8t-5.5 -8l-24 -36q-4 -6 -11.5 -17.5t-11.5 -16.5q-40 -62 -47 -73 q-15 -23 -45 -71q-11 -17 -22 -40q-8 -14 -16 -34q-13 -30 -21 -58q-8 -27 -13 -60q-3 -31 2 -66q1 -3 2 -12.5t3 -14.5q2 -7 8 -21q4 -9 14 -27q9 -16 19 -28q1 -2 5 -6q12 -13 25 -25q8 -6 24 -16q19 -13 37 -21zM724 349q7 59 2 102q-5 27 -13 49q-15 32 -32 54 q-32 40 -94 93q-1 1 -4 3q-1 0 -1 1l-2 1l-1 1l-1 1q-1 1 -4 3q-2 1 -5 4q-2 1 -4 3q-1 0 -2 1l-2 2q-3 2 -8 5.5t-8 5.5q-4 3 -11.5 8l-10.5 7l-2 -2t-1 -2q-39 -43 -49 -57q-24 -34 -27 -40q-5 -10 -22 -45q-18 -43 -48 -131q-25 -78 -34 -133q-2 -24 -2 -36t2 -34 q5 -27 13 -47q9 -20 26 -44q9 -11 29 -29q7 -5 21 -13q1 0 3 -1t3 -1q3 0 9.5 1t9.5 2q4 1 11 1q1 1 5 3.5t5 3.5q9 6 22 4q1 1 4 2t4 1q54 23 106 62q35 28 59 58q18 25 35 60q13 34 19 73z" />
<glyph unicode="9" horiz-adv-x="991" d="M889 798q0 -117 -3 -175q-4 -58 -7 -86l-3 -24t-3 -25q-4 -36 -7 -54q-2 -14 -17 -87q-1 -4 -12 -43q-7 -27 -14 -43q-11 -28 -27 -58q-14 -26 -35 -54t-39 -46q-27 -26 -50 -42q-23 -17 -49 -29q-57 -28 -123 -37q-51 -7 -70 -5q-34 2 -64 10q-65 18 -113 55 q-22 17 -44 47q-19 26 -28 48q-21 49 -37 120q-9 41 -19 127q-1 12 10 23q10 10 24 10t24 -10q6 -6 9 -15q0 -1 0.5 -4t0.5 -4q4 -37 7 -59q12 -87 39 -154q13 -27 28 -48q13 -16 30 -30q19 -14 49 -28q32 -13 68 -19q37 -3 69 1q53 8 92 24q41 18 72 42q32 26 55 56 q29 39 54 93q14 35 17 47q2 5 4.5 15.5t3.5 16.5q8 32 11 48q1 8 3.5 23.5t4.5 23.5q1 7 3.5 21t3.5 21l6 63q1 8 2.5 23.5t2.5 28t1 23.5q1 13 1.5 27.5t1 32t0.5 27.5q1 0 0 42v42v-1q-1 -1 -1 -2q-22 -54 -38 -78q-17 -26 -59 -70q-41 -43 -87 -65q-52 -24 -86 -32 q-24 -6 -50 -9q-30 -4 -44 -4q-37 0 -44 1q-6 1 -20 3t-20 3q-29 6 -62 17q-40 15 -59 30q-22 18 -33 28q-43 40 -62 71q-12 21 -27 60q-11 29 -17 56q-3 15 -7 47q-2 14 -2 21q-2 28 -2 42q0 32 1 47q0 16 1 24q0 4 1 11.5t1 11.5q2 19 8 49q2 11 5 23q2 10 8 30 q13 38 23 61q10 24 22 41q3 4 9 12.5t8 12.5q5 7 26 36q42 51 93 85q56 36 115 51q47 11 92 11q22 0 32 -1q35 -3 63 -10q30 -8 56 -21q22 -11 28 -15q18 -12 26 -19q20 -17 39 -41q28 -36 39 -56q17 -31 25 -57q4 -11 9.5 -32t7.5 -28q7 -24 11 -41l9 -39q12 -64 16 -92 q6 -46 9 -89q4 -56 4 -85zM322 630q29 -11 63 -18q-1 0 -1 1t-1 2q-14 20 -21 31q-25 39 -40 81q-8 22 -12 43q-6 30 -8 46q-8 58 -8 88q0 100 16 179q7 35 25 83q3 9 18 44q16 34 18 38q14 26 22 38q5 6 13.5 19t12.5 19q12 16 18 23q-14 -4 -42 -14q-39 -18 -68 -40 q-37 -30 -67 -67q-12 -17 -25 -37q-18 -29 -28 -50q-11 -25 -19 -57q-1 -4 -3.5 -12.5t-3.5 -13.5q-3 -12 -7 -38l-3 -36q-1 -15 -1 -46q0 -32 1 -48q1 -6 2 -20t1 -20q7 -44 26 -92q11 -25 26 -46q22 -28 61 -59l18 -12q3 -2 8.5 -5t8.5 -4zM804 970q1 5 1 16q-1 0 -1 4 l1 5q0 4 -1.5 11.5t-2.5 11.5q-9 45 -13 61q-2 8 -6 23.5t-6 23.5q-17 61 -26 82q-12 26 -37 60q-23 29 -41 43q-18 13 -44 25q-27 11 -69 18q-1 0 -11 1.5t-15 1.5l-1 -1q-6 -6 -16 -18.5t-16 -18.5q-3 -4 -8.5 -11.5t-8.5 -10.5q-14 -18 -20 -27q-16 -24 -23 -36 q-3 -6 -9 -17t-8 -15q-3 -5 -13 -28q-3 -7 -8 -20t-7 -20q-5 -14 -13 -42q-9 -31 -14 -72q-6 -51 -6 -103q0 -34 2 -51q1 -8 2.5 -24t2.5 -24q2 -14 8 -40q8 -28 13 -42q20 -45 58 -97q2 -2 5 -5.5t4 -4.5h2q15 -4 22 -21h8.5t8.5 1q32 7 43 10q15 4 43 14q18 8 26 13 q26 14 38 23q27 23 65 68q11 15 22 34q2 4 18 38q3 7 9.5 22t9.5 23q14 32 20 58q7 27 12 58z" />
<glyph unicode=":" horiz-adv-x="417" d="M298 281q0 -1 2.5 -6t3.5 -8q5 -15 5 -28t-1 -20q-1 -6 -5 -18q-6 -18 -18 -33q-27 -34 -69 -40q-23 -3 -43 4q-13 5 -22 10q-12 8 -17 13q-14 14 -17 19q-5 8 -9 19l-3 9q-1 2 -2 5.5t-1 5.5q0 14 2 21q0 2 2 5.5t2 5.5v1l1 2q0 1 1.5 3t2.5 3q4 9 11 17q14 18 21 24 l18 15q11 7 18 9q11 4 19 5h17q6 2 9 2q1 0 2.5 -0.5t2.5 -0.5q4 0 12 -2q10 -2 15 -4q17 -8 32 -26q6 -8 8 -12zM253 220q1 3 2 7t1 7q0 4 -2 12q0 2 -1 5t-1 4q-4 6 -5 7t-3 2.5t-3 2.5t-3.5 2t-3.5 1q-4 2 -7 2q-2 -1 -6 -1q-11 0 -17 -1q-1 0 -3.5 -1t-3.5 -2 q-10 -6 -13 -9q-16 -16 -22 -25l-6 -12v-2v-2q0 -1 1 -3.5t2 -4.5q2 -4 8 -12q1 -1 5 -4t5 -4q2 -1 5.5 -2.5t5.5 -2.5q1 0 3.5 -1t4.5 -1.5t4 -0.5q8 0 12 1q3 1 14 5q1 1 5 3.5t5 3.5q4 4 10 12q4 7 7 14zM310 878q5 -15 5 -28t-1 -20q-1 -6 -5 -18q-6 -18 -18 -33 q-26 -33 -69 -39q-25 -4 -43 3q-13 5 -22 10q-12 8 -17 13q-14 14 -17 19q-5 8 -9 19l-3 9q-1 2 -2 5.5t-1 5.5q0 14 2 21q0 2 1.5 5.5t2.5 5.5v1q1 1 1 2q1 1 2.5 3.5t1.5 3.5q3 6 11 16q14 18 21 24l7 6q7 7 11 9q11 7 18 9q11 4 19 5h17q6 2 9 2h5q4 0 12 -2q5 -1 15 -5 q17 -8 32 -26q8 -10 8 -11zM259 831l3 15q0 3 -2 11q0 1 -1 4t-1 5q-4 6 -5 7t-3 2.5t-3 2.5q-1 0 -3.5 1t-3.5 2q-4 2 -7 2q-2 -1 -6 -1q-11 0 -17 -1q-1 -1 -3.5 -1t-3.5 -1q-7 -5 -13 -10q-16 -16 -22 -25l-6 -12v-2v-2q0 -2 1 -4l2 -4q2 -4 8 -12q2 -2 5.5 -4t4.5 -4 q2 -1 5.5 -2.5t5.5 -2.5q1 0 3.5 -1t4.5 -1.5t4 -0.5q8 0 12 1q3 1 14 5q2 1 5.5 3.5t4.5 3.5q4 4 10 12q4 7 7 14z" />
<glyph unicode=";" horiz-adv-x="442" d="M338 250q2 -18 2 -26q0 -27 -4 -47q-7 -37 -11 -47q-8 -22 -16 -41q-7 -18 -18 -37q-13 -24 -29 -43q-7 -9 -18.5 -9.5t-19.5 6.5q-19 17 -3 38q2 3 7 9.5t8 10.5q15 24 22 42q11 24 17 44q7 26 8 31l3 24q-7 -3 -13 -5q-15 -5 -20 -5q-14 0 -21 2q-7 1 -16 5 q-33 12 -48 35q-10 17 -14 31q-4 16 -3 34l3 15q5 13 7 16q11 19 23 27q14 8 25 11t21 3q2 0 5 -0.5t5 -0.5q14 -1 29 -8q2 -1 6 -3.5t6 -3.5q1 -1 6 -4t7 -5q20 -18 31 -47q5 -13 11 -39q2 -6 2 -10v-3zM263 254q3 1 9.5 4t9.5 5q-2 11 -10 26q-1 2 -3.5 5.5t-4.5 6.5l-4 6 q-1 1 -3 2.5t-3 2.5q-2 1 -6.5 3t-6.5 3q-8 2 -11 2h-6q-1 0 -3 -1t-3 -1q-1 -1 -4 -3q-3 -3 -4 -5l-4 -8q-2 -6 -2 -9q0 -1 0.5 -4t0.5 -5q2 -8 4 -11q3 -6 7 -10q3 -3 5 -4q10 -6 15 -8q2 -1 6 -1t6 -1h2q6 1 13 5zM216 735q-23 -3 -43 4q-13 5 -22 10q-15 10 -17 12 q-13 13 -17 20q-6 9 -9 18l-3 9l-3 12q0 13 2 20q0 2 2 5.5t2 5.5v1l1 2q1 1 2.5 3.5t1.5 3.5q3 6 11 16q14 18 21 24l7 7q7 6 11 8q11 7 18 9q11 4 19 5q5 1 17 1q3 1 9 1h5q4 0 12 -2q5 -1 15 -5q19 -9 32 -25q6 -8 8 -12q0 -1 2.5 -6t3.5 -8q5 -15 5 -28q0 -14 -1 -21 q-1 -4 -5 -17q-7 -20 -18 -34q-26 -33 -69 -39zM159 815q1 -1 8 -11q1 -1 5 -3.5t5 -4.5q2 -1 5.5 -3t5.5 -3q8 -2 12 -2q8 0 12 1q3 1 14 5q2 1 5.5 3.5t4.5 3.5q7 7 10 11q3 5 7 15q1 2 2 6.5t1 7.5q0 4 -2 12q0 1 -1 4t-1 4q-4 6 -5 7l-6 6q-1 0 -3.5 1t-3.5 2q-2 1 -7 1 q-2 -1 -6 -1q-11 0 -17 -1q-1 0 -3.5 -1t-3.5 -1q-8 -4 -13 -10q-16 -16 -22 -25l-6 -12v-2v-1z" />
<glyph unicode="=" horiz-adv-x="940" d="M823 486q6 -10 7 -15q3 -12 3 -24v-8q0 -16 -6 -31q-1 -3 -8 -12q-3 -4 -13 -9q-5 -3 -17 -5q-6 -1 -19 -1q-6 0 -20 -0.5t-20 -0.5q-54 -2 -79 -2h-52h-33h-87l-168 3q-15 1 -43 1t-43 1q-32 1 -101 5q-8 0 -17 11q-6 8 -4 20l3 9q-2 4 -2 7q-1 17 8 41q2 8 4 14 q3 8 10 17q5 5 11 8q11 5 15 6t14 1h42q10 0 32 0.5t32 0.5h16q13 -1 39.5 -1t39.5 -1q81 -3 164 0q27 1 82 1h25h29h25q16 0 46 -2q20 -2 38 -6l9 -3q17 -6 19 -7q15 -9 19 -18zM777 458v-1v1zM779 438v15q0 3 -1 4q0 1 -2 1t-2 1q-20 6 -50 8q-41 2 -122 2q-41 0 -125 -2 q-9 0 -36.5 -1t-42.5 0l-81 3h-39h-40q-7 0 -20.5 -0.5t-20.5 -0.5h-21h-1h-3h-7l-3 -12q-2 -5 -4 -15v-1v-1h5q25 -2 148 -4q24 -1 72.5 -2t72.5 -1q56 -1 167 -1q26 0 82 2q13 1 39 1h12h23v4zM779 456l3 -3q0 1 -1 1l-1 2h-1zM838 618q0 -23 -3 -33q-4 -12 -9 -17 q-6 -6 -14 -9q-9 -3 -19 -3q-3 0 -9 -0.5t-9 -0.5q-7 0 -20 0.5t-19 0.5q-55 0 -82 -1q-134 -2 -161 -2q-14 0 -43 0.5t-43 0.5h-84h-87q-31 0 -46 1q-30 2 -47 4q-9 1 -17 11q-6 9 -4 21q2 11 11 17l6 3q-3 1 -9 5q-9 7 -9 18q0 12 1 18q0 5 2 11q2 9 5 13q6 10 11 13 q9 6 23 8q11 1 32 1h12h17h61h28q36 0 54 -1q109 -4 163 -3q168 3 169 3q27 0 41 -1q39 -3 46 -4q6 -1 18 -5q13 -5 14 -6q5 -4 9 -9q5 -7 6 -12q1 -3 1 -7t1 -6q0 -2 1 -4.5t1 -3.5q1 -7 1 -21zM782 639h-1h1zM167 643h-1h1zM778 609h6q0 19 -1 29q-11 2 -33 4q-22 1 -65 1 q-44 0 -66 -1q-112 -2 -134 -2q-14 0 -41.5 1t-41.5 1q-54 2 -80 2q-14 0 -41 0.5t-40 0.5q-7 0 -20 -0.5t-19 -0.5h-3h-6h-18v-6q0 -7 -3 -13q0 -1 -2 -3t-2 -3q-6 -6 -10 -8q2 0 37 -3h88h51q46 0 140 -2q0 -1 40 0h41q13 0 40 1t40 1t41 0.5t41 0.5h41h20zM786 637l1 -1z " />
<glyph unicode="?" horiz-adv-x="888" d="M775 1195q11 -35 11 -70q0 -37 -1 -45q-3 -26 -14 -53q-6 -18 -10 -26q-13 -28 -43 -73q-13 -20 -25 -37q-6 -8 -17.5 -23t-13.5 -17q-3 -4 -21.5 -28.5t-28.5 -36.5q-44 -60 -51 -70q-28 -44 -44 -77q-12 -30 -21 -65q-3 -11 -7 -35q-1 -6 -2.5 -17t-2.5 -16l-9 -81 q-1 -14 -2.5 -41.5t-2.5 -41.5q0 -4 -2 -10q1 -2 1 -7q0 -14 -10 -24q-8 -8 -23 -10q-44 -2 -64 -5q-4 0 -13 -2t-13 -2q-22 -2 -38 10q-4 2 -10 8q-4 4 -7 10q-6 9 -7 18q-5 25 -7 57q-1 42 0 84q2 49 10 91q7 40 23 81q10 28 34 82q6 13 20 39q4 6 11.5 18.5t10.5 18.5 q7 12 46 68q13 18 22 32q16 24 23 36q17 28 38 70q1 4 4 12.5t5 12.5q6 17 6 19t1 6t1 6q1 13 1 38q0 14 -2 42q-1 5 -3 15.5t-3 15.5q-2 12 -10 31q-14 31 -45 75q-22 25 -27 29q-2 1 -5.5 2.5t-4.5 2.5t-5 2.5t-5 1.5q-6 1 -11 5q-37 -7 -60 -17q-17 -8 -33 -19 q-28 -23 -60 -62q-15 -19 -30 -44q-3 -4 -7 -12.5t-7 -13.5q-7 -12 -11 -23l-9 -24l-9 -24q-10 -27 -18 -61q-4 -13 -16 -20t-25 -3q-14 4 -21 16t-3 25q2 7 6 21.5t6 21.5q1 5 4.5 13.5t4.5 11.5q19 53 37 88q6 12 20 34q16 23 29 40q18 22 28 32q32 32 51 45q40 26 126 44 q32 6 48 8q20 2 30 2q18 0 36 -3q17 -3 38 -9q22 -8 41 -16q32 -14 46 -25q9 -6 25 -20q3 -3 9.5 -8.5t11.5 -10t9 -8.5q3 -3 8.5 -9t7.5 -9q3 -3 8.5 -10.5t8.5 -11.5q11 -14 18 -28q9 -19 15 -37zM342 350h-1h1zM718 1085q3 31 0 63q-5 25 -13 45q-9 17 -25 39 q-8 10 -12 14q-5 6 -17 16q-14 14 -29 26q-6 5 -20 13q-8 5 -16 8q-42 18 -71 23h-2q10 -12 14 -18q18 -26 26 -40q16 -28 20 -36q5 -10 10 -25q1 -3 3 -11t3 -11q3 -13 7 -39q4 -32 4 -48q2 -50 -10 -87q-11 -33 -17 -45q-6 -13 -20 -39q-15 -27 -42 -69q-2 -3 -23 -32 q-4 -5 -11.5 -16.5t-11.5 -17.5q-8 -11 -22 -35q-3 -5 -11 -16.5t-11 -18.5q-19 -36 -33 -70q-17 -41 -26 -73q-8 -33 -9 -38q-1 -6 -2.5 -16.5t-2.5 -15.5q-5 -43 -5 -79q0 -49 3 -73q0 -2 1 -6.5t1 -6.5q2 0 6 0.5t6 0.5q26 4 39 5h4q1 9 2 25.5t2 24.5q1 11 2.5 32 t2.5 32q1 13 4 37.5t5 36.5q3 21 15 63q13 48 32 84q17 32 44 73q19 27 107 140q19 24 44 63q4 7 12 18.5t12 18.5l15 30q14 40 16 51zM496 141q6 -11 7 -24q2 -14 1 -21q0 -4 -2 -14q-1 -3 -5 -14q-7 -17 -10 -21q-8 -12 -14 -18q-2 -2 -5.5 -5t-6.5 -5.5t-6 -4.5 q-10 -8 -28 -13q-7 -2 -21 -4h-15q-13 2 -20 5q-18 8 -20 9q-29 20 -36 45q-6 27 -2 52q3 16 7 25q3 8 11 24q6 12 16 22q3 4 21 16q8 5 16 5q11 0 21 -8q14 2 21 1q17 -2 27 -7q12 -6 25 -21q13 -13 18 -24zM437 101v4q0 3 -1 5l-1 2q-1 2 -1 3q-5 6 -11 11h-1l-1 1h-2 q-17 -2 -25 3h-1l-4 -8l-4 -8q-4 -9 -7 -20v-15q0 -1 1 -2.5t1 -2.5l4 -4q2 -2 7 -4q4 -2 6 -2h6q1 0 4.5 1t5.5 2q6 3 7 4l8 8q1 2 3 5t3 5z" />
<glyph unicode="@" horiz-adv-x="1019" d="M916 1108q0 -8 0.5 -23t0.5 -22q0 -1 -3 -43q-2 -32 -4 -50q-1 -8 -3.5 -22.5t-3.5 -21.5q-1 -3 -2 -8.5t-2 -8.5t-2.5 -10.5t-2.5 -11.5q-10 -36 -21 -64t-25 -52q-12 -20 -19 -30q-13 -17 -17 -22q-24 -26 -45 -35q-33 -14 -62 -11l-15 3q-12 5 -14 6q-19 12 -23 16 l-2 2q-1 -3 -2 -9t-2 -9q-7 -28 -13 -46q-12 -36 -22 -52q-14 -26 -38 -48q-16 -14 -29 -20q-5 -2 -11 -4q-15 -3 -16 -3q-6 0 -16 2q-2 1 -5 2t-5 1l-2 1l-2 1q-16 10 -23 16q-2 2 -6.5 5.5t-6.5 5.5q-4 4 -10 12q-11 16 -16 28q-12 25 -18 53q-16 72 -15 121q2 75 19 124 q21 63 73 92q33 18 66 15q29 -3 52 -20q13 -8 24 -23q11 -13 15 -21q12 -23 22 -56q12 -42 14 -65q1 -8 1.5 -17.5t1 -20.5t0.5 -17h1q1 -2 2.5 -4.5t2.5 -3.5q3 -3 11 -9l2 -1q3 -2 5 -3t7 -1q10 0 15 1q7 2 21 8q10 6 14 10q18 18 31 38q24 38 39 83q9 28 15 55q1 2 2 6.5 t1 6.5q0 3 1 9t1 9q4 20 5 30q1 6 2 18.5t2 18.5q0 3 0.5 7t0.5 7t0.5 10t0.5 11v40q0 27 -1 40q-4 44 -8 64q-8 35 -21 64q-13 22 -28 39q-9 10 -19 19q-2 2 -20 15q-16 10 -25 14q-5 3 -25 10q-31 10 -68 13h-19l-24 -3q-2 -1 -6.5 -1t-6.5 -1q-40 -10 -70 -25 q-32 -17 -58 -40q-32 -30 -62 -74q-27 -44 -47 -101q-2 -7 -5.5 -20.5t-5.5 -19.5q-1 -4 -3.5 -12.5t-3.5 -12.5q-2 -7 -4.5 -20.5t-3.5 -20.5q-4 -17 -5 -29q-2 -10 -4 -30q-1 -7 -2.5 -20.5t-2.5 -20.5q-1 -10 -2.5 -30t-2.5 -30q-4 -76 -4 -114q0 -143 1 -171q1 -8 1 -23 v-22q2 -30 4 -47q0 -4 1 -12t1 -12q0 -3 1 -8.5t1 -8.5q2 -7 4.5 -21t3.5 -21q1 -4 3 -12.5t3 -12.5l6 -24q1 -5 4 -14.5t5 -14.5q2 -7 6 -19q4 -8 11 -26t10 -26q7 -16 21 -46q10 -20 16 -30q26 -40 42 -58q16 -17 37 -32q13 -8 34 -17q25 -7 46 -8q19 -1 44 2q42 6 44 6 q27 7 47 16q22 13 45 32q19 19 30 35q14 22 26 54q9 31 15 61q4 17 5 28q0 5 2 15.5t2 16.5l6 54q2 17 4 47v27q0 12 7 20q7 7 18 9q12 2 20 -6q9 -7 9 -19q0 -13 -5 -81q-6 -63 -6 -65q-4 -33 -7 -46q-2 -14 -4 -21q-1 -4 -3.5 -12.5t-3.5 -12.5q-2 -9 -11 -38 q-11 -30 -23 -50q-19 -32 -39 -50q-26 -24 -46 -36q-29 -18 -58 -26q-33 -8 -60 -11q-37 -5 -70 -2q-14 -2 -23 -2q-10 -1 -27 1q-20 4 -45 13q-7 3 -18.5 8.5t-16.5 7.5q-24 10 -35 16q-25 13 -38 23q-17 13 -30 24q-5 4 -15 13.5t-15 14.5q-15 13 -27 27q-17 19 -49 59 q-16 20 -24 31q-6 9 -21 36q-24 48 -34 79q-3 10 -19 89q-3 15 -7 45q-2 14 -4 46q-4 60 -5 89q-2 44 0 86q0 12 1 26t2.5 30.5t2.5 26.5q2 32 10 86q2 16 3 23q0 4 2 11.5t3 10.5l2.5 10t1.5 9q2 14 4 19q1 6 8 26q1 4 3.5 10t3.5 9q5 14 17 42q9 21 20 39q4 6 12 20.5 t12 20.5q10 17 27 39q18 24 27 35q23 27 32 37q23 25 61 58q16 14 34 28q4 3 16.5 13t19.5 15q21 15 41 26q28 15 35 18q30 10 46 13q4 1 12.5 2t12.5 1q16 4 24 5q13 2 38 2h12h3q10 0 15 -1q35 -4 57 -11q42 -14 61 -26q9 -5 25 -17q14 -12 20 -18q29 -29 42 -50 q13 -20 24 -55q12 -42 15 -63q1 -5 2 -14.5t1 -14.5q2 -14 2 -21v-26zM295 1112q15 50 23 69l-3 -3q-5 -6 -33 -44q-3 -4 -21 -32q-12 -18 -19 -33q-3 -6 -9.5 -18t-9.5 -18t-13 -31q-1 -3 -3.5 -9t-3.5 -9t-3 -10t-3 -10q-2 -7 -4 -17q-5 -18 -5 -22q-6 -24 -8 -40 q-1 -6 -2.5 -17.5t-2.5 -17.5q-1 -4 -1 -13q-1 -14 -3.5 -42t-3.5 -42q-3 -42 -3 -84q0 -28 2 -86q0 -8 1 -26t2 -27q1 -13 5 -39q3 -21 11 -63q8 -46 15 -68q9 -28 28 -61q6 -11 29 -43q30 -38 45 -56q16 -20 25 -28q5 -4 12 -11.5t12 -11.5l27 -24q-6 8 -16 26 q-4 6 -10 18q-10 17 -11 20q-7 14 -19 42q-6 12 -8 18l-9 24q-1 3 -3 8.5t-3 8.5q-1 4 -4 12.5t-4 12.5q-1 3 -3 9.5t-3 9.5q-1 4 -2.5 11t-2.5 10q-7 27 -11 46q-3 16 -7 43q-2 13 -4 43q-4 63 -5 92q-1 30 -1 91v80q0 32 1 49l3 51q0 7 1 21t1 21q2 26 4 41q1 7 2.5 21.5 t2.5 21.5q2 8 4 26t4 26l3 15q1 5 3.5 15t3.5 15q6 26 10 39zM609 769q6 23 15 30q-2 18 -4 27q-8 38 -22 67q-4 8 -15 21q-5 5 -13 11q-7 4 -14 7l-12 3q-9 0 -14 -1q-15 -5 -17 -6q-12 -8 -18 -13q-13 -13 -18 -21q-13 -24 -16 -33q-11 -36 -14 -84q-1 -27 2 -60 q4 -36 8 -56q9 -38 20 -61q3 -5 12 -17q10 -9 20 -17q1 0 2.5 -1t2.5 -2h1q1 0 2 0.5t2 0.5t3 1t3 1q4 2 12 8q9 8 23 28q12 19 22 47q14 46 18 70q1 6 2.5 17t2.5 17q1 3 2.5 8.5t1.5 7.5z" />
<glyph unicode="A" horiz-adv-x="909" d="M806 47q3 -11 -2.5 -20.5t-15.5 -12.5t-20 2.5t-13 16.5q-4 16 -10 48q-1 7 -5 23t-5 23q-3 17 -9 50.5t-9 50.5q-17 97 -26 175q-3 27 -10 82t-10 83q-3 16 -7.5 48t-6.5 48q-1 4 -2.5 14t-2.5 14h-2h-29h-32q-38 0 -58 -1q-38 -2 -58 -2q-9 0 -26 0.5t-25 0.5 q-1 -5 -3.5 -15.5t-3.5 -16.5q-12 -58 -34 -174q-20 -114 -29 -171q-17 -104 -25 -163q-8 -62 -11 -94q0 -6 -4 -14q0 -1 -2 -2.5t-2 -2.5q-8 -8 -19 -8q-6 0 -9 1l-33 -6q-28 -4 -42 -4q-11 0 -35 4q-4 0 -11.5 1t-11.5 2q-8 2 -14 4t-15 9q-5 4 -9 9q-4 10 -5 15 q-1 3 -1 10q0 2 -0.5 5t-0.5 4q0 5 2 17q4 30 7 45q2 14 7 41.5t8 41.5q14 78 15 83q3 14 8.5 42.5t8.5 42.5l36 168q3 13 8 40t8 41q12 56 18 83q29 126 40 169q39 156 42 167q4 13 12 40t11 41q7 27 19 81q17 71 40 173q-2 3 -2 11q0 11 8 19t19 8h58h4h28q27 0 39 -5 q6 -1 12 -7q0 -1 2 -2.5t2 -2.5l3 -6q9 -4 13 -17q12 -50 34 -150q5 -23 16 -69t16 -69q2 -8 15 -85q1 -4 2 -11.5t2 -11.5q0 -1 0.5 -4t0.5 -4t0.5 -3t0.5 -3v-1q0 -2 0.5 -5t0.5 -4t0.5 -2t0.5 -2q1 -2 1 -6q2 -12 3.5 -26t3 -30.5t2.5 -25.5q15 -109 26 -170 q9 -50 14 -89q2 -15 6 -44.5t6 -44.5l21 -168q12 -93 25 -163q2 -9 4.5 -25.5t5 -30t5.5 -25.5q6 -26 8 -39t8 -39zM152 81l-1 1zM334 524l33 168q15 71 38 175q2 9 17 72.5t22 97.5q14 68 34 170q6 30 17.5 88.5t17.5 87.5h-10h-27h-32q-14 -61 -35 -148q-7 -29 -16 -71 q-2 -10 -5 -21.5t-7 -25.5t-6 -22q-15 -54 -43 -164q-4 -15 -11 -44t-11 -43l-18 -81q-4 -18 -17.5 -76t-19.5 -89q-13 -68 -35 -169q-3 -14 -8.5 -42.5t-8.5 -42.5q-12 -56 -17 -84l-15 -81q-5 -26 -13 -78q-2 -14 -2 -21q2 -1 7 -1.5t7 -0.5q41 -5 55 -3q4 1 11.5 2 t10.5 2l18 3q10 82 16 123q8 56 23 145q3 19 9 54.5t11 64.5t10 55zM622 745h21q-1 3 -1 9.5t-1 9.5q-2 15 -6.5 44t-6.5 44t-5.5 44.5t-5.5 43.5q-1 3 -2 11t-1 11v1q-1 2 -1 6v6q0 1 -0.5 1t-0.5 1q-1 2 -1 6v1v4q-1 7 -3.5 22t-3.5 23q-6 34 -17 86q-7 35 -20 85 q-3 14 -9.5 41t-9.5 40q-3 -19 -10.5 -56.5t-11.5 -56.5q-22 -116 -35 -173q-7 -32 -20.5 -91t-19.5 -84q-3 -13 -9 -39.5t-9 -40.5q7 0 21 -0.5t21 -0.5q37 0 56 1q40 2 61 2q5 0 15 -0.5t15 -0.5z" />
<glyph unicode="B" horiz-adv-x="933" d="M553 786q-5 0 -14 -2t-13 -2t-11 -1t-10 -1q38 -12 57 -19q14 -5 42 -19q18 -8 37 -21q12 -8 38 -29q15 -12 30 -29q32 -36 55 -71q20 -32 40 -80q15 -38 17 -45q11 -42 10 -80q0 -14 -2 -44q0 -4 -6 -50q-4 -26 -8 -41q-7 -24 -13 -40q-15 -40 -23 -54q-16 -28 -35 -49 q-12 -12 -19 -18q-20 -17 -23 -19q-15 -10 -47 -26q-11 -5 -23 -10q-12 -6 -18 -8q-21 -8 -42 -12q-30 -6 -45 -8q-44 -7 -92 -12q-44 -5 -86 -6q-27 -1 -83 1q-46 3 -95 9q-6 0 -14 4q-1 0 -2 1l-2 2h-2q-11 0 -19 8q-6 6 -8 19q-2 25 -4 75l-3 75q0 12 -1 25t-2.5 28.5 t-2.5 24.5q-1 12 -1.5 25t-1 28.5t-0.5 24.5q-2 56 -2 170q0 113 1 170q1 116 1 348q0 111 -1 167q-1 64 -5 197q-1 11 7.5 19t19.5 8t17 -6v1l1 1q6 6 19 8h4q6 1 18.5 1h18.5q7 0 20.5 1t20.5 2t36 4t45 3h15q23 0 69 -2q28 -2 42 -4q5 -1 15 -2t18 -2t15 -2q19 -3 39 -9 q18 -6 40 -14q53 -21 81 -40q35 -23 73 -56q6 -5 18 -17q4 -4 12 -14q20 -24 28 -37q22 -34 30 -65q4 -15 6 -32q1 -8 1 -24q-2 -23 -6 -44q-13 -58 -22 -84q-12 -30 -19 -44q-15 -31 -28 -48q-14 -20 -23 -28q-7 -7 -23 -19q-12 -9 -33 -21q-6 -3 -45 -19q-20 -7 -39 -12 q-37 -9 -40 -9zM158 1356h-1q1 -24 2 -71t2 -71q1 -52 1 -155v-177q0 -112 -1 -168q-1 -58 -1 -175q0 -115 1 -172q0 -12 0.5 -26t1.5 -31t1 -26q1 -28 5 -84q2 -27 4 -85q0 -17 2 -51q38 -2 59 -2q0 10 -1 31t-2 31q-4 53 -5 82q-4 75 -4 167v171q0 27 2 83l3 81 q1 22 1.5 79.5t2.5 88.5q1 13 2 40t2 41q2 56 2 83q0 53 -1 80t-1 80q0 30 -2 88q-1 8 -1 23t-1 22q-1 4 -1 13t-1 13q-12 -1 -35.5 -2t-35.5 -1zM587 691q-16 8 -36 17q-56 21 -108 32q-45 11 -104 19q-5 1 -16.5 2t-17.5 1q-16 2 -23 2q0 -42 -1 -63q0 -13 -1.5 -39.5 t-2.5 -39.5q-1 -28 -1 -84q-1 -56 -1 -168q0 -76 5 -171q1 -27 5 -81q1 -6 1 -20t1 -20q0 -23 1 -34q12 -1 37 -1q71 1 147 11q36 4 73 12q28 6 41 10q1 0 8 2t11 4q2 1 6.5 3t6.5 3q42 20 61 34q19 16 36 36q18 26 24 40q1 2 3.5 7.5t3.5 8.5l9 24q5 17 8 29q1 5 3 14t3 14 q2 10 4 26q0 -1 -0.5 -4t-0.5 -4q8 70 3 112q-4 22 -7 32q-1 2 -3 8t-3 8q-1 4 -8 20l-6 15t-7 15q-2 5 -7 14t-8 14q-15 25 -33 48q-22 26 -34 38q-12 13 -33 29q-29 20 -39 25zM474 831q18 1 52 5q16 2 25 4l14 3.5l14 3.5q5 1 14.5 4t14.5 4q10 3 22 8q13 5 16 7 q19 11 34 22q17 14 27 26q12 15 26 42l9 18q1 2 3 7t3 7q12 34 16 51q11 54 12 58q1 17 0 34q-3 22 -10 40q-10 20 -16 29q-4 7 -14 21q-20 24 -32 34q-19 17 -38 32q-36 26 -42 29q-21 13 -47 24q-33 14 -53 18q-21 5 -56 11q-37 4 -76 6q-50 2 -76 1q-7 0 -19.5 -1.5 t-14.5 -1.5v-4q4 -55 5 -86q2 -60 2 -89q0 -55 1 -82q1 -26 1 -78q0 -28 -2 -84q-1 -14 -3 -41.5t-2 -41.5q-1 -14 -1 -41q86 -2 129 -1q20 0 62 2z" />
<glyph unicode="C" horiz-adv-x="978" d="M868 538q9 -9 8 -19q-5 -34 -14 -88q-2 -14 -7 -41t-7 -40q-1 -8 -4 -23.5t-5 -22.5q-1 -5 -2.5 -11t-3.5 -13.5t-3 -11.5l-12 -42q-1 -4 -4 -12t-4 -12l-9 -21q-2 -3 -5.5 -9.5t-4.5 -9.5q-16 -28 -18 -32q-22 -33 -39 -51q-21 -23 -47 -41t-51 -29q-24 -10 -56 -19 q-39 -10 -62 -12q-30 -3 -62 2q-62 11 -114 50q-34 28 -45 41q-21 26 -34 47q-31 50 -59 130q-33 91 -52 168q-8 28 -11 43q-1 7 -4 21.5t-4 21.5q-4 25 -13 88q-4 30 -5 45q-1 8 -2 24t-2 24q-1 14 -2.5 43t-2.5 44q-4 58 -4 87t2 85q0 7 1 21.5t1 21.5l3 48q2 28 4 44 q2 19 8 49q7 48 29 96q14 29 32 53q12 16 40 44q45 43 99 75q62 35 109 43q37 7 64 7q11 0 33 -2l27 -3q6 -1 15.5 -2.5t15.5 -2.5q34 -9 59 -19q22 -9 48 -28q23 -17 41 -38q2 -3 8 -9t8 -9q13 -16 14 -17q2 -3 6 -8.5t6 -8.5q2 -2 7.5 -9t7.5 -11q3 -4 7.5 -11t6.5 -11 q30 -46 45 -101q11 -37 13 -63q2 -19 0 -57q0 -11 -8 -19t-19 -8t-19.5 8t-7.5 19q2 39 0 59q-8 45 -24 85q-12 28 -25 47q-2 3 -6.5 9.5t-6.5 10.5q-2 3 -20 29q-34 45 -63 69q-14 10 -44 24q-36 14 -62 18q-3 1 -9.5 2t-9.5 1q-4 0 -12.5 1t-12.5 1h-2q-17 -14 -32 -29 q-19 -19 -27 -29q-6 -7 -23 -28q-2 -3 -6.5 -9.5t-6.5 -9.5q-5 -8 -8 -16q-10 -27 -16 -61q-3 -12 -7 -36.5t-5 -27.5q-2 -10 -5.5 -31t-5.5 -32q-4 -20 -10 -60q-10 -74 -13 -160q-2 -54 -2 -163q0 -28 2 -86q0 -14 1 -41.5t1 -41.5q1 -17 3.5 -47.5t3.5 -38.5q2 -30 8 -82 q4 -26 11 -67l12 -69q2 -8 4.5 -22t5 -25.5t5.5 -21.5q2 -7 11 -32q2 -5 6 -16t6 -16q3 -7 7 -14q6 -10 10 -15l5 -5q9 -2 15 -12q4 -8 4 -13q1 0 3 -0.5t3 -0.5q26 -3 53 0q42 7 88 25q32 15 54 32q21 17 43 44q18 24 28 42l5.5 11t5.5 10q5 9 13 27q8 22 11 33q2 6 5.5 19 t4.5 20q9 37 15 75q9 57 13 79l12 66v4q0 5 4 13q0 1 1.5 3t2.5 3q7 7 19 7t19 -7zM328 118q23 -26 41 -42q1 0 2.5 -1t2.5 -2q-2 4 -5.5 12.5t-4.5 12.5q-2 4 -4.5 11t-3.5 10q-2 6 -6 20q-11 42 -18 82l-15 87q-1 7 -3.5 21t-3.5 21q-1 9 -3 26.5t-3 25.5q-3 31 -7 86 q-2 27 -4 81q-2 114 -2 171q0 125 3 166q7 108 20 173q25 137 31 165q5 22 12 41q7 20 22 40q15 22 31 40q2 3 6 7t6 7q-19 -5 -35 -12q-46 -20 -91 -54q-7 -5 -36 -32q-24 -22 -34 -35q-14 -18 -31 -56q-11 -32 -14 -41q-6 -20 -8 -35q-1 -6 -3 -17.5t-3 -17.5 q-1 -7 -2.5 -20t-1.5 -19q-1 -6 -1 -18t-1 -18q-1 -12 -2 -35.5t-1 -34.5q-2 -60 -2 -90q0 -29 4 -89q1 -15 3 -43.5t3 -42.5q2 -28 8 -84l6 -36q2 -8 4.5 -24t3.5 -24q4 -23 7 -38q2 -9 6 -25.5t7.5 -30t7.5 -25.5q4 -15 14 -43q2 -8 7 -23.5t8 -23.5q3 -7 30 -79 q24 -57 53 -95z" />
<glyph unicode="D" horiz-adv-x="915" d="M812 690q1 -36 -4 -85q-1 -8 -3 -23.5t-3 -23.5q-2 -14 -8 -42q-8 -46 -19 -80q-3 -10 -14 -44q-5 -15 -19 -43q-6 -12 -20 -36q-2 -4 -6 -11.5t-7.5 -13.5t-7.5 -11q-8 -14 -13 -20q-2 -3 -7.5 -9.5t-8.5 -10.5q-9 -13 -30 -36q-28 -31 -61 -58q-39 -32 -77 -59 q-17 -11 -38 -21t-44 -19q-48 -19 -82 -28q-15 -4 -45 -8q-15 -2 -41 -4q-34 -2 -102 -4q-21 0 -26 21q-6 6 -8 19q-1 12 -1.5 25.5t-1 30t-0.5 25.5q-1 29 -5 82q-4 57 -5 83q-1 13 -1 40q0 6 -0.5 19t-0.5 20q-1 0 -1 83l1 84q0 28 0.5 83t0.5 83v85q0 28 4 84 q4 60 10 170q6 113 7 173q1 28 1 83.5t1 83.5q-6 6 -7 11q-3 11 3 20q4 8 15 12q8 6 16 6q6 0 11 -3h1q3 0 8.5 0.5t8.5 0.5h6q13 0 37 -4q35 -5 43 -7q40 -11 81 -32q22 -11 69 -43q6 -4 17.5 -12t16.5 -12q15 -10 35 -25q18 -13 35 -29q16 -14 30 -30q17 -19 54 -64 q27 -33 57 -74q20 -28 44 -70q19 -33 37 -75q2 -5 6 -14t7 -16.5t5 -14.5q2 -6 6 -18.5t6 -18.5q5 -15 13 -45l9 -39q5 -16 10 -43q3 -16 5 -48zM230 56q4 0 14 1t14 1q-4 86 -8 127q-1 13 -3 38t-3 38t-3 38.5t-3 38.5q0 2 -9 173q-1 26 -1 79v91q0 27 5 167l6 174 q1 29 4 86.5t4 86.5q5 137 5 166l-30 6q-4 0 -11.5 1t-13.5 1.5t-11 0.5h-6q0 -26 -1 -77.5t-1 -77.5q-1 -85 -6 -173q-6 -114 -10 -171q-4 -54 -4 -80q0 -15 -0.5 -44t-0.5 -44q0 -27 -0.5 -83t-0.5 -83q0 -109 1 -163q1 -14 1 -42.5v-42.5q0 -1 3 -40q1 -7 2 -20.5 t1 -20.5q2 -27 4 -85l3 -69q19 0 59 2zM758 650v38q0 11 -2 31q-2 14 -4 23q-1 4 -3.5 13t-3.5 13l-12 51q-2 7 -4.5 15t-5.5 18t-5 15q-5 16 -17 46q-30 68 -50 100q-24 39 -33 52q-6 7 -17 21.5t-16 22.5q-37 47 -60 72q-10 12 -32 34q-10 10 -32 28q-7 5 -20.5 14.5 t-20.5 14.5q-37 26 -41 29q-28 19 -73 41q-1 -46 -5 -138q-1 -27 -3.5 -79t-3.5 -79q0 -13 -1 -39.5t-1 -39.5q0 -15 -2 -46t-2 -46q-1 -18 -2.5 -52t-2.5 -61.5t-1 -51.5v-175q0 -12 0.5 -25.5t1.5 -30t1 -25.5q2 -56 4 -86q1 -15 3.5 -44.5t3.5 -44.5q1 -14 3.5 -40.5 t3.5 -39.5q4 -46 8 -134q2 1 6.5 2t7.5 1q20 5 35 10q23 7 59 22q4 2 12 5.5t12 5.5q2 1 14 8q2 2 6.5 3.5t6.5 3.5q15 9 43 31q5 4 15.5 12.5t15.5 12.5q16 13 31 28q24 23 54 58q7 9 19 27q14 22 21 34q22 36 34 62l6 18l9 27q11 36 14 47q11 45 19 96q6 46 7 71z" />
<glyph unicode="E" horiz-adv-x="886" d="M797 1425q10 0 17.5 -8t7.5 -19q0 -12 -7 -19q-8 -8 -19 -8q-13 -1 -39 -2t-38 -1h-71h-144q-98 0 -177 -4l-60 -3q2 -74 2 -111v-165v-87q0 -14 -1.5 -42t-2.5 -42q-2 -56 -2 -84q0 -13 -0.5 -39t-0.5 -39l1 -1q1 -1 2 -1q31 2 92.5 6.5t91.5 6.5h1q10 0 18 -8t8 -19 t-8 -19q-6 -6 -19 -8q-28 -2 -59 -4t-69 -4.5t-59 -3.5v-34q0 -54 1 -81q3 -60 7 -173q0 -14 1.5 -42t2.5 -42q2 -52 5 -78q1 -8 3.5 -24t3.5 -24q2 -16 4 -52q0 -8 2 -23.5t2 -22.5q1 -10 1 -31q10 0 29 1t28 1q10 0 31.5 2t32.5 2q27 2 81.5 4t82.5 3q60 3 172 13h1 q10 0 18 -8t8 -19t-8 -19q-6 -6 -19 -8q-18 -2 -54.5 -5t-55.5 -4l-105 -6q-29 -1 -85.5 -3.5t-84.5 -4.5q-58 -2 -85 -4q-30 -2 -82 -8q-4 -1 -13 -2t-14 -2q-7 -1 -14 0l-6 3q-10 7 -13 16t3 20l-4 4q-8 8 -8 19l-6 132q-1 12 -2 34.5t-1 33.5t-1 32t-2 32q-4 61 -5 89 q0 14 -1 41.5t-2 41.5q-1 30 -1 177q0 113 1 170q2 60 2 89v83q0 30 -2 90q-1 13 -3 40.5t-2 41.5q0 15 -1 43t-2 43q-1 35 -1 104q0 11 8 19t19 8q3 0 9 -2q6 2 9 2q14 1 43 2t44 2q12 1 35.5 2t34.5 2q65 4 148 4q28 0 85 0.5t85 0.5h86q44 0 88 3h1zM184 59q19 3 57 7 q0 4 -0.5 12t-0.5 12q0 7 -1 20.5t-1 19.5q-2 28 -8 82q-8 60 -8 72t-1 36.5t-2 36.5l-3 84q0 13 -2 41.5t-2 41.5q0 14 -1 42.5t-2 43.5q-1 28 -1 83v16q-3 6 -3 13q0 4 4 12v42q0 54 1 81q0 24 3 81t3 88q0 29 -0.5 86.5t-0.5 86.5q0 106 -1 159q-9 0 -29 -1t-29 -1v-53 q0 -13 1 -38.5t2 -38.5q1 -22 3.5 -67t3.5 -67q1 -27 1 -82v-88q-3 -174 -3 -175v-169q0 -60 1 -89q0 -9 0.5 -26.5t1 -32t1.5 -26.5q9 -169 9 -172q4 -109 7 -167v-6z" />
<glyph unicode="F" horiz-adv-x="905" d="M775 1430q11 0 19 -8t8 -19t-8 -19t-19 -8h-188h-96h-208q0 -23 0.5 -69t0.5 -69q0 -17 1 -71t0 -84q-1 -29 -2 -86t-2 -85q-2 -106 -2 -160q29 0 87 2q10 0 28 1t33 1.5t28 0.5h3q11 0 19 -8t8 -19t-8 -19t-19 -8q-1 0 -94 -3q-29 -1 -86 -1v-45q0 -1 3 -88q1 -14 2 -42 t2 -42q0 -15 1.5 -44.5t2.5 -43.5t1 -41.5t1 -41.5q1 -15 1 -44t1 -43q1 -28 1 -84v-40q0 -27 2 -40q1 -10 -8 -19q-4 -3 -8 -5q-5 -12 -17 -15q-18 -4 -54 -8q-10 -1 -29.5 -3t-29.5 -3t-19 8q-7 7 -7 19q0 7 5 15q0 1 -1 3q-2 23 -3.5 48.5t-3 57t-2.5 48.5q-1 25 -5 76 t-5 77q-4 83 -6 170t0 175q1 85 6 173q2 29 4 87q1 29 1 86q0 114 -1 170q-2 118 -2 175q-1 3 -1 8q0 6 1 9q2 9 9.5 15.5t17.5 6.5q9 0 14 -4h280h131h212zM231 1216q0 26 -0.5 80t-0.5 80h-65q0 -24 1 -70t1 -69q1 -52 1 -157q0 -57 -1 -86q-3 -88 -3 -89 q-1 -14 -2.5 -41.5t-1.5 -41.5q0 -10 -1 -27.5t-1.5 -32t-0.5 -27.5q-1 -58 -1 -173q0 -76 5 -173q1 -28 5 -84q1 -15 3 -43l3 -42q2 -28 4 -84q1 -24 5 -72q8 1 23.5 2.5t23.5 2.5q2 0 6.5 0.5t6.5 1.5q-1 0 -1 13l1 13q0 6 -0.5 17.5t-0.5 17.5q0 50 -1 75q-1 26 -2 77.5 t-1 77.5q-1 57 -7 171q-2 28 -4 88v87q0 114 1 171q0 28 2 83t2 83q1 57 1 171z" />
<glyph unicode="G" horiz-adv-x="907" d="M800 626q4 -56 4 -84q0 -42 -3 -86q-3 -48 -10 -87q-1 -8 -5 -23.5t-4 -17.5q-1 -4 -2.5 -12t-3 -14.5t-3.5 -12.5q-8 -24 -16 -44q-3 -9 -11 -25q-2 -3 -5 -9t-5 -9q-12 -21 -27 -39q-10 -14 -28 -30q-5 -4 -14.5 -13t-14.5 -14q-32 -30 -50 -42q-15 -10 -47 -28 q-12 -7 -23 -11q-4 -2 -12 -5t-12 -5q-14 -5 -44 -11q-39 -6 -40 -6q-34 0 -73 12q-14 4 -31 11q-12 4 -26 11q-9 5 -25 17q-42 33 -71 80q-18 29 -22 38q-26 57 -31 79q-10 47 -18 98q-8 58 -9 88q-1 15 -2.5 44t-2.5 44l-3 87t-4 87t-2 88q0 14 -0.5 42t-0.5 41v90v87 q1 44 9 88q2 16 4 22l9 36q5 14 14 29q1 2 3.5 6t3.5 6q3 6 11 18q26 43 56 71q25 23 38 32q21 15 53 27q19 8 59 16q21 5 52 5h19q24 -2 40 -4q2 0 5 -0.5t4 -0.5q7 0 10 -1q4 0 6 -1h1q5 0 8 -1q7 -1 21 -5q28 -8 42 -13q26 -9 56 -32q10 -7 20 -17q18 -18 30 -34 q21 -29 24 -34q16 -26 23 -39q21 -37 39 -82q9 -26 22 -84q12 -52 13 -94q0 -11 -8 -19t-19 -8t-19 8t-8 19q0 10 -2 30q-1 5 -2.5 16t-2.5 17q-1 7 -4 20t-5 20q-6 26 -9 38q-2 7 -11 32q-13 28 -36 69q-21 37 -40 61q-7 11 -16 19q-8 8 -24 22q-13 10 -34 20 q-32 12 -64 18q-1 0 -2.5 0.5t-2.5 0.5h-5q-1 0 -3 0.5t-3 0.5t-2 0.5t-2 0.5h-5q-28 3 -56 3q-3 -3 -12.5 -13t-14.5 -16q-15 -22 -28 -51q-9 -22 -18 -57q-1 -4 -3 -14l-3 -15l-6 -36q-3 -24 -7 -79q-3 -30 -7 -83q-4 -88 -6 -177v-88q0 -15 5 -88q1 -13 3 -40.5t3 -41.5 q4 -55 7 -86q12 -114 19 -171q7 -48 18 -101q1 -4 2.5 -12t2.5 -12q1 -5 3.5 -13.5t3.5 -12.5q3 -11 8 -25q1 -4 4 -11t5 -11l-3 6q8 -18 10 -22q1 -2 4 -7t5 -7l8 -8q13 0 20 1q26 4 40 8q24 8 36 13q45 23 68 40l54 48q4 3 7.5 7t8 8.5l7.5 7.5l15 18q1 1 8.5 11.5 t10.5 16.5q6 10 8 15q1 3 3 7.5t3 6.5q6 14 13 34q3 10 10 40l3 12t3.5 14.5t2.5 12.5q1 5 2.5 16.5t2.5 16.5q9 83 8 136q0 36 -3 72q-1 18 -5 59q-3 1 -10 2.5t-10 2.5q-2 0 -6.5 1t-6.5 2q-4 1 -11.5 2t-11.5 2l-45 3q-2 0 -55 6q-10 2 -16 12q-6 9 -3 21q3 10 12 16 q8 4 14 4q1 0 3 -0.5t3 -0.5h-1q38 -4 57 -5q35 -2 61 -7q5 -1 14.5 -3t14.5 -3q24 -6 35 -15q7 -7 10 -14q1 -2 4 -10q2 -8 2 -11q2 -18 4 -52zM741 678l1 -2zM474 1341h2h-2zM331 74q4 -2 12 -4q-1 3 -4 8.5t-5 10t-3 8.5q-2 6 -7 25q-5 16 -8 28l-6 27q-7 35 -11 58 q-3 20 -22 177q-9 79 -9 82q-1 15 -3 44.5t-3 44.5t-3 44.5t-3 44.5q-2 29 -2 88q0 58 4 174q2 54 4 81q2 15 4 44t4 43q5 52 13 93q4 24 7 36q6 23 20 57q9 21 22 42q-3 -1 -8 -2.5t-7 -2.5q-6 -2 -23 -12q-8 -4 -22 -14q-15 -11 -32 -30q-8 -8 -11 -12q-1 -2 -3.5 -5 t-3.5 -4q-3 -5 -11 -16t-11 -17q-17 -28 -22 -39q-6 -17 -15 -68q-2 -13 -4 -37q-3 -43 -3 -88v-88q0 -14 0.5 -42.5t0.5 -42.5q0 -27 2 -85q1 -14 2 -41.5t1 -41.5q0 -16 2 -47t2 -46q0 -14 1.5 -43.5t2.5 -43.5q0 -6 1 -19t1 -20q2 -30 4 -45q2 -10 5.5 -30t4.5 -30 q10 -64 22 -94q23 -53 51 -90q20 -24 44 -44q12 -8 28 -16z" />
<glyph unicode="H" horiz-adv-x="948" d="M839 246q4 -111 7 -169q1 -11 -7.5 -19t-19.5 -8t-19 8q-7 7 -7 19q-3 48 -7 144q-2 50 -4 75q-2 26 -4 70q-2 54 -2 82v80v169q-1 0 -2.5 -0.5t-2.5 -0.5q-37 0 -109 2q-88 1 -120 1t-120 -2t-120 -3v-37q0 -29 2 -85q0 -14 1 -43t2 -43q1 -29 1 -86q2 -95 7 -171 q1 -14 3 -44t3 -44q1 -6 2 -20.5t1 -20.5q0 -4 0.5 -11t0.5 -10q0 -2 0.5 -6.5t0.5 -6.5q5 -10 2 -19t-13 -16q-6 -3 -13 -3h-1q-1 -1 -2 -1q-2 0 -8 2h-23h-5h-34q-24 0 -70 2q-2 -1 -8 -1q-11 0 -19 8q-4 4 -5 7q-3 6 -3 13v3q-8 93 -11 145q-1 16 -1 146q0 30 -0.5 89 t-0.5 88q0 58 -2 172q0 14 -0.5 41.5t-0.5 41.5v89q0 115 1 172q2 116 1 173q0 31 -2 93q0 2 -6 94q0 9 6 17l4 4q8 8 17 8h2q11 -2 32.5 -4t32.5 -4q3 0 7.5 -0.5t8.5 -1t8 -1.5q3 -1 9 -2t9 -2q6 -1 18 -1q11 0 19 -8q5 -1 10 -6q8 -8 8 -19q6 -98 8 -151q0 -2 3 -139 q1 -31 1 -94q0 -14 -1 -41t-1 -40q-1 -57 -1 -172q20 0 60.5 1t60.5 2q98 2 148 2h29l171 -3h5q0 7 -0.5 20.5t-0.5 20.5q-1 15 -2 44t-2 43q-2 60 -2 89q0 55 1 83q1 34 3.5 97t3.5 83q3 88 3 178q0 11 8 19t19 8t19 -8t8 -19q0 -51 -2 -151q-1 -25 -3.5 -76t-3.5 -76 q-2 -58 -2 -88v-85q0 -44 3 -89q1 -13 1.5 -27.5t1 -32.5t0.5 -28q1 -57 1 -172v-86v-25v-29v-25q2 -56 4 -86q4 -59 5 -86zM269 83h2q0 1 -0.5 4t-0.5 5q0 6 -1 16t-1 16q0 12 -2 34.5t-2 33.5t-2 34t-3 34q-2 46 -3 70q-1 28 -1.5 85t-1.5 86q-1 15 -2 44.5t-1 44.5 q-1 30 -1 89v169q0 29 1 87.5t1 88.5q0 14 -0.5 41.5t-0.5 41.5q0 31 -2 93q-1 75 -8 166q-4 0 -11 1t-10 1q-4 0 -12.5 2t-13.5 3q-3 1 -9.5 1t-9.5 1t-8.5 1t-7.5 1q3 -45 5 -135q2 -102 1 -153q-3 -313 -2 -352q2 -116 4 -344v-84v-43q-1 -43 0 -43q1 -31 5 -83 q1 -17 5 -56q9 0 27.5 -0.5t27.5 -0.5h38z" />
<glyph unicode="I" horiz-adv-x="409" d="M306 1379q-1 -58 -1 -174v-164q0 -2 -3 -83q-1 -15 -2.5 -44t-1.5 -43q-1 -19 -2 -78.5t-3 -92.5q-4 -59 -5 -86q-1 -28 -1 -85q0 -33 2 -93t2 -79q1 -28 0 -84.5t0 -84.5q0 -28 2 -82v-39q0 -7 0.5 -20t0.5 -19q0 -11 -8 -19t-19 -8h-4q-8 -9 -19 -9h-51q-9 0 -28 -0.5 t-28 -0.5q-11 0 -19 8t-8 19v3q0 1 -0.5 2t-0.5 2q-1 4 -1 12.5v12.5q-3 39 -3 79v82v160v332v340v170q0 89 -3 177q-1 11 7.5 19t19.5 8t18 -6q23 0 67 2l48 3h11q19 -2 25 -17q8 -8 8 -20zM230 46h10v19q0 7 -0.5 19t-0.5 19q0 14 -0.5 40.5t-0.5 40.5q-1 54 -1 161 q0 28 -2 86q-1 28 -1 85v84q1 30 5 85q2 33 3 92t2 78q1 29 3.5 86.5t3.5 86.5v172q0 108 1 162q-6 0 -13 -0.5t-15 -1.5t-13 -1q-9 -1 -27 -1t-27 -1l1 -1q1 -57 1 -170v-172v-341v-328v-162q0 -92 3 -138q6 0 16 0.5t16 0.5h36z" />
<glyph unicode="J" horiz-adv-x="890" d="M786 1379q2 -7 1 -11q0 -1 -0.5 -4t-0.5 -4q0 -2 -0.5 -6.5t-0.5 -6.5q-1 -4 -2 -12.5t-1 -12.5q-1 -7 -1.5 -15.5t-1 -18.5t-0.5 -15q-1 -18 -1 -53q0 -19 2 -55q1 -29 2.5 -87t2.5 -87q1 -28 -1 -83q0 -15 -1 -44.5t-2 -43.5q-4 -114 -5 -171q0 -15 -1 -44.5t-1 -43.5 q-1 -31 -5 -86q-3 -49 -10 -88q-10 -58 -18 -86q-19 -65 -25 -80q-15 -37 -19 -46q-14 -29 -18 -37q-10 -18 -16 -26q-18 -23 -29 -36q-14 -15 -21 -22q-23 -22 -47 -37q-17 -11 -62 -28q-3 -1 -41 -12q-13 -4 -41 -8q-34 -4 -46 -5q-20 -2 -41 0q-40 4 -59 11q-15 6 -31 15 q-2 1 -11 7q-3 2 -9.5 6t-11.5 7.5t-9 7.5q-28 24 -55 73q-9 17 -19 40q-10 26 -14 40q-8 27 -20 83q-12 58 -15 88q-4 42 -6 86q-2 56 -4 85q-10 155 -10 186q0 11 8 19t19 8t19 -8t8 -19v-12q0 -27 1 -41l3 -51l6 -84q2 -30 4 -90q1 -39 6 -80q5 -34 19 -100q5 -27 12 -49 q4 -16 16 -46q9 -22 18 -36q16 -25 21 -32q14 -15 21 -22q28 -20 46 -28q18 -6 36 -9q30 -3 36 -2q3 0 9 0.5t9 0.5q8 0 26 2q16 2 26 4q13 3 31 8q5 1 29 9q14 5 26 10q21 10 23 12q6 4 16 12q13 11 26 23v1q6 20 7 30q6 55 6 111q0 39 -2 119l-3 87q-1 14 -1 42.5v42.5 q0 29 -2 87.5t-2 87.5q-1 57 -1 171v172l-3 168q0 15 -1 43t-1 42v84q0 10 7 17.5t17 9.5q8 6 15 6q1 0 1 -0.5t1 -0.5l30 -3t31 -3q9 -1 28 -2.5t29 -2.5q14 -2 19 -7v-1h4q8 0 14 -3q10 -5 12 -17zM731 949q1 29 -1 87q0 13 -1 41.5t-1 41.5q0 14 -2 44t-2 43q-1 39 2 86 q0 9 1 19.5t2.5 23t2.5 19.5q-9 1 -27 2.5t-27 2.5q-8 1 -23.5 2t-22.5 2q0 -79 1 -119l3 -141q1 -56 1 -169v-174q0 -29 2 -85q1 -14 1 -42v-42q0 -15 1 -45t1 -45t1 -44t1 -43l3 -84v-82v-54q7 14 10 22q20 54 32 97q11 41 20 97q3 24 7 65q2 25 4 75q1 20 1.5 43.5t1 52 t0.5 43.5q1 29 3 86.5t3 86.5q1 15 1 44t1 43z" />
<glyph unicode="K" horiz-adv-x="935" d="M492 992l-105 -132l1 1q-16 -20 -47.5 -60t-46.5 -60q60 -82 90 -122q46 -60 86 -116q8 -12 25 -35t25 -34q32 -44 49 -66q18 -23 52.5 -69t51.5 -69q27 -36 63 -78q11 -13 33 -38t32 -38q8 -10 8 -19q0 -11 -8 -19t-19 -8q-13 0 -19 8q-7 9 -23 26.5t-23 26.5 q-7 8 -21 24.5t-21 25.5q-40 50 -59 75q-5 6 -52 70q-11 14 -48 63.5t-57 76.5q-9 12 -26.5 36.5t-25.5 36.5q-8 11 -24.5 32.5t-24.5 32.5q-27 35 -79 107q0 -15 0.5 -47t0.5 -47q0 -29 2 -85q0 -14 1 -43t2 -43q8 -148 10 -175t6 -82.5t6 -83.5q0 -8 -2 -11 q2 -10 -3.5 -19t-15.5 -11l-63 -12q-36 -8 -72 -12q-10 -1 -19 8q-8 8 -8 19q0 5 1 7q-2 10 -4 34q-1 6 -1 18.5t-1 18.5l-3 42q-1 14 -1 41q-1 13 -1 39.5t-1 39.5q-1 26 -1 78v349q0 115 -4 173q-5 70 -5 86v82q1 30 5 85q2 26 4 82q1 30 2 90t2 90q0 19 18 26q1 1 5 1 q57 14 84 18q2 1 8 1q5 0 7 -1q1 -1 3 -1t3 -1q5 -3 8 -8q3 1 9 1q12 0 19 -7q9 -9 8 -19q-7 -86 -7 -147q0 -95 1 -143q1 0 0 -44v-45q0 -14 -1 -41.5t-1 -41.5q-1 -40 -1 -122q1 1 3 4l54 69q0 -1 -2 -3t-2 -3q17 23 52 67t53 67q83 104 105 130q28 34 59 68 q9 11 27.5 31.5t27.5 30.5q94 107 132 151q6 8 19 8q11 0 19 -8t8 -19q0 -9 -8 -19q-30 -34 -223 -254q-44 -51 -53 -63t-28.5 -36.5t-29.5 -36.5zM216 65q6 1 18.5 3.5t18.5 3.5q-18 253 -18 259q-3 57 -7 171q-2 58 -2 87q0 15 -0.5 46t-0.5 46v32q-1 1 -1 3t-1 3 q-4 11 2 20q0 19 0.5 56t0.5 56v88q2 60 2 89v46q1 47 0 47q-1 29 -1 88q0 55 1 82q1 28 5 84q-22 -3 -64 -13q-1 -21 -1.5 -45.5t-1 -54t-0.5 -45.5q0 -37 -3 -73q-4 -52 -5 -78q-2 -56 -2 -83q0 -41 3 -81q4 -57 5 -88q2 -60 2 -88q1 0 0 -172v-173q0 -59 1 -88 q2 -56 2 -84q0 -7 0.5 -22t0.5 -22q0 -14 2 -44q2 -42 4 -63q25 4 40 7z" />
<glyph unicode="L" horiz-adv-x="917" d="M789 54q26 -2 26 -27q0 -11 -7.5 -19.5t-18.5 -7.5q-48 2 -145 2h-142q-28 0 -84.5 -0.5t-84.5 -0.5q-14 0 -42 -0.5t-42 -0.5q-29 0 -43 -1q-7 -1 -21.5 -2t-21.5 -1q-8 -1 -17 6q-15 7 -15 24q-1 24 -2.5 51.5t-3.5 60.5t-3 52q-4 51 -5 79q-1 13 -2 39t-2 39 q-6 112 -6 168t-2 166q-1 57 -1 344q0 119 -2 357q0 11 8 19t19 8q8 0 15 -5q44 2 65 2q26 0 38 -1q9 0 18 -7q11 0 18.5 -8t7.5 -19q2 -102 2 -308v-175q0 -57 1 -85q0 -9 0.5 -26.5t1 -31.5t1.5 -26q9 -166 9 -169l6 -165q0 -14 1 -41t2 -41q1 -27 1 -81q0 -14 1 -42.5 t2 -43.5q3 -67 4 -81q22 0 65.5 0.5t64.5 0.5h168h67q67 0 101 -2zM237 54h33q-3 24 -5 72t-2 71l-3 144q0 13 -1 39.5t-2 39.5q-1 15 -2 43.5t-1 42.5l-3 81q-1 29 -5 87q-7 131 -7 167v172q0 281 -1 338q-41 2 -82 0q1 -108 1 -325q0 -284 1 -341q3 -165 3 -166 q0 -56 6 -170l3 -78q1 -28 5 -79q6 -94 8 -141q12 2 19 2q12 1 35 1z" />
<glyph unicode="M" horiz-adv-x="1226" d="M1123 52q0 -2 0.5 -5t0.5 -4q0 -4 -2 -10q-1 -10 -12 -16q-9 -6 -21 -3q-9 3 -16 13q-3 6 -3 13v3q0 2 -3 38q-1 5 -2 14.5t-1 14.5q-2 22 -8 66q0 -1 0.5 -3.5t0.5 -3.5q-16 122 -19 184q-2 28 -2 84q0 15 -0.5 45.5t-0.5 45.5q0 29 -2 85q-2 52 -2 79q-1 29 -1 86v85 q-1 39 -10 174q-4 58 -14 174q-1 14 -3 42.5t-3 42.5q-4 -7 -11 -23t-11 -23q-6 -13 -19 -38.5t-19 -37.5q-7 -13 -35 -67.5t-43 -84.5q-13 -26 -37 -78q-3 -6 -8.5 -18.5t-8.5 -19.5q-6 -13 -20 -39q-4 -9 -18 -34t-21 -39q-3 -6 -8.5 -19.5t-8.5 -19.5t-9.5 -19.5 t-9.5 -20.5q-4 -8 -16 -12h-1q-8 -10 -21 -10q-11 0 -19 8q-6 5 -7 13q-7 13 -21.5 36t-18.5 30l-45 72q-8 12 -22 36t-22 36q-15 25 -44.5 74t-44.5 74q-16 28 -47.5 77.5t-42.5 67.5q-32 52 -47 78q-2 5 -7.5 13t-8.5 13v-23v-42q0 -6 0.5 -19t0.5 -20q2 -57 2 -172 q0 -38 1.5 -157t0.5 -184q-1 -28 -2 -85t-2 -85q-1 -57 -1 -169v-87q1 -29 5 -82q1 -14 3 -40.5t3 -39.5q1 -6 2 -18.5t1 -18.5t1 -17.5t2 -17.5q1 -10 -8 -19q-5 -5 -8 -6l-3 -3q-8 -8 -19 -8q-36 -2 -108 -4q-10 0 -19 9q-4 2 -6 4q-6 6 -8 19q0 2 -0.5 6.5t-0.5 6.5 q-1 6 -2 18.5t-2 19.5q-1 13 -1 38q0 14 -1 41t-1 40q-1 56 -1 167v172q0 13 -0.5 40t-0.5 41v88q0 28 -2 84v86v167q0 113 1 170q1 33 -1 93t-2 86q0 11 8 19t19 8q6 0 12 -3q4 0 12.5 1t12.5 1q11 1 34 1h28h5q13 0 19 -1h3q3 1 9 1q16 0 23 -13l57 -99q11 -19 90 -145 q12 -18 90 -149q29 -49 89 -147l45 -72q3 -5 9.5 -16t10.5 -17l1 -1q2 5 6.5 15.5t7.5 15.5q3 7 9 19.5t9 18.5q8 18 20 38q24 43 38 76q7 17 17 38q3 6 9.5 18.5t9.5 19.5q26 54 40 81l75 147q6 12 18.5 36.5t18.5 37.5q12 24 19 36q9 14 20 29q0 10 8 17.5t19 7.5t18 -7.5 t8 -19.5q6 -117 11 -179q2 -27 7 -83.5t7 -85.5l6 -93q2 -29 4 -85v-84t1 -84q0 -28 2 -82q1 -27 1 -81q0 -15 0.5 -44t0.5 -44q0 -43 3 -87q4 -73 16 -170q0 1 -0.5 3.5t-0.5 3.5q4 -30 10 -80l3 -36q0 -3 1 -9t1 -9q0 -1 0.5 -5t0.5 -6zM197 1373q-22 0 -33 -1 q-2 0 -4 -0.5t-4 -0.5q2 -135 2 -161q-1 0 0 -86v-85v-168q0 -29 1 -86t1 -85v-85q0 -14 0.5 -42t0.5 -42v-169q0 -140 1 -168q0 -13 1 -40t1 -41t2 -38q0 -5 2 -17l72 3q0 6 -2 18q0 6 -1 18.5t-2 18.5q-1 14 -3 40.5t-3 39.5q-4 53 -5 82q-1 0 0 44v43q0 112 1 169 q1 28 2 85t2 85q2 86 0 172q-2 114 -2 169v89q0 27 -2 83q-2 111 3 156h-2h-29z" />
<glyph unicode="N" horiz-adv-x="972" d="M870 46q1 -10 -8 -19q-4 -5 -9 -6q-7 -10 -16 -13q-12 -3 -21 3t-12 16l-24 63q-5 12 -16.5 38t-17.5 38q-8 17 -38 75q-13 25 -35 77q-7 15 -19 44t-14 35q-6 14 -17.5 41.5t-16.5 41.5q-5 13 -15.5 38.5t-15.5 37.5q-5 15 -17 43t-17 43l-30 75q-43 99 -53 122 q-9 21 -26.5 64t-26.5 64q-6 15 -24 57.5t-28 66.5q-7 19 -23 56t-23 55q-8 20 -16 38q-1 2 -6 13.5t-8 17.5v-17q0 -59 2 -175q2 -112 2 -167v-176v-174q0 -99 5 -169q4 -59 7 -85l9 -84q1 -12 3 -38q3 -40 3 -41q2 -12 4 -40q2 -14 2 -20v-18q0 -5 -4 -13v-1l-1 -1 q0 -7 -1 -10q-3 -10 -12 -16q-11 -6 -21 -3h-30q-4 0 -11.5 -0.5t-11.5 -0.5q-42 -2 -64 -2q-13 0 -22 12l-3 3q-6 6 -8 19q0 2 -1 4v3q0 5 -2 14t-3 13q-1 6 -1.5 12.5t-1 15t-0.5 12.5q0 6 -1 18t-1 18q-1 11 -1 35q-1 26 -1 79q0 12 -1 36t-1 36q-1 54 1 161l-3 174 q0 29 -2 87l-3 87q-1 0 -1 88l1 88q0 29 0.5 87t0.5 87q0 119 -1 178q0 9 6 17v1q3 9 13 16q6 3 13 3q1 0 3.5 -0.5t3.5 -0.5q3 -1 9.5 -1t10.5 -1q1 0 14.5 -1.5t20.5 -1.5q17 0 26 -1q8 -1 18 -6q3 1 9 1q17 0 23 -13q3 -6 9 -17.5t9 -17.5q4 -9 12.5 -25.5t15 -30 t11.5 -25.5q7 -15 20 -46t19 -46q44 -108 67 -162q12 -27 35.5 -83t34.5 -83q9 -20 25 -57t29 -67.5t24 -58.5q6 -15 17 -44t13 -35q6 -14 17 -42t17 -42l63 -153l3 -6q16 -38 35 -79q5 -11 16.5 -33t17.5 -33q-6 34 -7 51q-2 25 -4 71l-3 84q-1 14 -2 43.5t-1 44.5 q-5 152 -5 171q0 28 2 84q1 15 2 43t2 43q9 178 9 181q0 14 1 42.5t1 43.5t2 43.5t2 42.5q4 130 4 194q0 11 8 19t19 8t19 -8t8 -19q0 -36 -2 -108q0 -15 -1 -45.5t-1 -45.5q0 -14 -1.5 -41t-2.5 -41l-3 -90q-2 -62 -4 -91q-2 -31 -4 -89q0 -15 -1.5 -44t-2.5 -43 q-4 -99 -1 -169q1 -29 3.5 -86t3.5 -86q5 -139 8 -167q8 -51 18 -97q19 -84 21 -106zM224 76h25q2 0 6 0.5t6 0.5q0 6 -2 20q-1 5 -2 15.5t-1 15.5q0 6 -2 18t-2 17t-1 15.5t-1 15.5q-1 20 -3 42t-5 48.5t-4 41.5q-10 114 -11 170q-1 33 0 93t1 79q0 28 -0.5 85t-0.5 85 q0 115 -1 173q0 19 -1 53.5t-1.5 63t-0.5 53.5v90q0 53 -3 79q0 2 -1 6.5t-2 6.5q-1 0 -4 1h-18t-18 1q-3 1 -9.5 2t-10.5 1q2 -87 0 -262q-1 -58 -1 -173q0 -54 1 -82l3 -90q2 -56 2 -84l3 -90q1 -32 -0.5 -89t-1.5 -80q0 -26 1.5 -79t1.5 -80q0 -56 1 -84q0 -13 2 -41 l3 -33q0 -5 2 -14t2 -13q16 0 48 2z" />
<glyph unicode="O" horiz-adv-x="929" d="M823 942q6 -89 5 -167q-2 -89 -9 -176q-7 -82 -31 -175q-3 -14 -11 -42q-3 -9 -14 -41l-30 -81q-3 -6 -7.5 -18.5t-6.5 -18.5l-9 -21q-10 -26 -16 -38q-9 -17 -17 -28q-3 -5 -11 -13q-2 -3 -7 -9t-7 -9q-29 -34 -54 -51q-6 -4 -18 -10l-14 -7q-28 -14 -52 -18 q-17 -3 -67 -1q-30 1 -66 15q-23 8 -42 20q-7 4 -33 23q-31 23 -34 25q-9 9 -27 28q-11 13 -29 36q-16 22 -21 34q-12 28 -17 43q-9 28 -25 84q-9 30 -20 82q-5 24 -16 88q-5 31 -9 91q-2 26 -4 82q-3 80 -1 179q0 46 4 82l6 51q1 4 2 11.5t1 11.5q2 8 4 24l9 42q6 24 10 36 q1 4 3 12.5t4 13.5q1 4 3.5 10.5t3.5 9.5t3.5 9t3.5 9q6 16 10 24q12 26 19 39q2 3 5 10t5 10t7 10t7 11q28 44 70 80q31 25 54 40q5 3 15 9.5t15 9.5l1 1q2 0 2 1q17 13 24 16q22 10 28 11q12 3 24 3h2q21 0 46 -5q6 -1 19 -4t20 -4q19 -3 39 -9q35 -9 55 -21 q34 -20 47 -35q5 -5 13 -15.5t13 -15.5q24 -29 29 -36q9 -13 25 -39q8 -15 24 -59q2 -6 4 -13t4.5 -15.5t3.5 -13.5q4 -14 10 -42q3 -16 7 -41l6 -45q8 -60 10 -90zM334 121q8 -7 19 -14q-15 30 -28 64q-4 12 -22 81q-10 39 -18 83q-9 45 -15 90q-2 14 -5 42.5t-5 42.5 q-10 64 -13 100q-1 17 -3.5 52t-4.5 53q-4 56 -5 89q-2 56 -2 83v87q0 55 1 82q1 40 8 92q3 26 7 46q4 17 11 41q1 4 4 12.5t5 12.5q-22 -33 -28 -45q-8 -14 -11 -21l-6.5 -13t-6.5 -14l1 1q-2 -3 -5 -10.5t-4 -11.5q-1 -5 -4.5 -14t-5.5 -13q-1 -5 -4 -15t-4 -15 q-3 -9 -7 -27q-8 -34 -11 -51q-4 -18 -5 -27q0 -4 -1.5 -12.5t-2.5 -13.5q-2 -17 -4 -51q-1 -10 -1 -29t-1 -28q-1 -28 -1 -84q0 -30 2 -92q3 -79 3 -80q1 -8 2 -23.5t1 -23.5q2 -24 4 -37q8 -48 13 -72q10 -46 16 -68q12 -46 22 -76q12 -42 20 -62q1 -4 11 -23q2 -3 6.5 -9 t6.5 -9q5 -5 14 -15.5t13 -15.5q17 -19 27 -27q3 -2 8.5 -6t8.5 -6zM772 688q4 79 1 170q-1 28 -5 89q-4 58 -8 85q-8 62 -16 91q-13 54 -29 94q-13 26 -24 42q-6 10 -16 23q-4 4 -11.5 14t-11.5 14q-18 22 -29 31q-22 15 -33 20q-11 4 -33 10q-12 4 -29 7q-7 1 -19 4t-22 5 t-19 3q-18 2 -28 1q-10 -2 -15 -4q-1 0 -1 -0.5t-1 -0.5q-2 -3 -8 -7q-3 -1 -8.5 -5t-8.5 -6l-18 -18q-1 -2 -3.5 -5t-3.5 -4q-22 -31 -29 -44q-8 -15 -22 -45q-12 -29 -17 -52q-5 -16 -11 -55q-4 -31 -6 -65q-2 -44 -2 -66q-2 -85 -1 -127q0 -1 3 -85q1 -31 5 -88 q6 -84 6 -86q6 -60 10 -89q2 -20 7 -59.5t8 -58.5q9 -60 26 -136q10 -42 16 -62q9 -34 19 -59q8 -18 10 -22l12 -21q2 -3 6.5 -10t6.5 -10t5.5 -7t4.5 -7v-1h1q9 -5 12 -14q7 -1 21 -1q26 0 39 1q18 4 28 8q33 15 44 24q22 17 56 60q1 2 3.5 5.5t4.5 6.5l4 6q2 4 5.5 12 t5.5 12q3 6 8 18.5t7 18.5q3 7 31 83q2 7 7 20t8 20q6 18 13 41q8 27 20 83q6 24 14 79q7 54 10 119z" />
<glyph unicode="P" horiz-adv-x="974" d="M871 1041q3 -22 1 -50q-2 -21 -6 -42q-2 -12 -4 -18q-8 -29 -23 -53q-2 -3 -6 -9.5t-6 -9.5q-14 -19 -29 -35q-21 -21 -32 -30q-2 -2 -7 -5.5t-7 -5.5t-6.5 -5t-6.5 -4q-21 -13 -44 -22l-42 -15q-28 -8 -43 -11q-30 -6 -41 -8q-8 -1 -23 -3.5t-22 -3.5q-44 -5 -86 -6 q-30 -1 -89 -2.5t-89 -2.5q1 -25 3.5 -75t3.5 -75q1 -13 2 -39.5t1 -39.5q0 -14 2 -41t2 -40l3 -84q1 -15 2 -43.5t1 -42.5q1 -14 2.5 -40t1.5 -40q2 -46 5 -71q4 -9 0 -19t-12 -15q-1 -1 -3 -1t-3 -1q-8 -6 -16 -6q-3 0 -9 -0.5t-10 -0.5t-11 0.5t-11 0.5q-6 0 -19 0.5 t-20 0.5q-9 -7 -17 -7q-11 0 -19 8q-6 6 -8 19q-1 7 -2 18.5t-1 18.5t-1 20.5t-1 20.5q-1 13 -3 38t-3 38q-2 26 -4 78q0 13 -1 38.5t-2 38.5l-9 171q-1 29 -1 176q0 114 1 170v45t1 45q1 30 1 90q2 114 2 170v183q-2 6 -2 9q0 11 8 19t19 8h32h13q2 0 7 -0.5t7 -0.5 q7 0 17 -2q29 4 41 5q18 2 54 2h39q29 -1 82 -5q13 -1 92 -11q28 -4 41 -8q24 -7 40 -13q6 -2 21 -8t23 -9q26 -12 39 -19q5 -2 35 -20q4 -3 11.5 -7.5t13.5 -8.5t11 -8q9 -7 23 -19q3 -2 8.5 -7t7.5 -8q33 -34 48 -80q11 -34 12 -41t4 -21.5t4 -21.5q6 -32 8 -48 q1 -7 2 -21t2 -22zM182 81q6 0 17.5 -0.5t17.5 -0.5h17q0 2 -0.5 7t-0.5 8q-2 26 -2 39q-1 13 -2 39.5t-2 39.5q-2 28 -3.5 84t-3.5 84q-2 29 -4 83q0 14 -1 41t-1 40q-1 27 -4 81.5t-4 81.5q-2 57 -2 170q0 28 -0.5 85.5t-0.5 86.5q0 115 1 173q2 128 -1 158q0 1 -0.5 2.5 t-0.5 2.5q-6 0 -17.5 -1t-17.5 -2q-1 0 -1 -1h-2l-2 -1q0 -213 -2 -319q-1 -29 -1 -87q0 -15 -0.5 -43t-0.5 -43q-2 -116 -2 -174q0 -118 2 -177q2 -53 8 -167q2 -27 4.5 -81t3.5 -81q1 -13 3 -39.5t3 -39.5q0 -7 1 -21t1 -21v-7zM818 984q2 22 -5 97q-1 10 -4.5 30t-5.5 30 q-2 15 -8 35l-12 36q-10 21 -20 34q-10 12 -34 34q-25 20 -54 36q-20 12 -31 17l-33 15q-36 14 -54 19t-31 8l-30 6q-2 0 -5 0.5t-5 0.5q-28 4 -42 5l-45 3q-41 3 -81 3q-42 0 -63 -2q2 -14 4 -38v-41q0 -14 -1 -42t-1 -42v-168q0 -28 0.5 -86t0.5 -86v-135l72 3h32t32 1 q11 1 34 2t34 1q19 1 62 5q55 8 79 14q35 8 78 25q25 12 39 22q1 1 4 3.5t5 3.5q9 7 25 23q14 14 20 21q18 24 29 48q10 28 15 59z" />
<glyph unicode="Q" horiz-adv-x="923" d="M810 80l2 -2q8 -8 8 -19t-8 -19t-19 -8t-19 8q-3 2 -16 21q-1 2 -4 6.5l-5 7.5q-4 5 -10.5 15t-9.5 15q-5 7 -14 20t-13 20l-12 -15q-20 -24 -30 -34q-15 -16 -51 -42q-10 -9 -25 -20q-18 -14 -28 -20q-18 -10 -36 -16q-26 -8 -39 -11q-25 -5 -43 -4q-9 0 -23 2 q-3 1 -9.5 2t-9.5 1q-27 5 -46 16q-14 8 -21 13q-4 3 -12.5 9t-12.5 9q-11 10 -16 15q-8 8 -14 17q-13 17 -37 53q-3 5 -22 37q-7 14 -19 42q-9 22 -26 78q-14 50 -19 75q-7 33 -16 83q-10 57 -22 173q-3 29 -7 80q-3 42 -3 84v79q1 16 3.5 45.5t3.5 38.5q6 62 11 93 q4 28 8 41q11 40 12 44q2 6 4.5 13t5.5 15.5t5 13.5q8 22 18 41q2 3 9 19t12 24q6 11 20 33q17 25 29 39l15 18q2 3 8 8.5t8 8.5q14 14 21 20l24 18q7 5 23 13q19 8 26 10q27 7 64 10q9 1 27 1q4 2 5 2q2 0 6.5 1t6.5 1q16 2 23 2q39 0 72 -15q23 -10 39 -23q10 -8 14 -13 q3 -3 7.5 -9.5t6.5 -9.5q19 -26 23 -33q11 -18 19 -35q4 -6 10 -18l9 -18q2 -5 6.5 -13.5t8 -15.5l6.5 -13q2 -5 15 -41l15 -39q6 -18 13 -41q8 -28 11 -42q12 -54 17 -81q11 -49 17 -82q9 -53 10 -91q1 -29 1 -86q0 -114 -6 -171q-1 -13 -3 -27.5t-5 -32t-4 -27.5 q-7 -49 -13 -80q-8 -41 -18 -77q-14 -48 -34 -87q-1 -2 -2 -5.5t-2 -4.5v-1q36 -52 76 -112zM282 150q4 -5 10.5 -15t12 -18t10.5 -15l-2.5 10l-2.5 10q-21 82 -31 131q-25 120 -39 343q-2 28 -4 84q-1 0 0 43v43q2 103 8 175q2 31 10 91q7 47 16 84q10 43 24 78 q12 30 19 44q3 6 9.5 18t9.5 18q26 51 45 76q1 0 2 2l1 2q-4 -1 -12 -5q-20 -10 -29 -17q-19 -16 -39 -38l-18 -21q-1 -2 -5 -6.5t-5 -6.5q-2 -3 -11 -16l-9 -15q-1 -2 -4 -6.5t-4 -7.5q-17 -32 -20 -38q-5 -9 -13 -29q-17 -44 -24 -71q-1 -7 -4.5 -19.5t-5.5 -18.5 q-2 -11 -6 -35q0 -3 -9 -89q-4 -45 -6 -90q-1 -27 1 -82q1 -26 5 -83q2 -27 8 -81q2 -13 5 -39.5t4 -39.5q2 -13 6.5 -38.5t6.5 -37.5q14 -73 15 -77q11 -42 19 -70q2 -6 5.5 -18t5.5 -18q10 -27 13 -34l15 -30q5 -9 17 -27zM600 114q23 19 61 65q1 2 3.5 6t4.5 6 q-27 39 -59 80q-2 2 -5 6.5t-5 6.5q-6 6 -7 12q0 1 -0.5 3.5t-0.5 3.5q0 11 8 19t19 8q13 0 19 -8q40 -52 60 -79q0 1 2 4t2 4q9 22 20 61q12 44 16 66q5 24 10 62q1 10 4 30.5t5 30.5q8 57 10 173q2 112 -4 168q-1 11 -5 28q-22 110 -35 165q-6 26 -10 39q-5 19 -14 44 q-2 6 -7 20t-8 20q-10 27 -13 34q-3 6 -20 38q-3 6 -9.5 17.5t-9.5 17.5q-8 17 -20 35q-9 14 -20 29q-10 13 -17 18q-9 7 -25 14q-16 6 -33 9h-10q-7 -7 -17 -7h-1q-3 0 -9.5 1t-9.5 1q-3 -1 -8.5 -4.5t-7.5 -5.5q-9 -8 -25 -26q-8 -10 -22 -30q-3 -4 -21 -38 q-3 -6 -10 -18.5t-10 -18.5t-16 -34q-8 -20 -16 -44q-3 -9 -7 -26.5t-5 -19.5q-8 -32 -11 -49q-3 -13 -7 -46q-3 -26 -7 -71q-2 -25 -4 -79q-4 -100 -3 -151q1 -76 8 -169q8 -114 15 -169q1 -10 3 -21.5t5 -25.5t4 -22q1 -5 15 -70q9 -42 16 -71q1 -6 4.5 -18.5t5.5 -18.5 q6 -20 10 -29q11 -26 25 -45q1 0 8 -5q1 0 3.5 -0.5t3.5 -0.5q23 -3 41 -2q12 2 34 8q8 2 24 8q16 8 34 21q4 3 11 8.5t10 8.5q20 16 30 23z" />
<glyph unicode="R" d="M843 1005v-22q0 -45 -9 -71q-3 -8 -6.5 -16.5t-8 -18.5t-6.5 -16q-7 -18 -14 -28q-2 -2 -6 -7.5t-6 -8.5q-10 -12 -14 -16q-24 -26 -50 -43q-24 -16 -37 -22q-24 -12 -45 -19q-22 -8 -43 -12q-54 -12 -178 -8q-14 1 -41.5 1t-40.5 1q-5 0 -15.5 0.5t-15.5 0.5l7 -7t7 -8 q5 -5 30 -38q42 -54 62 -82q9 -13 26 -37.5t25 -36.5q47 -66 52 -73q4 -6 42 -58t59 -79l90 -114q22 -28 47 -56l24 -27q24 -27 25 -28l-1 1q5 -4 9 -13q3 -12 -3 -21t-16 -12q-12 -4 -21 2q-3 2 -28 30q-9 10 -27 30.5t-27 31.5t-27 33.5t-27 33.5q-53 67 -109 142l-51 69 q-43 59 -47 65q-8 12 -24.5 36.5t-25.5 36.5q-4 6 -12 17.5t-12 17.5q-5 7 -14 18.5t-14 18.5q-3 4 -10 12t-10 12q-3 3 -8.5 10.5t-8.5 11.5q-5 5 -14.5 16.5t-14.5 17.5v-110q0 -56 1 -84q1 -15 2 -44.5t1 -44.5q1 -14 2.5 -41.5t1.5 -41.5t1 -42.5t1 -42.5 q0 -9 0.5 -26.5t1 -31.5t1.5 -26q2 -28 2 -42v-21v-20q0 -12 -7 -19q-8 -8 -19 -8q-9 0 -17 6q-1 0 -3 -0.5t-3 -0.5q-15 -2 -45 -4q-8 -1 -24.5 -2t-24.5 -1q-11 -1 -19 7.5t-8 19.5q0 1 0.5 3t0.5 3q-2 44 -2 66v72q0 24 1 72.5t1 72.5v93q0 14 -0.5 41.5t-0.5 41.5v169 q0 289 1 347q3 163 -4 366q0 11 8 19t19 8q6 0 12 -3q14 2 42 8q32 6 50 7h1q3 0 9 -2q20 2 30 2h6q14 0 40 -2q16 -1 48 -5l39 -6q28 -4 42 -7q105 -21 164 -44q24 -9 41 -19q42 -26 59 -46q16 -18 31 -40q11 -15 21 -35l39 -81q7 -14 17 -44q4 -10 13 -43q10 -33 10 -62z M158 81q7 0 23 2q28 2 41 3q0 1 -0.5 3t-0.5 3q0 25 -1 38q-1 11 -1.5 23.5t-1 27.5t-0.5 23q-1 12 -1 37t-1 38t-2 39.5t-1 40.5q-5 93 -5 168q-1 59 -1 178q0 55 0.5 166t0.5 167v341q-2 -1 -7.5 -1t-8.5 -1q-16 -2 -22 -4q-2 -1 -5 -2t-5 -1q-1 0 -1 -0.5t-1 -0.5 q4 -145 3 -289q0 -14 -0.5 -43t-0.5 -44v-85v-174v-169v-83q0 -15 0.5 -45.5t0.5 -45.5v-83q-3 -87 -3 -88q0 -14 0.5 -42t0.5 -42v-55zM788 949q1 11 1 34q0 27 -1 40q-4 23 -18 67q-10 29 -13 37q-1 2 -13 28t-19 39q-11 23 -20 37q-6 9 -20 27q-17 20 -31 32 q-15 11 -29 20l-24 12q-6 3 -28 10q-19 7 -34 11q-26 7 -62 16q-13 3 -38.5 7t-28.5 5q-10 1 -30 5t-30 5q-29 4 -67 4h-23v-313v-318q75 0 150 -3q50 -2 77 -2q26 0 39 1q12 0 19 1q3 1 8.5 1t7.5 1q10 2 38 8q3 1 9.5 2.5t9.5 2.5t9.5 3t9.5 3q-1 0 -3 -1t-3 -1 q23 9 37 17q17 9 39 25q17 13 27 25q2 3 8 9t8 9q5 7 13 23q2 5 5.5 13.5t4.5 12.5q12 31 15 45z" />
<glyph unicode="S" horiz-adv-x="907" d="M801 494q5 -45 2 -84q-3 -40 -11 -90q-7 -49 -23 -84q-1 -1 -4 -8t-5 -11q-2 -3 -5.5 -9t-5.5 -9q-4 -6 -11.5 -18.5t-11.5 -18.5q-21 -32 -25 -36q-16 -19 -52 -40q-28 -17 -38 -21l-15 -6q-12 -5 -23 -6q-4 -1 -10.5 -2t-9.5 -1q-16 -2 -24 -4q-3 -1 -10.5 -2.5 t-11.5 -2.5q-48 -10 -73 -10q-8 0 -23 0.5t-23 0.5q-22 0 -43 3q-14 2 -47 10t-58 20q-23 11 -41 24l-21 15q-19 16 -30 29q-15 18 -24 33q-11 16 -22 37q-10 16 -21 42q-18 43 -25 81q-7 43 -10 96q0 7 -1 19.5t-2 18.5q-1 14 1 43q0 11 8 19t19 8t19.5 -8t7.5 -19 q-2 -25 -1 -38q1 -6 1 -19t1 -20q1 -26 7 -73q6 -32 11 -48q3 -7 7.5 -21t6.5 -21q23 -47 52 -88q16 -18 25 -26q2 -2 5.5 -5t5.5 -4t6 -3.5t6 -4.5q19 -13 37 -21q5 -1 13 -4t13 -5q10 -4 16 -5q22 -5 37 -8q12 -2 18 -2q9 -1 27 -1q45 -2 68 0q6 1 16.5 3.5t15.5 3.5 q17 4 23 5q4 0 12.5 1.5t12.5 2.5q32 5 41 8l1 1q1 2 3 4.5t3 3.5q0 1 1 2t1 2h1q1 4 3 10t3 10t4 12.5t5 12.5q2 6 4.5 16.5t3.5 14.5q4 16 5 24q0 1 0.5 2t0.5 2v1q0 1 0.5 2.5t0.5 2.5t0.5 5t0.5 5q1 3 1.5 9.5t0.5 9.5q1 6 1.5 12.5t1 15t0.5 12.5q1 13 3.5 38t3.5 38 q3 44 2 79q-2 52 -5 78q-2 18 -8 46q-6 34 -11 51q-8 29 -33 96q-8 18 -10 22l-15 27q-6 10 -32 48q-3 2 -11 5t-11 4q-10 4 -31 15.5t-31 15.5q-4 2 -11.5 4t-11.5 4q-10 4 -23 7q-9 3 -27.5 7t-21.5 5q-4 1 -10 3t-10 3q-2 1 -8 2.5t-8 2.5q-49 17 -69 28q-20 12 -29 20 q-1 1 -8.5 7t-11.5 10q-23 21 -38 42q-19 25 -32 57q-10 25 -13 57q-2 22 -1 32q2 21 5 30q3 12 9 26q8 18 13 27q16 27 40 50q25 23 47 36q4 2 11 6.5t10 6.5q3 1 9 3.5t9 4.5q30 14 45 20q5 2 22 7q2 1 8 2.5t8 2.5q20 6 30 8q27 7 60 10q9 1 25 1q25 0 38 -2 q26 -3 57 -13q36 -14 52 -26q3 -2 9 -6.5t9 -6.5q33 -25 38 -30q2 -2 8.5 -6.5t9.5 -7.5l17 -17q2 -2 7 -8t8 -9q16 -18 24 -28q2 -3 5 -6.5t5.5 -6.5t5.5 -7t5 -7q13 -22 15 -25q9 -20 20 -55q3 -11 -2.5 -21t-15.5 -13t-20 2.5t-13 16.5q-6 18 -14 40q-8 18 -27 42 q-24 30 -50 56q-19 17 -40 34q-42 31 -62 41q-17 7 -53 13q-1 0 -3 0.5t-3 0.5q-18 -8 -31 -16q-2 -2 -7 -5t-8 -5q-17 -11 -19 -13q-12 -10 -19 -17l-18 -18q-5 -5 -30 -35q-12 -16 -17 -25q-10 -16 -14 -25q-6 -14 -8 -21q-1 -1 -6 -26q-4 -28 -4 -42q0 -31 1 -46 q6 -28 12 -42q16 -33 28 -50q3 -4 10 -11q10 -3 30 -8t30 -8q32 -10 66 -26q5 -2 14 -7t14 -7q18 -9 28 -13q4 -2 14 -5.5t14 -5.5q3 -1 16.5 -6t20.5 -9q31 -15 76 -68q29 -36 41 -55q19 -31 31 -60q2 -4 18 -44q9 -23 14 -41q11 -35 18 -88zM195 1040q26 -31 51 -51 q12 -8 28 -16q-2 3 -4.5 10t-3.5 10q-8 18 -13 44q-1 6 -1 54q0 28 2 41q1 11 5 28q1 6 5 18q1 4 8 20q8 18 10 22q10 18 23 38q12 17 30 37l29 29q1 1 4 3.5t4 3.5l-30 -9q-18 -6 -26 -9q-4 -2 -11.5 -5t-11.5 -4q-18 -8 -26 -13q-28 -16 -41 -26q-23 -19 -37 -36 q-10 -14 -18 -32q-10 -27 -12 -39q-1 -12 1 -35q4 -21 12 -43q8 -18 23 -40zM750 432q0 24 -1 36q-1 6 -2 17.5t-1 17.5q-7 41 -16 71q-10 31 -24 64l-24 48q-9 17 -27 42q-20 25 -37 42l3 -6q22 -51 38 -103q5 -16 10 -38q0 -2 4 -17.5t5 -23.5q8 -48 11 -88q4 -58 -5 -158 q-4 -52 -7 -78q-1 -3 -1 -10t-1 -11q0 -1 -0.5 -4t-0.5 -4t-0.5 -3.5t-0.5 -3.5v-2l-1 -2v-3v-3q-3 -14 -8 -34q-2 -10 -4 -16l6 6q5 8 14.5 23t14.5 23l15 24l12 24q4 7 7 19q1 4 3 12.5t3 12.5q0 2 4 21t5 29q5 38 6 76z" />
<glyph unicode="T" horiz-adv-x="847" d="M738 1402q11 0 19 -8t8 -19t-8 -19t-19 -8q-89 0 -134 1q-12 1 -36 1t-36 1q-7 0 -21 0.5t-21 0.5q-4 -99 -6 -297q-2 -115 -2 -347v-42q-1 -42 0 -42q2 -60 4 -89q2 -28 5 -85t5 -85q0 -14 1 -42t1 -42q1 -30 5 -85q6 -98 12 -149q0 -1 1 -3q1 -7 0 -14q0 -1 -1 -3.5 t-2 -3.5l-1 -1q-1 -10 -9 -17.5t-18 -6.5q-8 0 -24.5 1t-25.5 2q-36 2 -54 2q-11 0 -19 8t-8 19q0 1 0.5 2.5t0.5 2.5t-0.5 3.5t-0.5 3.5v8q0 3 -0.5 9t-0.5 9v37q0 13 -0.5 38.5t-0.5 38.5q0 26 -2 74q-2 50 -4 73q-2 27 -4 85v40t-1 40l-3 81l-3 84q-1 16 -2 46t-1 46 q0 14 -1 42.5t-2 42.5q-1 28 -3.5 84t-3.5 84q-6 177 -6 178q0 61 1 91q2 56 5 84q-6 0 -16 0.5t-16 0.5q-13 0 -40 2t-41 2q-1 0 -98 3q-11 0 -19 8t-8 19t8 19t18 8h1q14 -1 40 -2t40 -1l75 -3q48 -2 71 -2q24 0 72 -2q28 -1 84.5 -3t84.5 -3q26 -1 160 -1zM407 56 q19 0 28 -1q5 -1 13.5 -1t12.5 -1q-1 3 -1 8t-1 7q-1 5 -2 16t-1 16q-1 12 -3 35.5t-3 35.5q-6 98 -7 148q-3 87 -9 174q-6 86 -6 170q0 115 2 343q0 30 1 89t1 89q2 141 4 170q-10 0 -30 1t-30 1q-2 -12 -2 -19q-1 -7 -1 -20q-1 -7 -1 -20.5t-1 -20.5q-1 -25 -1 -76t1 -77 q1 -12 2 -38t1 -38q1 -29 3.5 -87t3.5 -87q1 -14 2 -43.5t1 -44.5q0 -13 1 -41t2 -41q1 -29 3 -86t3 -86q1 -22 1.5 -76.5t2.5 -84.5l3 -42t2 -42t1 -41.5t2 -41.5q1 -28 1 -84q0 -7 0.5 -20.5t0.5 -20.5v-22z" />
<glyph unicode="U" horiz-adv-x="923" d="M821 641q1 -29 1 -86q0 -38 -5 -85q-3 -32 -15 -89q-5 -22 -16 -82q-2 -7 -4 -21t-4 -21l-9 -42q-6 -21 -15 -43q-16 -34 -18 -38q-24 -43 -59 -72q-7 -6 -38 -25q-20 -12 -60 -25q-31 -12 -50 -15q-18 -4 -55 -6h-42q-16 0 -46 6q-43 8 -80 27q-50 26 -65 44 q-11 13 -31 41q-20 30 -39 75q-16 40 -18 46t-4 13t-4.5 15.5t-3.5 13.5q-11 40 -18 81q-16 87 -18 177q-1 28 -1 85.5t-1 86.5q-1 59 -1 176q0 112 2 168l6 174q0 61 1 91q0 14 2 40q0 15 1 22q0 3 1 9.5t2 9.5q-1 2 -1 7q0 11 8 19t17 8h2l57 -6q2 0 6 -1t6 -1h7q3 0 9 -2 q2 0 4 -1l4 -2q7 -3 11 -12q2 -3 4 -9l3 -9l3 -18q1 -9 1 -58q0 -10 0.5 -30t0.5 -30q0 -30 -2 -86q0 -14 -1.5 -40.5t-2.5 -39.5q-1 -14 -2.5 -42t-1.5 -42q-1 -29 -1 -87v-86q0 -13 0.5 -27t1.5 -31t1 -27q0 -9 0.5 -26.5t1 -31.5t1.5 -26q1 -14 2.5 -42t2.5 -42 q6 -58 8 -87q1 -12 1.5 -27t1 -32.5t0.5 -26.5q4 -97 12 -160q8 -52 25 -96q2 -6 17 -35q8 -16 13 -24q15 -6 18 -18v-4q8 -4 22 -7q22 -6 38 -8q7 -1 22 -1q4 0 11.5 -0.5t11.5 -0.5q8 0 24 2q4 0 13 1t13 1q22 4 49 14q17 5 38 14q23 11 43 25q12 10 18 16q2 2 4.5 5 t5 6.5t4.5 5.5q9 14 19 31l15 30q4 10 10 30q3 11 7 33q2 12 7 35.5t7 34.5q3 14 12 59t13 70q6 49 6 123q0 45 -1 68q-2 42 -4 65q-4 55 -5 85q-2 58 -2 86v167v168v40t1 40q0 14 2 40q0 14 1 21q2 12 2 16q-1 9 4 18q6 9 16 12q11 3 20 -3q10 -7 13 -16q2 -6 0 -17 q0 -2 -0.5 -5t-0.5 -4q-1 -6 -1 -19q-2 -24 -2 -37q-1 -26 -1 -78q0 -13 -0.5 -39t-0.5 -39v-82q0 -28 0.5 -84t0.5 -84q0 -57 1 -86q2 -58 4 -85q1 -10 2.5 -27.5t2.5 -32t1 -27.5zM240 163q2 -5 8 -13q-4 12 -10 36q-8 37 -13 86q-3 26 -7 85q-9 170 -9 172q-3 26 -7 85 q0 14 -2 42t-2 42q0 29 -1 43q-2 28 -2 43q-1 29 -1 86v85q0 1 3 85q1 14 2 42t2 42q0 9 2 37.5t2 43.5v85q0 50 -2 75q-3 1 -9.5 1t-9.5 1t-8.5 1t-7.5 1q-1 -5 -1 -16q-2 -24 -2 -36q-1 -23 -1 -68q0 -23 -2 -71q0 -11 -1 -33t-1 -33q0 -16 -1 -46.5t-2 -45.5 q-1 -28 -1 -84v-173q0 -15 0.5 -44t0.5 -43t0.5 -42.5t0.5 -42.5q0 -59 1 -88q1 -28 7 -82q7 -47 20 -106q9 -39 13 -52q12 -36 19 -54q18 -38 22 -46z" />
<glyph unicode="V" horiz-adv-x="935" d="M831 1410q4 -7 2 -21q-14 -74 -23 -110q-3 -11 -9.5 -37.5t-9.5 -41.5q-3 -14 -9.5 -43t-9.5 -43q-10 -42 -19 -88q-12 -58 -17 -87q-23 -123 -31 -176q-1 -5 -15 -85q-4 -23 -13 -82q-3 -22 -11 -77q0 1 0.5 2t0.5 2q-8 -58 -18 -174q-10 -98 -14 -154t-7 -84 q0 -7 -1 -14t-2.5 -16t-2.5 -14q0 -5 -2 -14t-2 -13q2 -6 2 -8q0 -11 -8 -19q-6 -6 -19 -8q-6 0 -18 2q-2 0 -7 1t-8 0q-2 0 -7.5 -1t-8.5 -1q-34 -4 -50 -4q-17 0 -33 8q-5 3 -11 7q-1 1 -6.5 5t-7.5 6q-4 4 -10 14q-7 10 -18 38q-2 6 -7 19t-7 20q-11 32 -25 79 q-3 10 -11.5 38.5t-13.5 44.5q-14 54 -20 81q-10 43 -37 166q-34 156 -36 166q-2 9 -5.5 26.5t-6.5 31.5t-6 26q-3 14 -10 43.5t-11 44.5q-8 30 -17 85q-6 34 -17 85q-5 23 -14.5 80t-16.5 87q-6 28 -20 84q-4 16 -12 47.5t-12 47.5q-3 14 6 25q2 10 8 16q8 8 18 8h1 q7 -1 20.5 -2t20.5 -1q18 -2 31 -4q1 0 3.5 -0.5t3.5 -0.5h12q7 0 13 -3q19 -2 24 -20q4 -17 12 -51.5t12 -51.5q3 -14 8.5 -40t8.5 -40q5 -22 20 -86q19 -81 21 -86q8 -28 23 -83.5t23 -83.5q15 -58 47 -172q17 -61 43.5 -175t37.5 -157q3 -14 10 -41t11 -41 q3 -13 10.5 -41t11.5 -41q3 -10 8 -28t7 -28q1 11 2.5 33t2.5 33q2 20 8 76q3 25 7 77q2 31 8 85q9 77 9 80v-1q2 13 5.5 41.5t5.5 43.5q2 12 4.5 26t5.5 31.5t5 26.5q3 15 7 44t7 44q2 12 4.5 26t5.5 30.5t5 26.5q20 106 34 176q3 13 9 40t9 40q12 58 19 87q3 14 9.5 41 t9.5 40l21 102q1 10 13 16q8 4 13 4t7 -1q11 -3 17 -12zM535 58q2 0 5.5 1t5.5 1q0 3 -2 7.5t-2 6.5l-9 39q-3 13 -11 41t-11 41q-3 10 -10.5 38.5t-11.5 44.5q-3 14 -9.5 41.5t-10.5 40.5q-10 38 -37.5 153t-44.5 178q-29 102 -47 173q-8 28 -23.5 83t-22.5 83q-2 5 -21 86 q-7 29 -19 87q-3 14 -9 40.5t-9 39.5q-6 29 -20 87h-6q-3 0 -8.5 1t-8.5 1l-33 3q4 -16 12 -45.5t14 -53.5t10 -45q6 -29 15.5 -82.5t13.5 -71.5q1 -7 3.5 -21t4.5 -21l9 -45q3 -15 8.5 -44t8.5 -43q12 -58 19 -86q8 -32 19 -82q3 -14 9 -41.5t9 -41.5l18 -84 q24 -110 37 -165q5 -21 20 -83q7 -28 23 -82q13 -45 26 -83q2 -6 6 -18.5t6 -18.5l12 -33q8 -15 9 -17l6 -6q1 -1 4.5 -3t5.5 -3h1q21 -1 46 2z" />
<glyph unicode="W" horiz-adv-x="1216" d="M1111 1385q3 -6 3 -13q0 -1 -0.5 -3.5t-0.5 -3.5q-2 -13 -4.5 -27.5t-5.5 -32t-5 -27.5q-10 -54 -14 -81q-4 -25 -10 -75.5t-9 -75.5q-1 -11 -4.5 -32t-5.5 -32q-2 -12 -5.5 -36.5t-5.5 -36.5l-9 -84q-4 -50 -7 -75q-3 -30 -11.5 -84.5t-10.5 -71.5q-23 -179 -26 -232 q-5 -83 -3 -166q0 -15 2.5 -42.5t2.5 -38.5q1 -13 1 -40q0 -25 1 -37q1 -10 -8 -19q-5 -10 -16 -13q-10 -3 -20 2.5t-13 16.5q-1 6 -4 18.5t-5 18.5q-1 6 -4.5 18.5t-5.5 18.5q-1 5 -18 74q-27 111 -35 149q-6 28 -18 84.5t-18 84.5q-24 114 -35 171q-3 15 -8.5 44t-8.5 43 q-5 23 -16 85q-9 50 -31 181q-12 76 -42 226q-19 -131 -29 -190q-10 -61 -31 -167q-3 -15 -8.5 -44t-8.5 -43t-9.5 -43t-9.5 -43q-14 -64 -34 -166q-3 -15 -8.5 -44t-8.5 -44q-14 -75 -15 -80q-2 -10 -9 -38.5t-10 -44.5q-9 -52 -16 -86q-2 -13 -7 -38.5t-8 -38.5 q-1 -7 -4 -20.5t-5 -20.5v-4q1 -1 1 -5t1 -5v-7q2 -2 2 -3q3 -12 -3 -21q-7 -11 -16 -13h-4l-2 -2q-8 -6 -21 -2h-1l-2 1h-5q-1 0 -14 -0.5t-14 0.5q-19 2 -65 8q-8 0 -14 3q-1 0 -2.5 2t-2.5 2q-8 8 -8 20q-2 10 -6 28l-6 27q-2 10 -6 30.5t-6 30.5q-9 43 -23 129 q-15 84 -27 168q-14 92 -24 181q-3 33 -11 88q-2 13 -5.5 39.5t-4.5 40.5q-20 171 -21 178q-3 30 -8 89.5t-8 88.5q-6 56 -10 84q-3 23 -11 80q-4 32 -7 48q-2 13 3 21q0 1 1 1l1 2q1 3 6 8q8 8 17 8h2q2 0 5.5 -1t5.5 -1l45 -3q7 0 21 -2q5 0 11 -2q1 -1 3 -1t3 -1 q1 0 8 -5q12 -8 17 -19q6 -12 8 -19q0 -1 1 -5t2 -5q1 -3 2 -9t2 -9q3 -17 7 -44q1 -7 3.5 -20.5t3.5 -19.5q3 -14 7 -49q5 -34 10 -82q3 -29 9.5 -86t9.5 -86q1 -15 5 -43t5 -43q1 -13 4 -39t4 -39q2 -10 5 -29.5t4 -29.5q2 -13 6 -40t6 -40q9 -54 14 -88q16 -112 26 -167 q10 -56 14 -84q8 -56 13 -84q1 -4 2.5 -12.5t2.5 -12.5q3 13 7.5 37.5t6.5 36.5q8 40 16 76q5 22 16 82q6 34 17 85q22 112 34 168q34 160 36 172q22 110 31 166q10 56 14 85q10 58 14 87q26 173 27 182q2 9 11 15q6 4 10 5q2 1 7 1q21 0 26 -19q46 -218 65 -328l30 -180 q11 -64 16 -88q3 -15 8.5 -43t8.5 -42q22 -112 70 -336q4 -18 12 -55t12 -55q2 81 5 121q3 43 9 87q2 14 5.5 42.5t5.5 42.5q5 40 23 166q1 9 3 29q14 138 20 181q2 14 6.5 42.5t6.5 42.5t6 41.5t6 41.5q1 11 3 32t4 31q1 6 2.5 18.5t2.5 18.5q1 7 3.5 21t3.5 21 q4 23 12.5 67t11.5 67q1 10 12 16q8 4 14 4q5 0 7 -1q9 -3 16 -13zM377 83q8 -1 23 -1h1v1q0 1 0.5 1t0.5 1q-2 8 -6.5 25t-6.5 26q-4 14 -9 42t-6 31q-9 52 -14 85q-8 56 -13 84q-2 14 -7 40.5t-7 39.5q-2 15 -6.5 43t-6.5 43q-7 53 -13 86q-2 14 -6.5 41.5t-6.5 41.5 t-6.5 44.5t-6.5 47.5q0 3 -9 86q-2 15 -5.5 44t-4.5 43q-2 14 -5.5 41.5t-4.5 40.5q-1 14 -4 42.5t-5 42.5q-6 54 -9 80q-12 69 -12 73q-4 23 -7 38q-1 4 -3.5 16.5t-4.5 18.5l-1 1q0 2 -1 2h-1q-6 0 -16 1t-16 1q-2 0 -6 0.5t-6 0.5q2 -14 5.5 -41.5t5.5 -41.5 q13 -96 20 -176q2 -24 8 -88q1 -15 4 -43t5 -43q7 -63 20 -169q2 -14 21 -175q18 -128 28 -191q9 -58 29 -172q2 -14 8 -41t8 -41l9 -42q1 -4 3 -12.5t3 -12.5q25 -4 40 -5z" />
<glyph unicode="X" horiz-adv-x="942" d="M610 862l-18 -51q-11 -28 -22 -53l3 6l-24 -57q-2 -6 -4 -10q12 -30 25 -65q20 -54 31 -81q20 -52 31 -77q18 -44 34 -76l33 -75l27 -60q5 -10 14.5 -30.5t13.5 -30.5t13.5 -29.5t14.5 -28.5q2 -6 7 -16l8 -16q2 -5 6 -14.5t6 -14.5q14 -29 18 -37q12 -21 -8 -36l-2 -2 q-9 -9 -19 -8q-2 0 -46 3q-20 1 -60 7q-11 2 -16 12q-1 1 -1 3l-1 1q-14 22 -40 68q-20 35 -41 73q-7 12 -40 76q-13 25 -37 75q-13 26 -37 78q-27 58 -51 117q-6 -13 -17.5 -38t-17.5 -38q-9 -19 -27 -56t-26 -56q-6 -13 -20 -39q-3 -7 -10 -19t-11 -19q-18 -31 -39 -76 q-12 -24 -36 -70l-18 -36q-2 -3 -5 -9t-5 -9q-6 -12 -10 -18q-12 -22 -36 -9q-10 5 -12.5 15.5t2.5 20.5q8 13 26 51q4 8 12.5 24t12.5 24q4 7 23 45.5t30 58.5q3 5 18.5 33t23.5 44q6 13 18.5 39t18.5 39t18.5 38.5t18.5 38.5q20 40 39 86l1 1v1q-4 10 -12.5 30t-12.5 30 q-7 16 -31 79q-44 110 -65 165q-5 13 -15.5 40t-15.5 41q-5 13 -15.5 39.5t-15.5 39.5q-11 29 -28.5 83.5t-25.5 77.5q-53 155 -56 168q-1 3 -1 9q-4 8 -4 13q0 11 8 19t19 8q26 0 74 2h1q7 0 17 -8q1 0 3 0.5t3 0.5q5 0 7 -1q12 -4 16 -12q11 -23 31 -71q15 -34 26 -64 q9 -21 26 -63.5t25 -63.5q40 -92 61 -138q11 -23 31 -69q5 -12 15 -37t15 -37q2 -6 13.5 -31.5t16.5 -39.5q1 -3 3.5 -10t3.5 -10q2 3 5 9.5t4 10.5l-3 -6q16 36 27 70t13 38l15 39q20 51 66 151q7 15 37 82l33 75q16 36 38 80q26 52 38 79q5 9 16 13q2 1 7 1t13 -4 q10 -7 13 -16q2 -9 -3 -21q-14 -31 -44 -93q-32 -68 -36 -76q-22 -52 -34 -78q-8 -18 -23 -50t-27 -58.5t-22 -50.5q-28 -68 -40 -103zM568 488q-16 39 -30 78q-6 16 -17 44.5t-14 35.5q-7 17 -31 82t-30 79q-31 72 -38 89q-3 8 -10 24.5t-11 24.5q-4 9 -12.5 27t-12.5 27 q-40 86 -71 164q-10 26 -30.5 78t-30.5 78q-7 17 -23 51h-4q-13 -1 -40 -1q8 -29 37 -107q9 -26 40 -118q24 -71 27 -80q6 -17 32 -83q10 -27 31.5 -81.5t31.5 -81.5q20 -53 62 -157q12 -30 65 -155q36 -85 74 -162q50 -102 77 -151q7 -12 20.5 -36t20.5 -36q18 -32 35 -61 q1 0 3 -0.5t3 -0.5l39 -3h2l-9 21q-4 10 -13.5 30.5t-14.5 30.5t-15 31.5t-15 32.5t-15.5 32.5t-15.5 32.5t-14 32.5t-13 32.5q-11 25 -35 75q-24 54 -35 81z" />
<glyph unicode="Y" horiz-adv-x="886" d="M772 1399q22 -14 10 -37q0 -2 -2 -4t-2 -4q-6 -14 -17 -39t-15 -35q-16 -38 -46 -114q-4 -10 -11.5 -30t-11.5 -30q-8 -21 -22 -63q-5 -13 -14 -38.5t-13 -38.5q-4 -11 -13.5 -38.5t-14.5 -43.5q-4 -14 -12.5 -41.5t-13.5 -40.5q-4 -14 -12 -40t-11 -37q0 -27 0.5 -81 t0.5 -81q0 -113 1 -169q0 -28 1.5 -84.5t2.5 -84.5q1 -13 2 -40.5t1 -41.5q0 -13 1 -38.5t2 -38.5t-12 -23q-1 -11 -9 -18.5t-18 -6.5q-20 2 -28 4q-10 2 -13 4q-2 0 -5.5 1.5t-4.5 2.5q-1 0 -3.5 1t-3.5 2q0 1 -2 2l-2 1q-22 2 -25 20q-2 8 -4 44q-1 6 -2 18.5t-1 18.5 q-1 12 -2.5 37t-2.5 38q-4 52 -5 78q-2 50 -2 76q0 29 -1 87t-1 87q0 42 -3 82q-1 8 -2 24.5t-1 24.5q-1 17 -5 46q-4 9 -14 28t-15 28q-16 31 -34 73q-16 38 -35 79q-6 14 -38 80q-10 21 -35 79q-13 29 -59.5 135.5t-70.5 164.5q-4 8 2 20q7 10 16 13q1 0 3 0.5t3 0.5 q6 3 12 3h49q3 0 10 0.5t10 0.5h16h4q3 1 8 1q17 0 24 -13q38 -71 58 -120q5 -12 22 -58q4 -9 11 -26t10 -26q13 -27 23 -52q4 -8 24 -59q8 -19 22.5 -56t21.5 -55q7 -16 21 -48.5t21 -48.5q4 -9 12 -27.5t12 -27.5q1 1 1 3.5t1 4.5l24 75q2 7 27 79q4 12 12.5 37t13.5 38 q20 60 29 82q6 13 16 40t15 40q6 15 16.5 41t14.5 35q14 36 32 76q5 15 14 32q8 14 23 14q6 0 14 -4zM497 78q2 0 6 -2t6 -2l-3 69l-3 81q-1 28 -2 83.5t-2 82.5q-1 57 -1 172q0 26 -0.5 78t-0.5 78q-1 3 -1 11q-4 4 -5 6l-3 6q0 1 -1 3.5t-1 3.5q-3 7 -8.5 20t-8.5 19 l-33 75q-17 38 -34 80q-10 26 -31 78t-31 77q-3 7 -17.5 40.5t-21.5 51.5q-12 31 -36 91q-13 30 -43 88h-13h-20q-3 0 -10 -0.5t-10 -0.5q9 -22 53 -123t67 -155l18 -39q32 -66 38 -80q24 -52 35 -78t35 -76q12 -25 38 -75q4 -8 4 -14v-2q0 -1 0.5 -3.5t0.5 -3.5 q4 -29 8 -87q0 -12 1 -38t2 -38q1 -26 1 -78t1 -78q2 -111 6 -167l6 -81l3 -42q0 -4 1 -12.5t1 -12.5q1 0 2.5 -2t2.5 -2l2 -1q1 -1 2 -1z" />
<glyph unicode="Z" horiz-adv-x="927" d="M804 75q11 -2 17 -11.5t4 -20.5t-11.5 -17t-19.5 -4l-30 3h5q-3 0 -10 -0.5t-10 -0.5t-10 -0.5t-11 -0.5q-8 0 -26 2q-5 1 -15 1h-52q-9 0 -27 -0.5t-27 -0.5q-38 0 -57 -1l-54 -3q-58 -2 -85 -4q-29 -2 -83 -4q-14 -1 -42 -2t-42 -2q-47 -2 -94 3q-9 1 -17 11 q-6 8 -4 20q0 1 0.5 1t0.5 1q0 8 2 20q0 3 1 7.5t2 6.5q1 5 2.5 14t2.5 14q9 40 21 82q16 54 25 81q14 46 30 86q2 6 13 35t17 44q11 27 35 79q15 35 34 82q11 28 35 82q6 13 17 38.5t16 38.5q7 15 19.5 44t14.5 33q30 67 37 82q12 26 38 78q24 50 37 74q2 5 6.5 12t7.5 13 l6 12q3 7 9.5 20.5t10.5 20.5q14 28 21 41q3 6 10 18.5t11 18.5q7 13 21 38.5t21 38.5q5 9 14.5 28t14.5 28h-15q-49 0 -149 2q-89 2 -175 6q-70 3 -84 2q-62 -2 -93 -2q-11 0 -19 7.5t-8 18.5t8 19t19 8q27 0 81 2q6 0 18 0.5t18 0.5q28 0 42 -1q13 0 40 -2t41 -2 q13 0 38.5 -1t37.5 -2q56 -2 167 -2h84q54 0 80 3q10 1 19 -8q8 -8 8 -19q0 -1 -0.5 -2t-0.5 -2q2 -4 2 -5q3 -9 -2 -20q-6 -11 -11 -22q-6 -14 -17.5 -40.5t-17.5 -39.5q-30 -69 -37 -85q-41 -88 -71 -158q-44 -106 -65 -159q-5 -12 -27.5 -70.5t-35.5 -89.5 q-29 -71 -37 -88q-6 -14 -18.5 -40t-18.5 -40q-36 -79 -66 -151q0 -1 -1 -3q-40 -94 -66 -162q-13 -35 -28 -77q-2 -7 -6 -19t-6 -19l-6 -18q0 -1 -1 -4t-1 -5l57 3t58 3q14 1 42 1.5t42 1.5q26 2 82 4h40q7 0 20.5 0.5t20.5 0.5h20h20q17 0 25 -1q10 -2 14 -2q26 0 38 1 q9 1 28 -1q2 0 9.5 -0.5t11.5 -1.5zM244 142q7 22 23 66q14 39 55 138q40 96 72 169l36 78l33 75q13 29 23 55q5 14 16 40.5t16 39.5q5 14 16 42.5t17 42.5q27 70 69 168q48 108 73 162q17 37 34 77q4 10 12.5 30.5t13.5 30.5q-6 0 -18.5 -0.5t-18.5 -0.5q-20 -40 -79 -150 q-28 -50 -41 -76q-7 -12 -19 -37t-19 -38t-21 -39.5t-21 -40.5q-13 -26 -37 -78q-25 -52 -71 -158l-33 -78q-4 -8 -11 -23.5t-12.5 -28t-9.5 -23.5q-22 -56 -34 -84q-4 -8 -11 -23.5t-13 -28.5t-10 -25q-42 -106 -60 -160q-18 -56 -33 -111q-10 -38 -14 -57 q-1 -4 -2.5 -13.5t-2.5 -14.5q0 -1 -1 -2.5t-1 -2.5q16 -1 49 -1h10q0 11 3 15l1 1q5 12 12.5 36t8.5 28z" />
<glyph unicode="[" horiz-adv-x="491" d="M361 34q11 1 19.5 -6.5t9.5 -18.5q2 -11 -7 -19q-6 -7 -18 -9q-4 -1 -18 -3.5t-21 -3.5q-11 -1 -33 -1q-45 0 -77 5q-35 6 -55 14q-2 1 -6.5 3t-6.5 3q-7 3 -13 8q-12 10 -16 23q-3 8 -5 34q-2 28 -4 84q-6 176 -6 178q-2 88 0 353q1 67 0 189.5t-1 161.5q0 120 1 180 q2 95 6 187q0 8 3 14q1 1 2 2.5t2 2.5l5 5l3 9q5 10 15 13q89 23 105 26l45 9q24 5 48 6h1q11 0 19 -7t9 -18t-6.5 -19t-18.5 -9q-17 -1 -51 -7q-6 -1 -16.5 -3.5t-14.5 -3.5q-1 -15 -3.5 -45.5t-3.5 -45.5q-4 -74 -8 -218q-2 -59 -4 -173q-1 -61 -5 -183q-2 -58 -2 -173 q0 -86 3 -171q1 -29 3 -88t3 -88l6 -174q0 -21 -16 -27q11 -2 35 -4q29 0 44 1q4 1 12.5 2t12.5 1t12 2t12 2zM169 48l-1 1v1v-1zM180 532q0 29 2 174q2 61 4 183q0 29 2 86.5t2 86.5l6 177q3 83 9 165q-10 -2 -41 -11q-1 -15 -2.5 -44t-1.5 -43q0 -12 -1 -36t-1 -36 q-1 -46 -1 -138q-1 -67 0 -189.5t1 -161.5q0 -28 -1 -84t-1 -84q-1 -58 1 -174t4 -174q1 -15 2 -45.5t1 -45.5q0 -7 1 -21t1 -21q0 -5 0.5 -14t1 -16.5t1.5 -14.5q0 -1 1 -3q12 -6 18 -8q4 -2 16 -4q-8 6 -8 17q-1 27 -3 78.5t-3 78.5l-6 153q-2 59 -4 169z" />
<glyph unicode="\" horiz-adv-x="862" d="M753 72q8 -24 8 -29q0 -10 -3 -15q-3 -7 -11 -13q-11 -8 -26 -8q-24 -2 -36 0q-3 1 -10 2t-10 1t-10.5 2t-11.5 2q-1 0 -5 1t-5 1q-7 1 -23 7q-6 2 -9 6q-5 -5 -9 -6q-11 -4 -21 1t-14 15q-31 82 -55 142q-36 94 -53 141q-27 75 -58 167q-19 55 -55 167q-18 55 -52 165 q-3 10 -20.5 69.5t-27.5 90.5q-18 56 -38.5 118.5t-45.5 138.5t-39 118l-1 2v2q-9 9 -10 18q-2 11 7 20q7 9 18 9q43 0 56 2q10 2 15 4q6 2 8 2q5 0 7 -1q2 1 7 1q19 0 26 -18q13 -40 56 -159q18 -54 28 -81q13 -38 30 -79q36 -89 65 -166q21 -55 61 -165q4 -11 24.5 -68.5 t32.5 -88.5q11 -27 32 -81t32 -81q36 -93 66 -163l33 -78q30 -72 32 -76zM696 60h4q-3 9 -11 27q-6 13 -17 39.5t-16 39.5q-6 15 -18 42.5t-14 33.5q-22 53 -64 159q-11 27 -32 81t-32 81q-12 31 -32 87t-27 76q-20 55 -62 165q-24 65 -31 82q-20 52 -30 77q-22 54 -32 81 t-28 81q-9 25 -26 74t-26 73q-17 -5 -32 -6q17 -52 50.5 -154t50.5 -154q18 -55 52 -165q8 -28 24.5 -83t25.5 -82q11 -36 53 -161q31 -92 58 -167q40 -112 61 -167q47 -121 59 -152q3 4 8 5q9 4 21 -1q1 0 1 -1l2 -1q5 -1 10.5 -2t12.5 -2t11 -2t13 -2.5t13 -1.5zM707 39v2 v-2z" />
<glyph unicode="]" horiz-adv-x="458" d="M355 1292q1 -13 1 -39q0 -7 -0.5 -22t-0.5 -23q-4 -113 -7 -173q-3 -57 -7 -185q-1 -29 -3 -87.5t-3 -87.5q-4 -116 -5 -174q-1 -29 -1 -87q0 -14 -0.5 -42t-0.5 -42q0 -30 0.5 -90t0.5 -90q0 -57 -2 -86q-2 -27 -5 -40q-9 -34 -27 -42q-10 -4 -15 -4q-2 0 -7 0.5t-8 0.5 q-1 0 -3.5 0.5t-3.5 0.5q-15 0 -22 1q-16 1 -33 6q-2 1 -16 5t-21 7q-10 4 -13.5 15t1.5 21q6 11 15 14q9 4 21 -1q3 -1 7.5 -3t6.5 -3q2 0 5 -1t4 -1q1 25 3 73t3 73q3 78 3 155q0 29 1 86.5t1 86.5t-0.5 87.5t-0.5 87.5v88q0 26 -2 80q-1 15 -2 45.5t-1 46.5q-1 27 -1 81 q0 57 2 173q0 19 1 54t1.5 63.5t0.5 53.5q-2 0 -5.5 -0.5t-5.5 -0.5q-14 -1 -40.5 -2.5t-39.5 -2.5q-11 -1 -19.5 6.5t-9.5 18.5t6.5 19.5t18.5 9.5q14 1 42 2.5t42 2.5q6 1 18.5 2t18.5 1q7 1 23 1q19 0 34 -7q2 -1 5.5 -3.5t4.5 -3.5q2 -1 5 -4q3 -1 4 -4q10 -10 13 -17 q8 -16 10 -25q4 -18 5 -28q0 -1 3 -47zM274 77q1 17 1 99v73q0 -17 -2 -51l-3 -84q-2 -27 -4 -81l1 -1h2q3 9 5 45zM300 1168q2 58 2 86v42q-2 36 -5 52q-1 3 -3 8.5t-3 8.5q-1 1 -2 3t-2 3t-3.5 2.5t-3.5 2.5h-2q-1 1 -2 1h-1q0 -53 -2 -157q-2 -106 -2 -158v-89 q0 -1 3 -85q1 -26 1.5 -55t1 -64.5t0.5 -54.5q1 -56 1 -167q0 15 1 47t2 47q1 38 4.5 158t6.5 185q6 120 8 184z" />
<glyph unicode="^" horiz-adv-x="563" d="M459 1024q3 -7 1 -15q0 -1 -1 -3t-1 -3q-6 -11 -16 -14q-11 -3 -20 1q-13 6 -14 15q-4 17 -13 64q-2 9 -5.5 26.5t-5.5 26.5q-14 63 -29 109q-12 36 -19 53q-8 22 -13 32l-12 -33q-4 -10 -10.5 -31.5t-9.5 -32.5q-18 -54 -20 -61q-23 -72 -41 -144q-3 -12 -11 -17 q-8 -6 -19 -4h-9q-18 4 -43 11q-1 0 -3.5 0.5t-3.5 1.5l-12 4q-4 2 -12 8q-7 7 -10 16q-5 13 -5 25q0 7 2 21q3 35 15 81q2 6 24 76q14 45 23 77q4 14 6 20q5 16 8 22q6 10 10 14q12 12 23 17q14 6 16 6q15 4 26 5q3 0 8.5 1t8.5 1t9.5 1t10.5 2q1 1 4 1h5q1 0 4 0.5t4 0.5 t2 0.5t2 0.5t5 -0.5t5 -0.5q18 -3 22 -23l3 -3q6 -5 18 -29q17 -35 31 -76q6 -15 25 -83q11 -40 21 -88q2 -6 4.5 -19t3.5 -20q1 -6 3.5 -18t3.5 -18v-2zM270 1327q1 3 3.5 10t4.5 10q-18 -2 -29 -4q-5 -1 -15 -5l-1 -1l-1 -1l-3 -3q-1 -2 -2.5 -6t-2.5 -6q-3 -9 -8.5 -29 t-8.5 -29q-4 -11 -11 -32.5t-10 -32.5q-25 -77 -30 -133v-8q4 -1 13.5 -3.5t14.5 -3.5l9 33q10 38 49 160q2 7 6.5 20.5t6.5 20.5q1 3 6 19t9 24z" />
<glyph unicode="_" horiz-adv-x="1087" d="M982 87q4 -22 2 -30q-3 -10 -8 -16q-4 -6 -10 -10q-12 -10 -24 -13q-1 0 -20 -3q-42 -3 -83 -3q-56 0 -83 -1q-14 -1 -42.5 -2t-42.5 -1q-57 -2 -171 -4q-120 -4 -180 -3l-189 3q-11 0 -19 7q-9 9 -10 18q-1 10 6 19q-2 12 -2 19q0 19 1 23q3 9 8 15q3 4 7 7l2 2l12 6 l15 3q1 0 5 0.5t5 0.5q6 1 16 1q51 4 79 5q52 2 156 2h84q11 0 33 0.5t33 0.5h15q28 0 84 -0.5t84 -0.5t86 -2q62 -4 93 -7q19 -3 20 -3q17 -4 24 -11q2 -2 5 -5.5t4 -4.5t2 -4t2 -5l1 -1v-2zM907 68q11 0 16 1q-4 1 -12.5 2t-12.5 1q-6 0 -17 1t-16 1q-7 0 -22 1t-22 2 q-29 1 -86 1h-82q-15 0 -44 0.5t-43 0.5t-41.5 -0.5t-41.5 -0.5h-39h-33h-29.5h-35h-29.5t-42.5 -1t-42.5 -2l-39 -3q-5 0 -16 -1t-17 -1q0 -9 1 -13q13 0 40 -0.5t40 -0.5q113 -2 170 -1q29 1 87.5 2t87.5 2q2 0 172 6q29 1 87 1q7 0 20.5 0.5t19.5 0.5q3 0 11 0.5t11 0.5z M931 67l1 1h-1v-1zM932 73z" />
<glyph unicode="`" horiz-adv-x="466" d="M358 1308q10 -10 7 -24q-3 -15 -13 -21q-12 -7 -25 -4q-11 3 -25 11q-22 14 -32 23q-10 8 -28 26q-9 9 -25 27q-9 10 -26 29t-26 28l-24 27q-16 18 -23 29q-10 15 -14 30q-3 17 2 30q7 15 27 28q13 8 41 18q20 6 31 6q1 0 3 -0.5t3 -0.5q25 -3 37 -23q5 -7 12 -20.5 t9 -16.5q35 -63 41 -74q10 -18 27 -51.5t23 -43.5q5 -7 5 -13q0 -1 -0.5 -4t-0.5 -4q-1 -5 -6 -12zM155 1496l1 1h-1v-1zM287 1350q10 -10 15 -14q-22 42 -46 86q-4 9 -14 25.5t-14 24.5q-2 4 -6 11.5t-6 10.5q-8 16 -13 23q-1 0 -3 -1q-22 -6 -33 -11q-1 -1 -5 -3.5 t-5 -3.5l1 -1q11 -19 47 -58l48 -54q22 -24 34 -35z" />
<glyph unicode="a" horiz-adv-x="909" d="M807 47q3 -10 -2.5 -20t-16.5 -13q-2 -1 -7 -1q-21 0 -26 20q-4 15 -10 45v3q-1 8 -5 22q-4 16 -5 24q-6 33 -18 101q-12 69 -26 175q-2 13 -5 40t-4 40q-3 32 -11 85q-3 24 -14 96q-1 4 -2.5 14t-2.5 14h-1h-1q-2 0 -6 -0.5t-7 -0.5q-1 0 -5 0.5t-6 0.5h-5h-28h-4 q-35 0 -52 -1h-6l-5 -1q-16 -1 -48 -1h-5q-7 0 -23.5 0.5t-27.5 0.5q-1 -5 -3.5 -15t-3.5 -16l-3 -20q-27 -138 -30 -155q-23 -127 -30 -171l-3 -20q-2 -13 -10.5 -64t-11.5 -79q-8 -62 -11 -94q0 -6 -4 -14l-3 -4l-1 -1q-8 -8 -19 -8q-6 0 -9 1q-7 -2 -25 -4q-1 0 -4 -1 t-4 -1q-28 -4 -38 -4h-3q-6 0 -19 2t-16 2h-1h-1q-4 0 -11 1t-11 2q-8 2 -14 4t-15 9q-5 4 -9 9q-4 10 -5 15q-1 4 -1 10v1q0 1 -0.5 4t-0.5 4q0 7 2 17q6 42 7 45l4 25q4 23 11 58q0 4 2 11t2 11q2 10 5.5 30.5t5.5 30.5q3 14 8.5 42.5t8.5 42.5q4 18 12 53t11 53 q2 10 6.5 31t6.5 31q2 7 4 21t4 21t4.5 20t3.5 19q10 48 18 83q2 10 7 29.5t7 28.5q8 37 26 111q40 159 42 167q2 5 5 14.5t4 14.5q3 9 7 26t7 26q5 19 13 57l6 24q2 10 6.5 30.5t7.5 30.5q5 19 13.5 56t12.5 56q-2 4 -2 11q0 11 8 19t19 8h18h40h4h28h6q21 0 33 -5 q6 -1 12 -7l4 -4v-1l3 -6q10 -6 13 -17q3 -13 9.5 -39.5t9.5 -40.5q2 -12 7.5 -35t8.5 -35l12 -54q12 -44 20 -84q3 -13 7 -38.5t5 -29.5q1 -3 2 -8.5t1 -8.5t1 -8t1 -8l1 -7q0 -1 0.5 -3.5t0.5 -4.5q1 -2 1 -6v-1l1 -9q0 -1 0.5 -2t0.5 -2q1 -2 1 -6q1 -8 3 -24.5t3 -24.5 l3 -33q14 -102 26 -170q3 -15 7.5 -45.5t4.5 -33.5l2 -10q2 -15 6 -44.5t6 -44.5q1 -9 3.5 -29t3.5 -29q4 -36 14 -110q13 -94 25 -162l2 -7q10 -60 13 -75q6 -26 8 -39q4 -21 9 -39zM637 745h6q-1 3 -1 9.5t-1 9.5q-1 8 -3.5 24t-3.5 24q-1 7 -3 20t-3 20l-9 72l-2 16l-1 8 q0 3 -1 8t-1 7q-1 2 -1 7v5l-1 2q-1 2 -1 6v1v4q-1 7 -3.5 22t-3.5 23q-6 34 -17 86q-8 38 -13 57q-1 5 -3.5 14t-3.5 14q-8 34 -18 81q-4 -19 -11.5 -56.5t-11.5 -56.5l-3 -15q-22 -116 -32 -158q-8 -36 -24 -106q-2 -12 -7.5 -35t-8.5 -34q-12 -52 -18 -80q7 0 21 -0.5 t21 -0.5h4h1q32 0 48 1h3q40 2 61 2h30l4 -1h11z" />
<glyph unicode="b" horiz-adv-x="933" d="M330 1434h14q25 0 69 -2q20 -1 42 -3l1 -1q2 0 20 -2t27 -4l4 -1q9 -1 35 -8q26 -8 40 -14q48 -19 81 -40q39 -26 73 -56l9 -9t9 -8q10 -10 13 -14l3 -4q15 -18 24 -33q23 -38 30 -65q4 -15 6 -32q1 -7 1 -24q-2 -20 -6 -44q-8 -45 -22 -84q-9 -25 -19 -44 q-19 -35 -28 -48q-19 -24 -23 -28q-7 -7 -23 -19q-23 -16 -33 -21q-17 -9 -45 -19q-7 -3 -39 -12q-31 -8 -40 -9q-5 0 -14 -2t-13 -2q-1 0 -3 -0.5t-3 -0.5q-5 -1 -15 -1q19 -5 57 -19q7 -3 42 -19q20 -10 37 -21q18 -11 38 -28q11 -9 30 -30q31 -34 55 -71q21 -32 40 -80 q16 -41 17 -45q11 -41 10 -80q0 -12 -2 -44q-1 -17 -6 -50q-2 -17 -8 -41q-8 -29 -12 -40q-11 -28 -24 -54q-14 -26 -35 -49q-2 -2 -6 -6.5t-7 -7.5t-6 -5q-15 -13 -23 -18q-17 -11 -47 -26q-7 -4 -23 -10l-4 -2q-4 -2 -14 -6q-25 -8 -42 -12q-30 -6 -45 -8q-53 -8 -92 -12 q-77 -6 -86 -6h-26q-40 0 -57 1q-37 1 -95 9q-6 0 -14 4l-4 3h-2q-11 0 -19 8q-6 6 -8 19q-2 23 -4 73v2q-1 27 -3 75l-3 42l-3 36q-2 42 -3 62v16q-2 48 -2 144v26v10q0 108 1 161q1 94 1 282v65v15q0 101 -1 152q-1 66 -5 197q0 11 8 19t19 8q9 0 17 -6v1l1 1q6 6 19 8h4 q3 0 9.5 0.5t9.5 0.5t9 0.5t9 0.5q6 1 20 1.5t21 0.5q3 1 9.5 1t9.5 1q50 5 63 5zM283 830q32 -1 90 -1h39q26 0 62 2q22 1 52 5l2 1q22 3 23 3q5 1 14.5 3.5t13.5 3.5q5 1 16 4t13 4q3 1 9.5 3.5t9.5 3.5l3 1h1q10 4 15 7q9 5 34 22q21 19 27 26q18 26 26 42q1 1 1 2.5 t1 2.5q1 2 3.5 6.5t3.5 6.5l6 14q12 34 16 51l1 6q7 31 11 52q1 18 0 34q-3 24 -10 40q-6 12 -16 29l-14 21q-15 19 -32 34q-19 17 -38 32q-21 17 -42 29q-38 20 -47 24l-3 1q-37 14 -50 17q-32 8 -56 11q-38 4 -76 6q-7 0 -23 0.5t-25 0.5h-27q-5 0 -35 -3v-4q4 -59 5 -86 q2 -58 2 -89v-25q0 -9 0.5 -28t0.5 -29v-13q1 -21 1 -65q0 -26 -2 -84q-1 -8 -1 -23t-1 -23q-1 -6 -1 -18.5t-1 -18.5q-2 -24 -2 -41zM288 44q11 -1 29 -1h9q66 1 146 11q44 6 74 12q35 8 40 10l5 2q2 1 7 2t7 2t6.5 3t6.5 3l4 2q47 25 57 32q19 16 36 36q16 22 24 40l4 8 l3 8v1q1 2 4.5 10t4.5 13q7 22 8 29q1 4 3 13t3 13v2l3 18v1v-1q8 69 3 112q-4 22 -7 32q-2 6 -5 13l-1 3q-3 9 -8 20q-5 12 -13 30q-4 9 -14 25l-1 3q-5 8 -33 48q-23 28 -33 38q-9 9 -34 29q-23 16 -39 25q-20 11 -36 17q-46 18 -108 32q-45 11 -104 19q-22 2 -34 3h-2 q-14 2 -21 2q0 -42 -1 -63q0 -15 -2 -41t-2 -38q-1 -23 -1 -70v-14v-168q0 -96 4 -171q0 -11 2 -32t2 -32l1 -17q1 -6 1 -18.5t1 -18.5v-3v-14q0 -4 0.5 -10t0.5 -10z" />
<glyph unicode="c" horiz-adv-x="978" d="M430 1437q35 7 64 7q20 0 33 -1l27 -3l3 -1q11 -1 28 -5q30 -6 59 -19q31 -14 48 -27q20 -15 41 -39l11 -12l5 -6l9 -12q0 -1 2 -2.5t3 -2.5v-1q0 -1 5.5 -6.5t7.5 -9.5q3 -6 4 -7q0 -1 4 -5.5t6 -7.5l7 -11l7 -11q30 -45 45 -101q11 -39 13 -62q2 -19 0 -58 q0 -11 -8 -19t-19 -8q-13 0 -20 9q-7 7 -7 18q2 38 0 59q-8 45 -24 85q-14 30 -25 47l-13 20q-2 4 -8 11.5t-8 11.5l-4 6q-37 47 -63 69q-19 13 -44 24q-35 14 -62 18q-3 1 -9.5 2t-9.5 1l-25 2h-1h-1q-17 -14 -32 -29q-19 -19 -27 -29q-2 -3 -10.5 -13t-12.5 -15 q-1 -1 -6 -8t-7 -11q-5 -8 -8 -16q-7 -19 -15 -59l-1 -2q-7 -35 -12 -64q0 -4 -2 -11.5t-2 -11.5q-1 -7 -3.5 -20t-3.5 -20q-4 -21 -10 -60q-10 -74 -13 -160q-2 -84 -2 -127q0 -6 0.5 -18t0.5 -18v-69l1 -17v-5q0 -26 2 -78q1 -25 5 -68l2 -18q2 -33 8 -82q4 -26 11 -67 l2 -15q6 -36 10 -54q9 -44 16 -69q4 -17 10 -32q2 -5 6 -15.5t6 -15.5q1 -1 3 -6.5t4 -8.5q6 -10 10 -15l5 -5q11 -5 15 -12q4 -8 4 -13q1 0 3 -0.5t3 -0.5q8 -1 26 -1t27 1q40 6 88 25q25 11 54 32q25 20 43 44q20 28 28 42l9 18l2 3l12 27h1l3 9q5 14 8 25l1 5l9 33 q9 42 15 76q8 52 13 78l2 10q1 8 4.5 27t5.5 29v2v2q0 5 4 13l3 4l1 2q8 8 19 8t19 -8q9 -9 8 -19q-1 -7 -12 -74l-2 -14q-6 -28 -8 -42l-6 -39q-6 -30 -9 -46q-7 -33 -8 -36l-2 -7q-7 -26 -10 -34l-2 -5q-3 -11 -7 -20l-9 -21l-3.5 -7t-3.5 -8l-3 -4q-9 -17 -18 -32 q-21 -32 -39 -51q-20 -23 -47 -41q-24 -17 -51 -29q-24 -10 -56 -19t-62 -12q-7 -1 -21 -1q-20 0 -41 3q-60 9 -114 50q-32 25 -45 41q-20 25 -34 47q-31 51 -59 130q-34 96 -52 168l-2 7l-9 36q-2 8 -4.5 22t-3.5 21q-10 56 -13 88l-1 10q0 6 -1.5 17.5t-2.5 17.5 q-2 16 -4 48q-4 52 -5 77l-1 10q-3 47 -3 87q0 19 2 85q0 2 0.5 7t0.5 7q0 19 1 29l1 24l2 24q1 5 2 15.5t1 15.5q1 4 1 13q0 4 6 38q1 2 1 5.5t1 5.5q7 48 29 96q13 28 32 54q13 18 40 43q52 49 99 75q57 32 109 43z" />
<glyph unicode="d" horiz-adv-x="915" d="M138 1420q8 6 16 6q5 0 11 -3h1q3 0 8.5 0.5t8.5 0.5h6q16 0 37 -3q16 -2 33 -6q7 9 20 9q24 0 27 -23q20 -8 44 -20q29 -15 69 -43q3 -2 9 -6.5t9 -6.5q2 -2 8 -5.5t8 -5.5l4 -2q11 -7 31 -23q21 -15 36 -29q10 -9 28 -29l1 -1q26 -30 54 -64q31 -37 57 -74 q21 -29 44 -70q24 -44 37 -75q11 -25 18 -45q2 -6 5.5 -18t5.5 -17l1 -2q5 -16 13 -44q1 -4 3 -13t3 -13q0 -3 2 -7.5t2 -6.5q6 -23 9 -43q4 -27 5 -48q1 -34 -4 -82v-3q-4 -32 -6 -47q-1 -5 -3 -17t-3 -17l-1 -8q-9 -44 -20 -80q-8 -26 -14 -44q-5 -15 -19 -43 q-5 -10 -17 -30l-3 -6l-4 -6q-2 -4 -8 -14.5t-9 -15.5q-1 -1 -2.5 -3t-1.5 -3q-1 -2 -4 -7t-5 -7l-15 -20q-4 -6 -30 -34l-1 -1q-31 -33 -61 -59q-58 -45 -77 -59q-6 -5 -33 -19l-4 -2q-12 -6 -38 -16l-7 -3q-45 -19 -82 -28q-17 -4 -45 -8q-11 -2 -41 -4q-29 -2 -91 -4h-10 h-1q-21 0 -26 21q-7 7 -8 19q0 9 -0.5 26.5t-1.5 26.5q0 5 -0.5 14.5t-0.5 14.5q-1 12 -2 35.5t-2 34.5l-1 11q0 6 -1 18.5t-1 18.5q0 7 -1 22.5t-2 23.5q0 5 -0.5 15t-0.5 14v11q0 6 -0.5 19t-0.5 20q-1 44 -1 131q0 6 0.5 18t0.5 18v100q0 11 0.5 33t0.5 33v35v50 q0 18 4 84q4 60 10 170q5 89 7 173q1 38 1 115q0 9 0.5 26t0.5 26q-6 6 -7 11q-3 11 3 20q5 8 15 12zM303 202q6 -67 9 -137q5 1 13 3q24 6 35 10q9 3 19.5 7t22 9t17.5 7l5 2q3 1 9.5 3.5t9.5 4.5q1 1 2.5 2t2.5 1q1 1 4 2.5l5 2.5l13 7q7 5 36 26l7 5q5 4 15.5 12.5 t15.5 12.5t10 9t11.5 10.5t9.5 8.5q33 33 54 58q14 19 19 27q14 22 21 34q12 20 34 62l6 18q5 12 9 27l3 9q7 22 11 38q10 41 19 97q6 43 7 70v11v14v13q0 11 -2 31q-2 16 -4 23q-1 4 -3 11.5t-3 11.5l-1 3l-12 51q-2 6 -12 38l-3 10q-5 13 -17 46q-26 63 -50 100 q-13 21 -33 52q-6 9 -28 38l-5 6q-27 35 -60 72h-1q-30 33 -31 34q-8 8 -32 28q-5 4 -15.5 11t-15.5 11l-10 7q-3 2 -7 5.5t-7 4.5q-4 3 -13.5 9.5t-13.5 9.5q-36 25 -74 42q-1 -15 -2 -45.5t-1 -45.5l-1 -27q-1 -15 -2 -45t-2 -45q-1 -12 -2 -35.5t-1 -35.5q-1 -15 -1 -45 q0 -6 -0.5 -17.5t-0.5 -17.5q0 -16 -2 -48t-2 -47q-4 -99 -5 -167t-1 -178q0 -20 2 -56q0 -4 0.5 -13t0.5 -13t0.5 -11.5t0.5 -11.5q0 -7 0.5 -20t1 -24t1.5 -21q0 -7 1.5 -21.5t2.5 -21.5q1 -8 2 -23.5t1 -23.5q1 -13 3.5 -40.5t3.5 -41.5z" />
<glyph unicode="e" horiz-adv-x="858" d="M796 1425h1q10 0 18 -8.5t8 -18.5q0 -11 -8 -19t-19 -8q-15 -1 -44.5 -2t-32.5 -1h-34h-18h-19h-41h-103q-96 0 -177 -4q-7 0 -21 -1t-21 -1l-17 -1q1 -33 1 -96v-106q0 -10 0.5 -30.5t0.5 -30.5q0 -57 -1 -88q-1 -10 -2 -32t-1 -32v-21q-2 -52 -2 -85q0 -7 -0.5 -20.5 t-0.5 -20.5t-0.5 -21t-0.5 -22v-2v-1q0 -1 1 -1t2 -1q22 2 84 5.5t100 6.5h1q10 0 18 -8t8 -19t-8 -19q-6 -6 -19 -8q-50 -4 -187 -12v-26v-6q0 -51 1 -76q2 -35 7 -175q0 -10 1 -29.5t2 -29.5q0 -5 0.5 -13t0.5 -13l1 -11q3 -57 4 -68l1 -9q6 -38 6 -40q4 -36 5 -52 q1 -7 3 -47q0 -3 0.5 -9t0.5 -9v-14q24 2 37 2h20q6 0 19 1t20 1q4 0 12.5 1t12.5 1q16 1 50 2t50 2q10 0 32 1t33 2q88 5 168 12l3 1h1q10 0 18 -8t8 -19t-8 -19q-7 -7 -19 -8q-26 -2 -110 -9q-60 -4 -95 -5l-10 -1q-34 -1 -89.5 -4t-80.5 -4q-12 -1 -35 -1q-16 -1 -50 -3 q-52 -4 -82 -8q-5 -1 -13.5 -2.5t-12.5 -1.5q-2 -1 -8 -1q-5 0 -7 1l-6 3q-10 7 -13 16t3 20l-4 4q-8 8 -8 19q-2 32 -4 96q0 6 -1 18t-1 18l-3 69q0 6 -1 19t-1 19q0 4 -0.5 13t-0.5 13q-1 5 -1 16.5t-1 17.5q-1 9 -2 27.5t-1 27.5q-1 19 -3 84q-1 26 -1 160v17v21 q0 101 1 151q0 4 0.5 12t0.5 13q1 21 1 63v84q0 30 -2 90q-1 7 -1 22t-1 23q-1 6 -2 18.5t-1 18.5l-3 87q-1 31 -1 104q0 11 8 19t19 8q10 0 16 -5h2h6v1l6 1q41 10 77 14h2q9 0 17 -8l3 -3q6 0 17 1t17 1l12 1q60 4 149 4q24 0 73.5 0.5t76.5 0.5h19h25h25h36q36 0 88 3z " />
<glyph unicode="f" horiz-adv-x="905" d="M111 1413q5 21 27 21q9 0 14 -4h147h133h37h94h100h112q11 0 19 -8t8 -19t-8 -19t-19 -8h-97h-91h-78h-18h-185h-22q0 -23 0.5 -69t0.5 -69v-21v-42v-49.5v-42.5q0 -2 -3 -113q-1 -19 -1 -58q-2 -94 -2 -160q31 0 87 2q5 0 14.5 0.5t14.5 0.5q40 2 60 2h3q11 0 19 -8 t8 -19t-8 -19t-19 -8h-3q-21 0 -61 -2q-5 0 -15 -0.5t-15 -0.5q-27 -1 -86 -1v-45q0 -25 2 -71l1 -17q0 -7 0.5 -22t1.5 -22t1 -20t1 -20l1 -23q0 -11 1 -32.5t2 -32.5q1 -18 1 -54q0 -5 0.5 -14.5t0.5 -14.5q1 -15 1 -44t1 -43v-20q0 -10 0.5 -32t0.5 -32v-23l1 -17v-4 q0 -24 1 -36q1 -10 -8 -19q-4 -3 -8 -5q-5 -12 -17 -15q-18 -4 -54 -8q-11 -1 -43 -5l-16 -1h-1q-10 0 -18 8t-8 19q0 5 6 15q0 1 -1 3q-2 16 -7 107q-1 8 -1 23.5t-1 23.5q-1 10 -2 29.5t-2 29.5q-1 15 -3 46.5t-3 47.5q-4 80 -6 170q-2 91 0 175q1 94 6 173q0 11 1.5 41 t2.5 46q1 25 1 74v13q0 117 -1 169q0 12 -0.5 38t-0.5 38q0 16 -0.5 49t-0.5 50q-1 3 -1 8q0 7 1 10z" />
<glyph unicode="g" horiz-adv-x="907" d="M363 1393q27 5 52 5h19q7 0 40 -3q1 0 3 -0.5t3 -0.5l3 -1h4q1 0 3 -0.5t3 -0.5q4 0 6 -1h1q1 0 3 -0.5t3 -0.5h2q6 -1 21 -5q19 -5 42 -12q29 -11 56 -32q12 -10 20 -18q17 -17 30 -34q15 -18 24 -34q5 -8 23 -39q25 -45 39 -82q6 -17 20 -74l2 -10q11 -49 13 -94 q0 -11 -7 -18q-9 -9 -20 -9t-19 8t-8 19q0 16 -1 24l-1 7q-1 10 -5 32q-6 28 -9 41q-1 3 -4 16t-5 21q-3 11 -11 31v1q-14 30 -36 70q-15 27 -40 60l-2 3q-8 10 -14 16q-16 16 -24 22q-19 14 -34 20q-29 11 -64 18h-3l-2 1h-5l-2 1h-4l-2 1h-2h-5q-25 3 -54 3h-2 q-1 -1 -11 -11.5t-15 -17.5q-19 -28 -29 -51q-13 -32 -18 -57q-4 -20 -6 -29q-1 -4 -3 -16t-3 -19q-1 -11 -3 -32t-3 -32l-1 -16l-1 -5l-6 -78q-5 -80 -6 -177q0 -16 0.5 -45t0.5 -43q0 -29 4 -83v-5l3 -42q0 -7 1 -20.5t2 -19.5v-2q4 -56 7 -84q15 -143 19 -171 q7 -53 18 -101l1 -5q2 -14 4 -19q1 -3 2.5 -8t2.5 -8l3 -10v-3l3.5 -10.5t3.5 -11.5q1 -3 3.5 -8.5t3.5 -8.5l-1 1q1 -3 4.5 -10.5t5.5 -11.5q1 -3 10 -14q2 -3 7 -8h4q11 0 16 1q28 4 40 8q28 9 36 13q48 25 68 40q7 6 39 35q2 2 7 6.5t8 6.5q12 10 23 23l15 18l1 2 q14 18 18 26q1 1 1 2t1 2q2 3 6 11l3 7l3 7q1 4 6 15.5t7 18.5q2 5 3.5 11t3.5 14.5t3 14.5q8 32 9 39q1 6 2.5 17t2.5 16q9 78 8 136q0 33 -3 72q0 2 -0.5 7t-0.5 8q-3 43 -3 44q-6 2 -18 4l-3 1q-2 0 -6.5 1t-6.5 2q-3 0 -10.5 1.5l-12.5 2.5t-14.5 1t-13.5 1 q-3 0 -8.5 0.5t-8.5 0.5q-2 0 -55 6q-11 2 -16 12q-6 9 -3 21q3 10 12 16q8 4 14 4q1 0 3 -0.5t3 -0.5q36 -4 56 -5q34 -2 61 -7q11 -2 29 -6q24 -6 35 -15q6 -5 10 -14q1 -2 4 -10q2 -8 2 -11q1 -8 2 -24t1 -17q0 -2 0.5 -5.5t0.5 -5.5v-6q4 -52 4 -78q0 -47 -3 -86 q-3 -44 -10 -87q-2 -12 -9 -41l-1 -6q-2 -6 -4 -17t-4 -16q-8 -24 -16 -44q-2 -5 -6 -13.5t-4 -9.5l-1 -2q-1 -3 -3.5 -7.5t-3.5 -5.5l-3 -5q-3 -5 -24 -34l-3 -5q-15 -18 -28 -30q-3 -2 -8.5 -8t-8.5 -8q-2 -2 -6 -5.5t-6 -5.5q-29 -27 -50 -42q-15 -10 -47 -28 q-3 -2 -23 -11q-1 -1 -3.5 -2t-3.5 -1q-3 -1 -8.5 -3.5t-8.5 -3.5q-14 -5 -44 -11l-4 -1q-30 -5 -36 -5h-2q-32 0 -71 12l-6 2q-3 1 -25 9q-12 4 -26 11q-12 6 -25 17q-40 32 -71 80l-3 4q-9 15 -19 34l-2 3q-22 44 -29 76q-6 25 -17 93l-1 6q-8 45 -9 87q-1 10 -1 29 q-1 10 -2.5 30t-1.5 29q-2 30 -4 94q-1 26 -3 80q-2 52 -2 89q0 7 -0.5 20.5t-0.5 20.5v41v86v4v15v72q1 41 9 88q1 4 2.5 11.5t1.5 10.5l1 5q4 22 8 31q12 26 14 30q1 2 3.5 5.5t3.5 5.5q1 3 4 8.5t5 7.5l2 2q27 43 56 71q20 20 38 32q24 16 53 27q16 7 59 16z" />
<glyph unicode="h" horiz-adv-x="948" d="M788 1427q8 8 19 8t19 -8t8 -19q0 -52 -2 -150q-1 -47 -5 -124l-1 -29q-2 -58 -2 -88q0 -17 -0.5 -45t-0.5 -40q0 -33 4 -89q2 -30 2 -87q1 -45 1 -135v-38v-85v-15q0 -43 1 -65q3 -80 3 -86t1 -17t1 -17q0 -9 1 -26t2 -26l1 -37l6 -132q0 -11 -7 -18q-7 -9 -19 -9t-20 8 q-7 7 -7 19q-1 17 -3.5 66t-3.5 78q-2 50 -4 75q-2 24 -4 70q-2 52 -2 82v56v24v41v128q-1 0 -2.5 -0.5t-2.5 -0.5q-41 0 -109 2q-27 1 -85 1q-97 0 -188 -3q-15 0 -44 -1t-43 -1q0 -6 0.5 -18.5t0.5 -18.5q0 -57 1 -85q0 -23 1 -34q2 -34 2 -52q1 -22 1 -67l1 -19 q2 -115 6 -171q1 -8 2 -24.5t1 -24.5l3 -39q0 -3 0.5 -8.5t0.5 -8.5q0 -8 2 -24v-5q0 -2 0.5 -7.5t0.5 -8.5v-5q0 -1 0.5 -3.5t0.5 -3.5q5 -10 2 -19q-3 -10 -13 -17q-6 -3 -12 -3q-1 0 -2 -0.5t-2 -0.5q-2 0 -8 2h-23h-5q-5 0 -17 0.5t-17 0.5q-48 0 -70 1q-2 -1 -8 -1 q-11 0 -19 8q-2 2 -4 6q-4 5 -4 14v4l-2 25q-9 113 -9 119q-1 16 -1 97v49v74q0 18 -0.5 52t-0.5 52q0 77 -2 171v35q0 8 -0.5 24t-0.5 24v89q0 103 1 172q2 126 1 174q0 17 -1.5 50t-1.5 42q-1 18 -5 95q0 8 6 16l4 4q8 8 17 8h2q11 -2 33 -4.5t32 -3.5h3q3 0 11 -1t11 -2 l2 -1l15 -3h18q10 0 19 -9q5 -1 10 -6q6 -6 8 -19q7 -116 8 -151q2 -66 2 -98q0 -7 0.5 -20.5t0.5 -20.5q1 -32 1 -93q0 -8 -0.5 -26t-0.5 -27q0 -5 -0.5 -14.5t-0.5 -14.5v-39v-46v-39q0 -8 -0.5 -24t-0.5 -24q58 2 122 3q141 3 147 3q5 0 14.5 -0.5t14.5 -0.5q55 0 82 -1 q58 -2 89 -2h5q0 7 -0.5 20.5t-0.5 20.5q-2 48 -3 71l-1 16q-2 60 -2 89q0 17 0.5 45t0.5 39q2 74 4 109q2 46 3 70q3 83 3 178q0 11 8 19z" />
<glyph unicode="i" horiz-adv-x="409" d="M110 1409q7 8 19 8q11 0 18 -6q41 0 67 2q2 0 7 0.5t7 0.5q22 2 34 2h11q19 -2 25 -17q9 -9 9 -20q-2 -106 -2 -174v-49v-115q0 -22 -2 -66l-1 -16l-1 -38q-1 -9 -2 -25.5t-1 -24.5q0 -12 -0.5 -36t-1.5 -36l-3 -99q0 -18 -1 -27q-1 -19 -3 -59q-2 -58 -2 -85 q0 -34 2 -98q2 -48 2 -74v-79q0 -14 0.5 -44.5t0.5 -45.5v-14q0 -11 0.5 -34t0.5 -34v-39q0 -2 0.5 -5.5t0.5 -5.5v-28q0 -11 -8 -19t-19 -8h-3q-8 -9 -19 -9h-1h-14h-25h-12q-9 0 -28 -0.5t-29 -0.5q-11 0 -18.5 8t-7.5 19v3q0 1 -0.5 2t-0.5 2q-1 4 -1 12.5v12.5 q-3 38 -3 75v4v82v492v97v243v170q0 95 -3 177q0 11 8 19z" />
<glyph unicode="j" horiz-adv-x="931" d="M643 1413q7 6 15 6h2l30 -3t31 -3l27 -3q5 0 15 -1t15 -1q13 -2 19 -8l1 -1l1 1h2q6 0 14 -4q12 -7 13 -16q2 -6 0 -12q0 -1 -0.5 -4t-0.5 -4v-6v-2l-1 -2v-3l-1 -12l-1 -13q-2 -15 -4 -49q-1 -14 -1 -53q0 -16 2 -46v-3v-2v-4q2 -70 3 -104v-1v-5q0 -22 2 -64 q1 -27 -1 -81v-1v-1q0 -16 -0.5 -45t-1.5 -43q-1 -22 -3 -81.5t-3 -89.5v-30l-1 -10q0 -8 -0.5 -24t-0.5 -24q-2 -54 -4 -86q-3 -36 -11 -88q-8 -54 -18 -87q-13 -47 -25 -79l-2 -6q-12 -32 -16 -40l-3 -5q-10 -22 -16 -32l-4 -6q-1 -1 -3 -5t-4.5 -8t-4.5 -7 q-15 -20 -29 -36l-4 -4v-1q-2 -3 -5 -5.5t-6.5 -6l-5.5 -5.5q-21 -20 -47 -37q-21 -14 -62 -28q-21 -7 -41 -12q-22 -5 -41 -8q-26 -4 -46 -5q-4 0 -11.5 -0.5t-11.5 -0.5q-3 0 -8.5 0.5t-8.5 0.5q-41 4 -60 11q-16 5 -31 15q-8 4 -11 6l-4 3q-18 12 -26 19q-28 24 -55 73 q-11 19 -19 40q-8 20 -14 40q-11 40 -20 83q-11 53 -15 88q-3 25 -5 77l-1 1v8q-2 62 -4 85q0 8 -1 22.5t-2 21.5v1v1q-7 107 -7 140q0 11 8 19q9 9 19 9q11 0 19.5 -8.5t8.5 -19.5v-5v-7v-4v-5v-5q0 -18 1 -27l1 -25l2 -25q1 -6 1 -18t1 -18v-1l3 -48q0 -12 2 -42t3 -48 q2 -53 5 -80q6 -40 19 -100q5 -24 12 -49q6 -24 16 -46q9 -21 18 -36q1 -2 8.5 -13.5t12.5 -18.5q12 -14 21 -22q23 -17 46 -28q17 -6 36 -9q24 -2 30 -2h7h1l16 1q8 0 20 2h6q16 1 26 4q6 1 15.5 3.5t13.5 3.5l1 1h2q10 3 28 9q14 5 26 10q11 5 23 13q14 9 16 11q9 7 26 24 q6 23 7 30q5 41 5 111q0 80 -1 119q0 28 -1 42q-2 30 -2 45q0 8 -0.5 23t-0.5 23v5v4v30q-1 14 -1 43t-1 43q-1 15 -1 44.5t-1 44.5q-1 47 -1 140v31v35v137q0 33 -2 95v1q-1 24 -1 72q0 7 -0.5 21.5t-0.5 21.5v21l-1 21v63v21q0 10 7 17.5t17 9.5z" />
<glyph unicode="k" horiz-adv-x="935" d="M223 1428q2 1 8 1q5 0 7 -1l6 -3q7 -4 9 -8q6 2 8 2q11 0 19 -8t8 -19q-7 -100 -7 -147q0 -99 1 -143v-28v-33v-28q0 -7 -0.5 -22t-0.5 -23q0 -6 -0.5 -19t-0.5 -19q-1 -44 -1 -121l3 3q4 5 12.5 16t12.5 16t12.5 15.5t12.5 16.5v-1l4 6q18 23 73 92q5 6 14 18t14 18 q4 5 12.5 15.5t12.5 15.5q68 86 80 100q9 11 29 32.5t29 32.5l2 2q10 11 30 35l24 27q112 127 132 151q6 8 19 8q11 0 19 -8t8 -19q0 -9 -8 -19q-97 -112 -157 -180q-11 -13 -33 -37t-33 -37q-32 -36 -53 -63q-9 -11 -27.5 -34t-27.5 -35l-3 -4q-7 -10 -22 -28.5t-22 -27.5 l-60 -75q-54 -70 -94 -120l18 -25q17 -24 72 -97l5 -7q47 -61 81 -108q5 -6 14.5 -20t13.5 -20q4 -5 11.5 -15t10.5 -15q12 -17 36 -49q2 -3 6.5 -8.5t6.5 -8.5q34 -44 50 -66l54 -72q42 -52 63 -77l27 -33q2 -2 16.5 -18.5t21.5 -25.5q8 -10 8 -19q0 -11 -8 -19t-19 -8 q-13 0 -19 8q-20 24 -30 35q-2 3 -8 9t-8 9l-3 4q-26 30 -39 46q-8 10 -20.5 25.5t-21.5 27.5t-17 22q-26 34 -38 51q-3 3 -7.5 9.5t-6.5 9.5q-24 33 -43 57q-33 43 -62 83q-4 5 -11 16t-9 13q-5 8 -16 22t-16 22q-7 8 -19 25t-19 26l-11 14q-13 17 -39.5 53.5t-39.5 53.5 q0 -15 0.5 -47t0.5 -47q0 -43 1 -64q0 -4 0.5 -11t0.5 -10q0 -4 0.5 -13t0.5 -13q1 -10 1 -30t1 -30q4 -103 10 -175q2 -24 6.5 -80t6.5 -86q0 -5 -3 -11q2 -11 -3.5 -19.5t-15.5 -10.5l-45 -9l-18 -3q-36 -8 -72 -12h-2q-9 0 -17 8t-8 19q0 5 1 7l-3 30l-1 4q-1 5 -1 15 t-1 15v7l-1 17q-2 16 -2 25q-1 12 -1 36v5v28q0 17 -2 51q-1 28 -1 78v124v226v2q0 114 -4 171q0 7 -2 21q-3 31 -3 64v82q1 26 5 85q2 26 4 82q1 23 1 70q0 12 0.5 34t1 41t1.5 35q0 21 18 26q2 2 5 2q40 11 84 18z" />
<glyph unicode="l" horiz-adv-x="917" d="M110 1401q8 8 19 8q8 0 15 -5q38 2 65 2q26 0 38 -1q9 0 18 -7q11 0 18.5 -8t7.5 -19q2 -87 2 -261v-47v-116v-59v-8q0 -51 1 -77q0 -9 1 -26.5t1.5 -31.5t0.5 -26l3 -48q6 -119 6 -121l3 -66q1 -32 3 -98q0 -5 0.5 -16.5t0.5 -17.5q2 -32 2 -49v-27q0 -9 1 -27t1 -27 q0 -14 0.5 -43.5t1.5 -42.5v-11q3 -59 4 -70h104l26 1h147h21h33h34q65 0 101 -2q11 -1 19 -8.5t8 -18.5t-8 -19t-18 -8h-1q-34 2 -100 2h-23h-22h-142q-14 0 -41.5 -0.5t-41.5 -0.5h-86h-17q-11 0 -33.5 -0.5t-33.5 -0.5q-31 0 -43 -1q-6 -1 -17.5 -2t-17.5 -1h-8h-1v-1 q-7 0 -16 7q-15 7 -15 24q-1 43 -7 124q0 7 -1 20t-1 20q0 6 -1 17.5t-2 17.5q-1 7 -1 22t-1 22q-1 6 -1 18.5t-1 19.5q-1 6 -1 20.5t-1 20.5q-6 99 -6 167q0 42 -2 122v44q-2 178 -2 267q0 13 0.5 38.5t0.5 38.5v33q0 108 -2 324q0 11 8 19z" />
<glyph unicode="m" horiz-adv-x="1226" d="M255 1426q3 1 9 1q15 0 23 -13q32 -57 57 -99q28 -46 90 -145q54 -88 80 -132l10 -17q30 -50 67 -111q4 -6 11.5 -18t10.5 -18q4 -6 11 -17t11 -17t11.5 -18.5t11.5 -18.5q1 -2 5 -8t5 -8q2 -3 5 -9t5 -9h1q3 5 7.5 15t6.5 15q8 20 18 38q3 4 8 13.5t7 14.5q1 1 2.5 4.5 t2.5 5.5q24 43 38 76l4 9q8 20 13 29q3 6 9.5 18.5t9.5 19.5l9 18q20 42 31 63q4 8 12 23t12 23q51 99 52 101q5 10 17 34.5t19 39.5q9 19 19 36q9 14 20 29q0 10 8 17.5t19 7.5q25 0 27 -26q5 -111 10 -180l6 -66q6 -68 8 -103l6 -93q2 -30 4 -85q1 -32 1 -97v-71 q0 -25 2 -69v-13q1 -20 1 -59v-22q0 -15 1 -44t1 -44v-7q0 -26 2 -80q6 -94 15 -165v2q0 -3 4 -32.5t6 -46.5q1 -6 2.5 -18.5t1.5 -18.5v-9l1 -9l1 -11q0 -2 0.5 -5t0.5 -4q0 -7 -1 -10q-1 -9 -13 -16q-6 -3 -14 -3h-7q-9 3 -16 13q-3 6 -3 13v2v2q0 8 -2 26q0 2 -0.5 5.5 t-0.5 5.5l-1 5q0 4 -1 12t-1 12q-1 13 -4 35.5t-3 25.5v-2q-14 100 -19 184q-2 29 -2 84q0 15 -0.5 45.5t-0.5 45.5l-1 23q0 42 -1 62q0 5 -0.5 14t-0.5 14q0 8 -0.5 25t-0.5 26v83q0 15 -0.5 44t-0.5 44q-1 47 -7 130q-1 7 -2 22t-1 22q-6 84 -10 125q0 8 -2 24.5t-2 24.5 q-3 42 -6 85q-4 -7 -10 -21q-2 -4 -6 -12.5t-6 -12.5l-5 -11q-6 -11 -17 -33l-16 -32l-11 -21q-67 -130 -67 -131q-2 -3 -4.5 -8.5t-3.5 -8.5q-15 -31 -29 -61q-2 -3 -5 -9.5t-4 -9.5t-3.5 -9.5t-4.5 -9.5q-5 -11 -17 -33l-2 -5q-3 -5 -8 -14.5t-7 -13.5q-1 -3 -11 -20 t-14 -26q-2 -4 -5 -12t-5 -12l-3.5 -7t-3.5 -8q-3 -5 -8 -15.5t-7 -15.5l-4 -9q-4 -8 -16 -12h-1q-8 -10 -21 -10q-11 0 -19 8q-6 5 -7 13q-6 12 -27 44q-2 4 -6.5 11t-6.5 11q-4 7 -12.5 20t-12.5 19q-4 5 -10 16t-10 17q-3 5 -9.5 15.5t-9.5 15.5q-4 7 -12.5 20.5 t-12.5 20.5q-16 26 -59 98q-5 9 -15 25.5t-15 24.5q-7 12 -55 89q-6 9 -17.5 27.5t-17.5 28.5q-7 11 -22.5 37.5t-24.5 40.5q-2 5 -7.5 13t-8.5 13v-23v-31v-11v-4q0 -5 0.5 -17t0.5 -18q2 -59 2 -172q0 -19 0.5 -58t0.5 -59q2 -147 1 -224q0 -27 -2 -77q-2 -60 -2 -93 q-1 -58 -1 -169v-22v-65q1 -32 5 -82l1 -19q1 -22 5 -61v-4q1 -6 2 -16t1 -16q0 -4 1 -12.5t1 -12.5q0 -2 0.5 -5.5t0.5 -5.5q1 -10 -8 -19q-5 -5 -8 -6l-3 -3q-6 -6 -19 -8q-30 -2 -96 -4h-12q-10 0 -19 9q-4 2 -6 4q-6 6 -8 19q0 2 -0.5 6.5t-0.5 6.5t-0.5 6t-0.5 6 q-1 8 -3 26q-1 12 -1 38q0 8 -0.5 23.5t-0.5 23.5q0 6 -0.5 17t-0.5 17q-1 40 -1 121v46v29v143v39q0 7 -0.5 21t-0.5 21v59v29q0 14 -0.5 40.5t-0.5 39.5l-1 4v25.5v31.5v29v44v123v36q0 89 1 134q1 35 -1 102q-2 50 -2 77q0 11 8 19t19 8q7 0 13 -3h3q14 2 21 2q9 1 26 1 h8h28h2h3q12 0 19 -1h3z" />
<glyph unicode="n" horiz-adv-x="972" d="M122 1421q6 3 13 3q1 0 3.5 -0.5t3.5 -0.5q3 -1 9.5 -1t10.5 -1q33 -3 35 -3h5q14 0 21 -1q8 -1 18 -6q3 1 9 1q16 0 23 -13l3 -5q2 -5 7 -14.5t8 -14.5l8 -16q8 -14 31 -66q5 -13 19 -44t21 -48q3 -7 9 -23t9 -23q16 -38 48 -116q10 -23 29.5 -69.5t29.5 -70.5l11 -26 l24 -57q38 -88 54 -126q3 -8 9 -23.5t9 -23.5q2 -6 6.5 -16t6.5 -16q22 -56 33 -83q4 -10 12 -29.5t12 -29.5q13 -31 39 -95l3 -6q5 -12 17 -39t18 -40q3 -6 10 -19t10 -19q10 -18 14 -27q-7 44 -7 50q-2 24 -4 71q0 6 -0.5 18t-0.5 18q0 16 -2 48q-1 10 -1 29t-1 29l-2 30 q-5 131 -4 171q0 26 2 84q1 9 2 28.5t1 29.5q0 5 0.5 14t0.5 14l3 69q6 110 6 112q0 5 0.5 17t0.5 17q0 35 1 52l1 23l3 63q2 66 4 194q0 11 8 19t19 8t19 -8t8 -19q0 -69 -1 -108q-2 -42 -3 -91q0 -12 -2 -36q0 -7 -1 -23t-1 -23t-0.5 -21.5t-0.5 -21.5q0 -31 -1 -47 q-1 -32 -5 -91q-1 -13 -2 -38t-2 -37v-14q0 -5 -1 -14.5t-1 -14.5q-1 -10 -1 -29t-1 -29q-4 -99 -1 -169q1 -17 2.5 -50t1.5 -50l3 -72q2 -30 2 -45q2 -81 7 -122q9 -62 17 -97q1 -3 2.5 -10t2.5 -10q14 -56 16 -86q1 -10 -8 -19q-3 -3 -9 -6q-7 -10 -16 -13h-7q-8 0 -14 3 q-7 4 -12 16q-8 23 -24 63q-4 11 -14 32t-14 31l-6 13q-8 19 -27 54q-2 3 -5.5 10l-5.5 11q-6 11 -28 61q-1 3 -3.5 8t-3.5 8t-33 79l-13 31q-3 9 -10 26t-11 26q-2 4 -5.5 13t-5.5 13q-4 9 -10.5 26.5t-9.5 23.5q-4 9 -10.5 25t-9.5 25q-3 6 -7 18t-7 18q-15 39 -30 75 l-17 38l-36 84l-33 78q-3 8 -10 25t-10 25q-38 89 -52 124q-9 21 -27 65q-3 7 -9.5 23t-9.5 23l-5 13l-11 25q-1 2 -2.5 5.5t-2.5 5.5l-9 21v-18q0 -57 2 -175v-46q2 -80 2 -121v-68v-108v-174q0 -105 5 -169q6 -75 7 -85q1 -6 2 -19t2 -19q4 -34 5 -46v-6q0 -4 1 -10.5 t1.5 -11.5t0.5 -10q0 -2 1 -17t2 -24q2 -13 4 -40q2 -14 2 -20v-1v-5.5v-6.5v-5q0 -7 -3 -13l-2 -2v-10q-3 -9 -13 -16q-8 -4 -14 -4q-5 0 -7 1h-5h-16h-9q-4 0 -11.5 -0.5t-11.5 -0.5q-52 -2 -64 -2q-13 0 -22 12l-3 3q-6 6 -8 19q0 2 -1 4v3q0 2 -1 6.5t-1 6.5t-1 7t-2 7 q-1 5 -1.5 11t-1 13.5t-0.5 11.5v4l-1 11q-1 8 -1 25q0 4 -0.5 14t-0.5 14v7q0 12 -0.5 36t-0.5 36v7q0 7 -0.5 21t-0.5 21q0 5 -0.5 15t-0.5 15q-1 50 1 161q1 44 -1 128q0 7 -1 23t-1 23q0 15 -1 45t-1 45q0 12 -0.5 26t-1.5 31.5t-1 26.5v44.5v52v43.5v36v79q0 15 0.5 47 t0.5 48q0 117 -1 178q0 11 6 18q3 9 13 16z" />
<glyph unicode="o" horiz-adv-x="929" d="M422 1442q21 3 24 3h2q19 0 46 -5q3 0 9 -2t9 -2q4 0 11 -1.5t10 -2.5q34 -7 39 -9l2 -1q38 -11 53 -20q33 -18 47 -35l15 -18q2 -2 5.5 -6.5t5.5 -6.5q17 -19 29 -36l2 -3q16 -24 23 -36q12 -22 24 -59q1 -5 4 -15.5t5 -16.5l3 -10q2 -9 5.5 -23.5t4.5 -17.5 q3 -11 7 -40v-2q2 -9 4 -25.5t2 -19.5q8 -57 10 -90q6 -107 5 -167q-2 -112 -8 -176q-7 -72 -32 -175q-2 -6 -5.5 -20.5t-5.5 -21.5q-10 -30 -14 -41q-3 -9 -9.5 -26t-9.5 -25q-2 -5 -5.5 -15t-5.5 -15q-8 -22 -12 -32l-2 -5l-3 -7q-1 -2 -3 -6.5t-3 -7.5l-2 -7 q-6 -15 -14 -31t-17 -28q-3 -5 -11 -13q-2 -3 -7 -9t-7 -9q-30 -34 -54 -50q-10 -7 -32 -18q-28 -14 -51 -18q-11 -2 -36 -2q-22 0 -32 1q-29 1 -66 15q-22 8 -42 20q-5 2 -31 21l-2 2l-6 4q-3 2 -13 9t-15 12q-6 5 -27 28l-2 2q-18 22 -27 34q-16 23 -21 34v1 q-12 28 -17 42q-8 23 -23 79l-2 5q-9 30 -20 82q-6 32 -16 88q-5 30 -9 91q0 11 -1.5 38.5t-2.5 43.5q-3 88 -1 179q0 37 4 83q2 25 6 50q0 1 0.5 4t0.5 4q0 3 1 8t1 7q2 8 4 24q1 6 3.5 16.5t3.5 15.5l2 10q6 24 10 36l3 11l4 15q1 7 5 14q1 1 1 3t1 3q2 7 7 18q0 1 1 4 t2 4q1 3 3.5 8.5t3.5 7.5l3 7l16 32q1 1 2 3.5t1 3.5q3 8 7 13l14 21q30 47 70 80q30 26 54 40q18 12 30 19l1 1q2 0 2 1l2 2q14 10 22 14l2 1q15 8 26 10zM464 71h16q16 0 23 1q18 4 28 8q22 9 44 24q23 19 56 60q10 14 12 18q1 3 11 24q3 6 8 19t7 19l24 63q1 3 3.5 9.5 t3.5 9.5l4 9q2 5 5.5 15.5t5.5 15.5q6 18 13 41q8 27 20 83q9 44 14 79q8 71 10 119q4 90 1 170q-1 36 -5 89q-4 54 -8 85l-1 4q-8 58 -15 87q-14 53 -29 94q-11 21 -24 42q-10 14 -16 23l-12 15q-2 2 -5.5 6.5t-5.5 6.5q-18 22 -29 31q-18 13 -33 20q-11 4 -33 10 q-4 1 -13.5 3.5t-15.5 3.5q-5 1 -13 2.5t-13 2.5t-16.5 3.5t-17.5 3.5q-8 1 -20 1h-8q-10 -2 -15 -4q-1 0 -1 -0.5t-1 -0.5q-2 -3 -8 -7q-3 -1 -8.5 -5t-8.5 -6q-10 -9 -18 -18l-3 -4l-4 -5q-23 -33 -29 -44q-10 -21 -21 -45q-14 -39 -18 -52q-7 -29 -11 -55q-6 -56 -6 -65 q-2 -48 -2 -66q-1 -68 0 -127v-7q0 -26 2 -78q1 -14 2.5 -43.5t2.5 -44.5q1 -5 1 -13t1 -13q2 -40 4 -60q1 -16 5.5 -47.5t5.5 -41.5q1 -12 4 -35.5t5 -34.5q1 -8 2.5 -24t2.5 -24q7 -48 26 -136q3 -12 8.5 -33t7.5 -29q9 -34 19 -59q3 -7 11 -21l1 -3q8 -16 10 -19 q1 -1 2.5 -3.5t2.5 -3.5q2 -2 4.5 -6.5t3.5 -6.5l2 -1q2 -2 4.5 -6.5t3.5 -6.5l2 -1q8 -5 11 -14q7 -1 21 -1z" />
<glyph unicode="p" horiz-adv-x="974" d="M250 1445q16 2 54 2h39q17 -1 82 -5q40 -3 92 -10q22 -3 41 -9q2 -1 17 -5t23 -7q21 -7 44 -18l4 -2q23 -10 35 -17q23 -11 35 -20l2 -1q19 -12 34 -23q7 -5 23 -19q5 -4 16 -15q35 -38 48 -80l3 -9q1 -5 4 -16t5 -16q4 -19 5 -26q0 -3 1 -8.5t2 -8.5l2 -9q1 -4 2.5 -12 t2.5 -14.5t1 -12.5q1 -3 1 -10t1 -11q1 -3 1 -11t1 -11q3 -26 1 -50q-2 -22 -6 -41q-3 -17 -4 -19q-9 -29 -23 -53q-2 -3 -6 -9.5t-6 -9.5q-14 -19 -29 -35t-32 -30q-2 -2 -5 -4t-5 -3l-4 -4q-2 -2 -6.5 -4t-6.5 -4q-24 -16 -44 -23q-12 -5 -42 -15q-4 -1 -43 -11 q-26 -6 -41 -8l-17 -3q-18 -3 -28 -4q-39 -5 -86 -6q-14 0 -41 -0.5t-41 -1.5q-14 0 -30 -0.5t-35.5 -1.5t-30.5 -1q0 -12 2 -38.5t2 -38.5t1 -36.5t2 -36.5q1 -35 3 -79q1 -26 3 -76l1 -5q2 -38 3 -84q0 -6 0.5 -16t0.5 -15q0 -9 1 -27.5t1 -27.5q0 -6 1 -18t1 -18 q1 -14 3 -44q3 -61 4 -71q4 -9 0 -19t-12 -15l-6 -3q-8 -5 -15 -5h-10q-1 0 -4.5 -0.5t-5.5 -0.5h-2q-3 0 -8.5 0.5t-8.5 0.5h-3q-6 0 -19 0.5t-19 0.5q-9 -7 -18 -7q-11 0 -19 8q-6 6 -8 19l-1 11q0 4 -1 13t-1 13q0 3 -0.5 11t-0.5 11t-0.5 9t-0.5 10q0 7 -1 20.5t-2 20.5 q-1 6 -2 17.5t-1 17.5q-2 22 -4 78q0 4 -1 32t-2 45q-1 8 -1 23.5t-1 23.5q-1 20 -3.5 62t-3.5 62q-2 49 -2 147l1 29q0 115 1 170q0 10 0.5 29t0.5 29v32q0 9 0.5 27.5t0.5 27.5v35l1 28q1 46 1 142v122v61q-2 6 -2 9q0 11 8 19t19 8h18h14h5h8h14q7 -1 17 -3q29 4 41 5z M258 845v-92q36 1 72 3q4 0 13 0.5t14 0.5q6 0 18.5 0.5t18.5 0.5h11q9 0 28 1t29 1q22 1 62 5q51 7 79 14q31 7 78 25q25 11 39 22l6 5l3 2l4 4q14 12 21 19q4 4 10.5 11t9.5 10q14 19 29 48q10 28 15 59q3 29 -3 85l-2 13q-1 5 -2.5 15t-2.5 15t-2.5 15t-2.5 15 q-4 22 -8 34q-6 21 -12 36q-10 21 -20 34q-8 10 -34 34q-36 26 -54 36q-7 4 -18 10t-13 7q-4 2 -11 5t-12.5 5.5t-9.5 4.5q-27 12 -54 19q-16 5 -31 8q-4 1 -14.5 3t-15.5 3h-5l-5 1l-6 1q-12 2 -36 4q-26 2 -38 3h-7q-40 3 -81 3h-12q-19 0 -51 -2q2 -12 4 -38q1 0 1 -19 l-1 -20v-2q0 -8 -0.5 -24t-0.5 -24q0 -6 -0.5 -18t-0.5 -18v-124v-44q0 -14 0.5 -43t0.5 -43v-86v-43z" />
<glyph unicode="q" horiz-adv-x="923" d="M478 1423q8 1 23 1q37 0 72 -15q26 -12 39 -23q4 -3 14 -13q7 -8 14 -19l1 -1q21 -29 22 -32q2 -4 6.5 -11.5t6.5 -11.5l6 -12q2 -4 6 -11.5t6 -11.5q1 -3 3.5 -7.5t3.5 -5.5q2 -5 6.5 -13.5t8 -15.5l6.5 -13q4 -9 10 -27q1 -2 2.5 -7t2.5 -7q7 -18 15 -39l2 -4 q11 -34 12 -37q5 -15 10 -42q12 -48 18 -80l6 -30q4 -17 10 -53q8 -47 10 -91q1 -26 1 -86q0 -114 -6 -171q0 -6 -9 -71l-3 -15q-9 -59 -13 -81q-8 -42 -18 -77q-12 -44 -33 -87q-1 -2 -2.5 -5.5t-2.5 -4.5l1 -1q6 -9 55 -82q4 -5 10.5 -15t9.5 -15l2 -2q8 -6 8 -18t-8 -20 t-19 -8q-9 0 -19 8q-8 8 -14 17l-2 4l-9 14l-20 30q-5 7 -14 20t-13 20l-12 -15q-22 -26 -30 -34q-14 -15 -46 -39l-5 -3q-10 -9 -25 -20q-21 -16 -28 -20q-16 -9 -36 -16l-7 -3q-18 -6 -32 -8q-25 -5 -37 -5q-1 0 -3 0.5t-3 0.5q-6 0 -22 2h-5l-15 3q-27 5 -46 16 q-2 1 -21 13q-19 13 -24 18l-1 1q-2 2 -7.5 6.5t-8.5 7.5q-2 2 -4.5 5t-5 6.5t-4.5 5.5q-25 34 -37 53q-16 26 -22 37q-9 15 -19 42q-9 22 -26 78q-11 38 -19 75q-7 34 -16 83q-9 53 -21 166l-1 7q-3 23 -7 81q-3 45 -3 83v79q0 2 6 67l1 17l1 7q8 74 10 86q2 15 8 41 q2 7 6 21.5t6 22.5q4 13 14 39l1 3q8 20 18 41q14 30 21 43q8 16 20 34t29 38q1 1 2.5 3t2.5 3q6 8 10 12l10 11l6 6q6 7 21 20q12 10 24 18t23 13q17 8 26 10q26 7 64 10q16 2 25 2h2q2 1 5 1q2 0 6.5 1t6.5 2zM507 1370q-9 -7 -17 -7h-1q-3 0 -9.5 1t-9.5 1q-3 -2 -8 -5.5 t-7 -4.5q-10 -8 -26 -26q-8 -10 -22 -30q-3 -5 -19 -34l-2 -4q-2 -3 -5.5 -10l-5.5 -11l-4 -8l-4 -8l-17 -34q-7 -17 -15 -44q-12 -39 -13 -46q-1 -4 -5 -22l-6 -27q-2 -10 -7 -46q-3 -22 -7 -71q-2 -24 -4 -79q-3 -83 -3 -151q1 -80 8 -169q7 -93 16 -169q3 -23 11 -69 q3 -18 11 -54q0 -3 2 -8t2 -8q4 -17 17 -71v-2q3 -11 9 -35q8 -24 10 -29q11 -25 25 -45q5 -1 8 -5q1 0 3.5 -0.5t3.5 -0.5q16 -2 29 -2h13q20 4 33 8q11 3 24 8q13 7 34 21q4 3 11 8.5t10 8.5q9 8 22 17l8 6q27 21 61 65q1 2 3.5 6t4.5 6q-5 6 -25.5 34.5t-33.5 45.5 l-10 13q-6 6 -7 12l-1 7q0 11 8 19t19 8q13 0 19 -8q58 -77 60 -79q0 1 2 4t2 4q12 32 20 61q11 40 16 66q5 23 10 62q1 6 2.5 17.5t2.5 17.5q0 4 1.5 13t2.5 13q8 64 10 173q2 112 -4 168q-1 11 -5 28q-22 108 -35 166q-5 22 -10 38q-11 37 -14 44q-2 7 -7 19.5t-6 15.5 l-2 5q-1 2 -2.5 6t-2.5 6q-2 3 -4.5 11t-3.5 11q-12 24 -18 35l-2 3l-6 12q-2 4 -6.5 11.5t-6.5 11.5q-1 2 -3.5 6t-3.5 6q-8 16 -13 23q-9 14 -20 29q-5 6 -17 18q-14 9 -25 14q-16 6 -33 9h-10z" />
<glyph unicode="r" d="M233 1439h1q6 0 9 -1q10 1 30 1h6q12 0 40 -2t48 -5l24 -3l15 -3q7 -1 14.5 -2t15.5 -2.5t12 -2.5q96 -17 164 -44q27 -10 41 -19q41 -26 59 -46q12 -14 31 -40q15 -19 22 -35l10 -22q3 -6 13 -26.5t15 -31.5q7 -16 17 -45q2 -7 6.5 -21.5t6.5 -21.5q10 -37 10 -62v-3 v-19q0 -45 -9 -71l-15 -39l-6 -12q-7 -18 -14 -28q-2 -2 -5.5 -8t-5.5 -8q-10 -12 -14 -16q-21 -23 -50 -43q-21 -13 -38 -22q-33 -15 -44 -19q-10 -4 -43 -11q-52 -11 -114 -11q-24 0 -64 2h-15q-66 3 -67 3h-32l12 -13l2 -2q5 -6 13.5 -17t10.5 -14l6 -7q30 -37 62 -82 q6 -8 16.5 -23.5t15.5 -23.5q3 -4 9.5 -13t9.5 -14q3 -4 52 -73q17 -22 28 -38q59 -79 71 -95l-1 1l2 -3v1v-1l1 -1q69 -89 90 -115q15 -19 47 -55q2 -3 7 -8.5t8 -8.5l9 -11q1 -2 4 -5l4 -4q10 -12 17 -19l-1 1q8 -8 9 -13q3 -12 -3 -21t-16 -12q-2 -1 -8 -1q-8 0 -13 3 q-5 4 -22 23q-2 3 -6 7l-10 12q-23 25 -44 50l-51 63l-3 4q-62 79 -109 142q-4 6 -12.5 17.5t-13.5 17.5q-4 6 -12.5 17.5t-12.5 16.5l-8 11l-39 54q-4 5 -10.5 14.5t-9.5 14.5q-10 14 -30 44l-6 9q-3 5 -9 13.5t-9 12.5l-10 12q-3 4 -9 12.5t-9 12.5t-10 12t-10 12 q-1 1 -2.5 4t-2.5 4q-2 3 -6 7t-6 7l-9 10q-4 4 -10 12t-10 12q0 -17 0.5 -54t0.5 -56v-27q0 -9 0.5 -28t0.5 -29q0 -16 0.5 -45t1.5 -44q0 -15 2 -41q2 -28 2 -42q1 -16 1 -50q0 -6 0.5 -17t0.5 -17v-6q0 -9 0.5 -24.5t1 -28.5t1.5 -25q2 -30 2 -43q0 -4 0.5 -11t0.5 -10 v-4v-16q-2 -13 -8 -19q-8 -8 -19 -8q-9 0 -17 6q-1 0 -3 -0.5t-3 -0.5q-2 0 -19 -1.5t-26 -2.5q-7 -1 -20 -1t-20 -1l-9 -1h-1q-10 0 -18 8t-8 19v6q-1 20 -1 60v6v41v31q0 54 1 80q1 21 1 65v93v33q0 8 -0.5 24.5t-0.5 25.5v121v48v85q0 175 1 262q3 153 -4 366q0 11 8 19 t19 8q6 0 12 -3q14 2 42 8l9 1q37 6 41 6zM411 751q44 -2 70 -2h6h6q22 0 33 1h7q9 0 13 1l7 1l8 1l6 1q19 3 32 7q1 1 3 1h3q2 0 6.5 2t6.5 2l9 3l9 3q18 6 32 15q26 16 39 25q10 8 27 25q1 1 7 8t9 11q7 9 13 22l2 7q1 3 4 9.5t4 9.5q12 31 15 45q1 10 1 34q0 27 -1 40 q-2 13 -14 56q0 2 -2 6t-2 6q-7 23 -13 36q-4 8 -8 17t-9 19.5t-8 16.5l-7 14l-7 15q-8 15 -13 22q-1 2 -20 27q-16 19 -31 32q-11 9 -29 20q-10 7 -23 12h-1l-3 1q-4 1 -12.5 4t-12.5 5q-19 7 -34 11q-47 13 -62 16q-33 7 -67 12l-10 2q-30 6 -50 8q-23 2 -67 4h-9h-14 v-313v-168v-149q55 0 151 -4z" />
<glyph unicode="s" horiz-adv-x="849" d="M373 1396q9 1 26 1q12 0 38 -2q38 -5 57 -12q28 -9 52 -27l2 -1q2 -1 2 -2l3 -2q2 -1 5 -3.5t5 -3.5t5 -3.5t4 -3.5l2 -2q21 -16 28 -22q1 -1 3 -2t3 -2q2 -2 5.5 -5t5.5 -5l12 -12l6 -5q7 -7 10 -11q1 -1 2.5 -3t2.5 -3q2 -3 5.5 -6.5l6.5 -6.5t6 -7t6 -7q14 -18 21 -28 q8 -10 15 -25q11 -24 20 -55q3 -10 -2 -20q-6 -11 -16 -14q-2 -1 -8 -1q-19 0 -26 20q0 1 -4.5 16.5t-8.5 23.5q-8 18 -27 42q-16 21 -51 56q-9 9 -39 34l-2 1q-37 29 -61 40q-22 8 -53 13h-2l-3 1q-19 -9 -31 -16q-2 -2 -7 -5t-8 -5t-9.5 -6.5t-9.5 -6.5q-14 -12 -19 -17 l-14 -14l-4 -4q-13 -13 -31 -35q-3 -4 -8 -12.5t-8 -12.5q-10 -16 -14 -25q-3 -10 -8 -21q-2 -5 -6 -26q-4 -32 -4 -42v-7v-39q5 -23 13 -42q11 -26 28 -50q4 -5 10 -11q5 -1 15 -4t15 -4l3 -1q4 -1 13 -3.5t14 -3.5q33 -9 66 -26l12 -6l2 -1q3 -1 7 -3.5t7 -3.5 q18 -8 28 -13q20 -8 28 -11l6 -3q3 -1 9.5 -3.5t11.5 -4.5t9 -4q37 -19 77 -68q29 -36 41 -55q17 -30 31 -60q4 -8 10 -24t8 -20q5 -13 14 -40q13 -43 18 -89q5 -43 2 -83q-2 -29 -11 -91q-10 -56 -23 -84l-2 -5q-3 -7 -7 -14q-2 -3 -5.5 -9t-5.5 -9l-17 -27l-6 -10 q-21 -32 -25 -36q-14 -17 -53 -40l-3 -3q-17 -11 -34 -18q-1 -1 -2.5 -1t-2.5 -1t-4.5 -2t-5.5 -2q-13 -5 -23 -6l-7 -1q-2 0 -6.5 -1t-6.5 -1t-4 -0.5t-4 -0.5q-3 -1 -8.5 -2t-7.5 -1l-22 -5q-42 -10 -70 -10h-3q-7 0 -23 0.5t-23 0.5q-17 0 -43 3q-13 1 -47 10 q-36 9 -59 20q-16 8 -40 24q-3 3 -10.5 7.5t-10.5 7.5q-20 16 -31 30q-13 16 -23 32q-16 24 -23 37q-10 17 -20 42q-19 48 -25 81q-6 36 -11 96q-1 6 -1.5 19t-0.5 20q-1 13 1 42q2 14 7 19q8 8 20 8t20 -9q7 -7 7 -18q-2 -28 -1 -38q0 -6 1 -19t1 -20q1 -24 7 -72 q8 -42 10 -49q7 -23 15 -42q24 -48 52 -88q11 -14 25 -26l11 -8l2 -2q2 -1 5 -3.5t4 -3.5q19 -13 37 -21q12 -5 27 -9l3 -1q2 -1 6.5 -2t6.5 -2q6 -2 19 -4.5t18 -3.5q12 -2 18 -2h3h2q3 0 11 -0.5t11 -0.5l9 -1h29q20 0 29 1q20 4 29 6l4 1q1 0 3 0.5t3 0.5l2 1l15 3l8 1 q3 1 8.5 2t8.5 1l5 1q24 4 36 8h1q1 4 5 8l1 2l2 2l2 5q1 2 2.5 7t2.5 8l3 8v1q1 3 2.5 8t2.5 8q2 6 7 25l2 6q4 20 5 24v4v1l1 3v2q0 1 0.5 5t0.5 5l1 9l2 10q2 18 3 40l3 39l1 4q0 6 1 17t1 16q4 49 3 79q-1 41 -6 78q-5 36 -7 46q-5 28 -12 51q-8 30 -33 96q-1 1 -4 9.5 t-5 12.5q-8 15 -15 27q-9 17 -32 48q-4 2 -11 5t-11 4q-11 5 -31 15l-1 1q-5 2 -15.5 7t-15.5 8q-19 7 -22 8t-9.5 3t-9.5 3l-5 1q-20 6 -30 8h-2q-2 1 -8 2.5t-8 1.5t-6.5 2t-6.5 2h-1q-1 0 -3 1t-3 1l-4 1q-2 1 -6 2t-6 2l-7 2q-37 12 -62 26q-19 10 -30 20q-4 3 -10 8.5 t-9 8.5q-27 26 -39 42q-20 27 -31 57t-14 57q-1 19 0 32v2q1 11 5 28q3 10 9 26l1 2q7 18 11 25q18 30 40 50q23 22 47 36l22 13l12 6q1 0 2.5 1t2.5 2q7 3 21.5 8.5t18.5 7.5l6 3q3 1 8 2.5t7 2.5q1 1 3.5 1t3.5 1q13 5 16 5l6 2l24 6q39 9 59 10z" />
<glyph unicode="t" horiz-adv-x="886" d="M129 1419q42 -1 81 -3q19 0 29 -1q8 -1 23 -1t22 -1q38 -2 58 -2h13q21 0 73 -2q18 -1 54.5 -2.5t54.5 -1.5q10 -1 29.5 -1t29.5 -1q37 -1 110 -1h25h26q11 0 18.5 -8t7.5 -19t-7.5 -19t-18.5 -8h-30h-29q-48 0 -75 1q-35 0 -52 1l-21 1q-7 0 -21 0.5t-21 0.5 q-1 -35 -4 -216q0 -14 -0.5 -41t-0.5 -40q-2 -123 -2 -347v-22v-62q0 -3 1 -37t2 -52q1 -27 5 -74q4 -64 5 -96q2 -34 2 -51q0 -6 0.5 -17t0.5 -16q2 -58 4 -85q8 -107 13 -149v-3q1 -7 0 -14l-3 -7v-1q-2 -10 -9 -17t-17 -7h-1q-6 0 -18 1t-18 1l-14 1q-34 2 -48 2h-7 q-11 0 -19 8t-8 19q0 1 0.5 2.5t0.5 2.5v7l-1 3v5v2v16q0 4 -0.5 12.5t-0.5 12.5v12v29q0 8 -0.5 24.5t-0.5 24.5q0 25 -2 73v9q0 10 -1 32t-2 32q-2 29 -4 85q0 8 -0.5 23t-0.5 22q0 6 -0.5 17.5t-0.5 17.5q0 16 -2 48q0 6 -0.5 17t-0.5 16q0 7 -0.5 22t-0.5 22t-0.5 20 t-0.5 20l-3 75l-1 17q0 11 -1 33t-1 33l-1 19q-2 72 -4 107q-1 10 -2 30.5t-1 30.5q0 24 -1 36q-4 94 -4 142q0 56 1 91q2 55 5 84q-5 0 -16 0.5t-16 0.5q-19 0 -55 2q-4 0 -13 1t-13 1q-64 2 -99 3q-11 0 -19 8t-8 19t8 19t19 8z" />
<glyph unicode="u" horiz-adv-x="923" d="M124 1418q8 8 18 8h1q6 0 18 -2t18 -2h4l4 -1q2 0 6.5 -0.5t6.5 -0.5h2l2 -1q2 0 4 -0.5t4 -0.5h2h5q3 0 9 -2q2 0 4 -1l4 -2q8 -4 12 -12q2 -3 4 -9l3 -9q2 -12 2 -18q2 -38 2 -58v-60q0 -32 -2 -86q-1 -8 -1 -24.5t-1 -25.5v-1l-1 -2q0 -4 -0.5 -13t-0.5 -14 q0 -10 -1.5 -39t-2.5 -45q-1 -31 -1 -87v-86q0 -9 3 -63v-7v-15q0 -5 0.5 -14.5t0.5 -14.5v-4v-1q0 -18 2 -50q2 -18 2 -28q0 -3 1 -24t2 -32q1 -5 2 -14.5t1 -14.5l1 -3q2 -17 4 -55q2 -40 3 -59v-1v-5q0 -3 0.5 -10t0.5 -11q3 -88 12 -160q9 -56 25 -96q10 -23 17 -35 l1 -2v-1q2 -3 6 -10t6 -10q14 -5 17 -19q0 -1 0.5 -2t0.5 -2q8 -3 22 -7q21 -6 37 -8q7 -1 22 -1h1h3h11h9q3 0 10 0.5t11 0.5h2h8l1 1h1q11 0 16 1q14 3 45 13l4 2q2 1 5.5 2t5.5 1l2 1h1l24 9q18 8 43 25q5 4 18 17q4 4 14 16q10 14 19 31q10 20 15 31q8 21 10 29 q2 7 4 18.5t3 14.5l6 30l1 2l1 7q1 5 3 15.5t3 15.5q3 15 9 43v1v1q11 50 16 84q6 56 6 123q0 47 -1 68q-1 11 -2.5 30.5t-1.5 25.5v9l-1 4v2v2q-2 25 -4 77t-2 86v167v27v2v139q0 7 0.5 20t0.5 19v41q0 12 2 40v4q0 11 1 17q0 1 0.5 3.5t0.5 3.5t0.5 4t0.5 5q-1 9 4 18 q6 9 16 12q2 1 7 1q8 0 14 -3q7 -3 12 -17q3 -7 1 -15l-1 -2q0 -2 -0.5 -5t-0.5 -4q-1 -7 -1 -19q-1 -15 -1 -37q0 -7 -0.5 -21t-0.5 -21v-35v-6q0 -9 -0.5 -34t-0.5 -39v-82v-14v-154v-5q0 -52 1 -81q0 -11 1 -23.5t2 -31t2 -30.5l1 -11q2 -26 4 -76q1 -28 1 -86 q0 -33 -4 -85q-3 -35 -15 -89q-12 -62 -15 -76l-2 -6l-3 -18q-1 -4 -2.5 -12t-2.5 -12q-3 -16 -9 -42q-8 -28 -15 -43q-12 -27 -18 -38q-25 -44 -59 -72q-14 -11 -37 -25q-20 -11 -56 -23l-5 -2q-2 0 -4.5 -1t-3.5 -2l-4 -1q-30 -10 -37 -11q-16 -3 -49 -5l-7 -1h-25h-17 q-23 0 -46 5q-38 7 -80 28q-46 23 -65 44q-8 9 -31 41q-20 30 -39 75q-10 21 -18 46q-4 11 -10 35v1l-2 6q-9 36 -18 81q-16 90 -18 177q-1 33 -1 96v2q0 13 -0.5 37.5t-0.5 36.5q-1 54 -1 176v25v2q0 93 2 141q0 8 1 25t1 26v8q0 18 1.5 56.5t2.5 58.5v42q0 8 0.5 24.5 t0.5 24.5q0 12 2 40v6v1q0 10 1 15q1 7 3 19q-1 2 -1 7q0 11 8 19z" />
<glyph unicode="v" horiz-adv-x="935" d="M117 1423q8 8 18 8h1q7 -1 20.5 -2t20.5 -1q5 -1 15 -2.5t15 -1.5h1q1 0 3.5 -0.5t3.5 -0.5h5h7q7 0 13 -3q19 -2 24 -20q4 -16 12 -51t12 -52q5 -19 10 -47q1 -5 4 -16t4 -17l3 -13q11 -54 16 -73l4 -17q5 -23 17 -69q3 -9 7.5 -26.5t6.5 -25.5q22 -76 32 -115 q20 -74 30 -110q3 -10 8.5 -31t8.5 -31q21 -77 49 -197q13 -58 32 -135q2 -5 5 -16.5t4 -17.5l12 -48q2 -7 5.5 -21.5t5.5 -21.5q2 -6 5.5 -19t5.5 -20l6 -21q1 -6 4 -17.5t5 -17.5l1 21q1 8 2 23t2 22q2 26 8 76q3 28 7 77q2 31 8 85q6 58 9 80v-1q1 5 2 15.5t2 15.5 q4 36 7 54q1 5 15 82v2q4 23 13 82l1 6q5 31 15 83l6 33q20 106 28 143q4 20 11 49q1 5 3.5 15.5t3.5 15.5q2 7 7 35q2 8 6 26t6 26t5.5 24.5t5.5 25.5q1 6 4 16t4 16q14 65 21 101q1 8 13 16q8 4 13 4t7 -1q11 -3 17 -12q5 -10 2 -21q-16 -82 -23 -110l-1 -1l-18 -78 l-3 -17l-15 -69l-3 -11q-11 -46 -17 -77q-1 -5 -7 -36t-10 -51q-1 -6 -3.5 -18t-3.5 -18q-13 -67 -24 -140q-1 -5 -15 -85q-6 -33 -13 -81l-4 -28q-1 -8 -3 -23.5t-3 -23.5v-1v-1v1q-9 -64 -16 -150l-2 -22l-6 -66q-6 -56 -8 -88q-1 -5 -1 -14.5t-1 -14.5q-1 -20 -5 -55 q-1 -5 -2.5 -20.5t-2.5 -23.5q-1 -2 -2 -6.5t-1 -6.5t-1 -7t-1 -7q2 -6 2 -8q0 -11 -8 -19q-6 -6 -19 -8h-3q-5 0 -13 2h-2q-1 0 -4 0.5t-5 0.5h-6q-4 0 -14 -2h-1h-1q-28 -4 -45 -4h-5q-19 0 -33 8q-1 0 -5 2.5t-6 4.5h-1q-5 3 -13 11q-2 3 -5.5 8t-4.5 6q-11 15 -18 38 q-2 5 -5 14.5t-5 14.5l-4 10q-5 16 -14 44t-11 35q-1 3 -3 9.5t-3 9.5q-3 10 -9.5 32t-9.5 32q-14 54 -20 81q-29 129 -37 166q-2 8 -5.5 23.5t-5.5 23.5q-9 39 -25 119q-14 68 -18 84l-1 4q-4 14 -10 42t-10 42q-9 42 -14 70l-3 15q-2 9 -5.5 26t-4.5 24q-3 14 -7 35 q-4 19 -13 70q-1 4 -7.5 41t-10.5 56q-14 60 -20 84l-3 14l-21 81q-3 14 6 25q2 10 8 16z" />
<glyph unicode="w" horiz-adv-x="1216" d="M114 1426q8 8 17 8h2q2 0 5.5 -0.5t5.5 -0.5q15 -2 45 -4q1 0 3.5 -0.5t3.5 -0.5q9 0 14 -1q5 0 11 -2l6 -2q3 -1 9 -5q12 -8 17 -19l1 -2q4 -7 6 -17q0 -1 1 -5t2 -5l1 -7q0 -2 1 -6t2 -5q6 -25 8 -44q1 -6 2.5 -17t2.5 -16l1 -7q1 -5 3.5 -21.5t3.5 -26.5 q1 -12 4.5 -40.5t5.5 -42.5q2 -21 6.5 -61t6.5 -58q1 -9 3 -26.5t3 -26.5q1 -6 2 -18t2 -18q2 -16 6 -50q4 -45 9 -78l1 -11q1 -8 3.5 -24t3.5 -24q2 -21 8 -53q2 -9 4 -27l2 -10l12 -78q1 -7 3.5 -22.5t3.5 -23.5q12 -80 19 -120q2 -11 5.5 -35t5.5 -36l3 -14q0 -5 1.5 -13 t2.5 -13q1 -10 4 -29t5 -29q1 -4 2.5 -12.5t2.5 -12.5l4 23q1 9 5 26t5 25q0 1 6 31t10 46q4 14 9 42t6 31l1 8q6 34 17 85q7 34 18 89.5t16 78.5q2 11 7 34t7 35q3 17 10.5 51.5t11.5 51.5q18 91 31 166l4 20q4 21 10 65q1 10 4 29.5t5 29.5q1 4 3 14t2 14q1 10 3.5 29.5 t4.5 29.5q14 96 19 123q1 8 11 15q3 3 10 5q2 1 7 1q23 0 26 -19q36 -163 65 -327q3 -19 9.5 -56.5t9.5 -56.5q2 -11 5.5 -33.5t5.5 -34.5q4 -25 14 -75l2 -12l4 -20q2 -11 7 -33t7 -33q33 -168 69 -336q16 -76 24 -110q2 83 5 121q4 43 9 88q1 8 3 23.5t3 23.5 q1 6 2.5 18.5t2.5 18.5q10 74 15 110q1 10 4 28.5t4 27.5q1 4 2 14.5t1 14.5q4 33 5 47q7 72 15 134q2 10 5 31t4 31l4 23q7 39 12 83l2 21q1 7 2.5 21t2.5 21l3 18l2 19q1 13 5 32l2 10q3 26 11 65q2 12 6.5 35t6.5 34q1 10 12 16q8 4 14 4q5 0 7 -1q9 -3 16 -13 q4 -8 4 -13q0 -1 -0.5 -3.5t-0.5 -3.5q-8 -46 -12 -68l-4 -19q-10 -54 -14 -81q-1 -9 -3.5 -28t-3.5 -29q-2 -15 -6 -46.5t-6 -47.5t-8 -48l-2 -16q-3 -19 -11 -73q-6 -54 -9 -84q-1 -4 -1 -12t-1 -12q-1 -8 -2.5 -25t-2.5 -26q-5 -38 -14 -101q-6 -36 -8 -54 q-1 -6 -2.5 -18.5t-2.5 -18.5q-16 -114 -21 -196q-5 -83 -3 -166q0 -1 3 -49q0 -5 1 -15.5t1 -16.5q1 -12 1 -40v-10q0 -17 1 -26q2 -11 -7 -19q-4 -10 -17 -14q-2 -1 -7 -1q-21 0 -26 20q-1 3 -2 8t-2 7q-1 4 -2.5 11t-2.5 11q-1 3 -2.5 9.5t-2.5 9.5t-2.5 9t-2.5 9 q-3 12 -9 36.5t-9 36.5v1l-2 9q-29 122 -33 140q-7 31 -34 161l-2 9q-1 7 -3.5 21t-4.5 21q-24 113 -27 128l-1 6q-2 14 -7.5 41t-8.5 40l-4 22l-12 63q-3 15 -8 43.5t-9 51.5t-7 43q-1 7 -3.5 21.5t-3.5 21.5q-15 92 -42 226l-1 -10q-22 -142 -28 -180q-8 -47 -31 -167 l-3 -13q-3 -12 -7 -36.5t-7 -36.5l-4 -19q-2 -11 -7 -33.5t-8 -33.5q-14 -63 -34 -167q-3 -15 -8.5 -44t-8.5 -44q-1 -5 -2.5 -14.5t-2.5 -13.5q-7 -38 -10 -52q-2 -11 -8 -33q-4 -16 -10 -50l-3 -15q-3 -19 -14 -71l-4 -20q-2 -10 -5.5 -29t-5.5 -28q-2 -7 -4 -20.5 t-4 -20.5l-1 -2v-2q1 -1 1 -5t1 -5q0 -1 0.5 -3.5t0.5 -3.5q1 -1 1 -3q3 -12 -3 -21q-7 -12 -16 -13h-2h-2l-2 -2q-6 -3 -14 -3q-5 0 -7 1h-1l-2 1h-5q-1 0 -3.5 -0.5t-3.5 -0.5q-14 0 -21 1q-13 1 -35.5 4t-29.5 4q-8 0 -14 3l-3 2l-2 3q-8 8 -8 19q-1 6 -3.5 16.5 t-3.5 15.5q-1 4 -2.5 11.5t-2.5 11.5q-1 6 -3.5 17t-3.5 16q-1 4 -2.5 14t-2.5 14q-13 67 -20 111l-3 19q-14 82 -27 167q-18 130 -24 181q-2 15 -5.5 44.5t-5.5 43.5q-1 6 -2.5 18t-2.5 19t-2.5 21.5t-2.5 21.5q-11 83 -21 178q-2 19 -5.5 56.5t-3.5 41.5q-4 54 -7 81 q-2 24 -8 70l-2 13q-2 14 -5.5 41.5t-5.5 41.5l1 -3l-2 9l-6 39q-2 13 3 21q0 1 1 1l1 2q1 3 6 8z" />
<glyph unicode="x" horiz-adv-x="942" d="M203 1425h1q10 0 17 -7h6q5 0 7 -1q13 -4 17 -12l6 -14q19 -43 25 -57q3 -6 7 -18t7 -18q2 -5 5.5 -14t5.5 -14l8 -20q38 -95 43 -107q30 -71 61 -138q18 -38 31 -69q5 -11 13 -31t10 -24l8 -18v-1q17 -40 29 -71q1 -3 3.5 -9.5t3.5 -9.5q1 3 3.5 8l3.5 7l-1 -2 q18 45 27 71l4 10l9 27q2 5 6.5 16.5t6.5 17.5l2 5q21 57 66 152q13 27 37 81l21 48q2 4 6 13.5t6 14.5q18 39 38 79q24 50 35 74l3 6q4 8 16 12q2 1 7 1t13 -4q10 -7 13 -16q3 -10 -3 -21q-25 -53 -44 -93q-30 -62 -36 -76q-31 -71 -34 -77q-4 -8 -12 -26t-12 -26l-48 -108 q-19 -45 -40 -102l-4 -12q-4 -13 -14 -39q-11 -27 -20 -48l1 1l-18 -45l-5 -13q-1 -2 -5 -9l8 -20q3 -7 8.5 -22.5t8.5 -23.5q10 -24 14 -36q5 -15 17 -45q29 -72 31 -77q19 -44 34 -76q18 -39 33 -75q5 -13 15.5 -35t11.5 -25q2 -6 7.5 -17t8.5 -16l6.5 -13t6.5 -14l6 -14 l21 -45q1 -2 3 -5.5t3 -5.5l9 -21q2 -5 5.5 -13.5t5.5 -12.5l1 -2q16 -34 18 -38q12 -21 -7 -35l-3 -3q-8 -8 -17 -8h-2q-5 1 -14 1t-14 1q-3 0 -9 1t-9 1q-49 4 -60 6q-9 1 -16 13q-1 1 -1 3h-1q-4 6 -40 68q-3 5 -8 14.5t-7 13.5q-4 7 -13 22t-13 23q-7 12 -40 76 q-10 19 -37 76l-6 13q-3 7 -9.5 20l-12 24t-9.5 21q-25 54 -51 116q-4 -7 -10.5 -21.5t-9.5 -21.5l-8 -16t-7 -16q-4 -9 -9 -19t-10.5 -22t-8.5 -18q-4 -9 -12.5 -26.5t-12.5 -26.5q-4 -7 -10 -20t-9 -19q-1 -2 -16 -29q-1 -2 -3 -5t-3 -5q-19 -35 -39 -75q-25 -50 -36 -71 q-4 -7 -9.5 -19t-8.5 -17q-1 -2 -3 -5.5t-3 -5.5q-1 -1 -2.5 -3t-1.5 -3v-2q-3 -6 -9 -16q-9 -14 -24 -14q-5 0 -13 4q-10 7 -13 17q-3 11 3 20q5 9 13.5 25.5t10.5 20.5l2 4q2 5 7.5 14.5t8.5 14.5q2 3 5 9.5t4 9.5q3 7 10 20.5t11 20.5q10 21 32 63q2 3 5 9t5 9 q15 25 32 60q3 6 8.5 17.5t8.5 17.5q3 7 9.5 21t10.5 21t10.5 21.5t9.5 21.5t9 19l8 16q24 50 39 86l1 1v1l-6 14q-3 8 -9.5 22.5t-9.5 22.5l-24 60l-7 19q-30 74 -44 111l-21 54l-5 15q-18 44 -26 66q-2 7 -14 35q-3 8 -8.5 22t-8.5 22q-11 31 -31 93q-7 22 -23 68 q-6 21 -17 47q-30 82 -39 121q-1 3 -1 9q-4 8 -4 14q0 11 8 18.5t19 7.5q4 0 12 0.5t12 0.5q33 0 50 1z" />
<glyph unicode="y" horiz-adv-x="888" d="M229 1413q3 1 9 1q16 0 23 -13q39 -74 58 -121q2 -6 7 -16.5t6 -14.5v-1q2 -4 5 -12.5t4 -12.5q9 -25 21 -52q2 -3 4 -9.5t4 -9.5l1 -2l1 -3l1 -1l2 -4q2 -4 5 -11.5t5 -11.5q13 -31 24 -60l11 -27q5 -13 16 -41t17 -43q3 -7 10 -22.5t10 -23.5l1 -1l2 -5q3 -8 10 -23 t10 -22q10 -25 13 -31l5 -13l5 -10l2 6v2l5 14l1 1l9 27t10 32q3 9 9.5 28t9.5 29v1l2 6q1 3 2.5 8t2.5 7l6 18l5 13l1 3q3 7 7.5 21t6.5 21l5 14q15 45 24 67q6 14 14 35l2 6l3 6l1 3q2 5 5.5 15t5.5 15l5 12l3 7l3 8q6 16 20 50q5 12 22 51l1 3q1 3 4 10.5t5 11.5t3 7l1 1 q6 16 10 24q7 13 24 13q7 0 13 -3q22 -12 10 -37q0 -2 -2 -5t-2 -4q-1 -2 -20 -46l-12 -27q-17 -42 -45 -115q-2 -6 -7 -18t-7 -18q-1 -4 -4 -11.5t-5 -11.5q-12 -30 -23 -63q-5 -13 -13.5 -39t-12.5 -39q-1 -4 -4 -11.5t-4 -11.5l-2 -3q-6 -18 -18 -56q-10 -34 -26 -80 l-1 -2q-4 -10 -9.5 -29.5t-6.5 -22.5l-1 -3q-1 -4 -3 -11t-3 -11v-80q0 -13 0.5 -41t0.5 -41q0 -115 1 -169q1 -28 2.5 -84t1.5 -84q0 -14 2 -42v-4q0 -6 0.5 -18t0.5 -18q0 -5 1 -33.5t2 -44.5q0 -14 -12 -22q-1 -11 -8 -18.5t-17 -7.5h-2q-25 3 -28 4q-10 2 -13 4 q-2 1 -5.5 2.5t-4.5 1.5t-3.5 1.5t-3.5 2.5h-1l-3 3q-22 2 -25 20q-2 12 -4 34v10l-1 16q0 3 -1 10t-1 10q0 4 -1 13t-1 14v9v1l-3 39q-4 46 -5 77q-2 48 -2 74v2q-1 33 -1 100q0 13 -0.5 37.5t-0.5 37.5q0 43 -3 82q-1 15 -3 49q-1 19 -5 43v3q-3 5 -8 14.5t-7 14.5 q-12 22 -14 26q-16 32 -34 74q-7 17 -23 51l-1 3l-1 1l-3 7q-1 2 -3.5 8t-3.5 8q-20 45 -38 81q-17 35 -35 78q-34 82 -57 132l-2 4q-8 18 -32.5 75t-38.5 89q-4 8 2 21q6 9 16 12q1 0 3 0.5t3 0.5q8 4 12 4h50h4h4h11q1 0 3 0.5t3 0.5h2h1h7h4z" />
<glyph unicode="&#xfd;" horiz-adv-x="888" d="M229 1413q3 1 9 1q16 0 23 -13q39 -74 58 -121q2 -6 7 -16.5t6 -14.5v-1q2 -4 5 -12.5t4 -12.5q9 -25 21 -52q2 -3 4 -9.5t4 -9.5l1 -2l1 -3l1 -1l2 -4q2 -4 5 -11.5t5 -11.5q13 -31 24 -60l11 -27q5 -13 16 -41t17 -43q3 -7 10 -22.5t10 -23.5l1 -1l2 -5q3 -8 10 -23 t10 -22q10 -25 13 -31l5 -13l5 -10l2 6v2l5 14l1 1l9 27t10 32q3 9 9.5 28t9.5 29v1l2 6q1 3 2.5 8t2.5 7l6 18l5 13l1 3q3 7 7.5 21t6.5 21l5 14q15 45 24 67q6 14 14 35l2 6l3 6l1 3q2 5 5.5 15t5.5 15l5 12l3 7l3 8q6 16 20 50q5 12 22 51l1 3q1 3 4 10.5t5 11.5t3 7l1 1 q6 16 10 24q7 13 24 13q7 0 13 -3q22 -12 10 -37q0 -2 -2 -5t-2 -4q-1 -2 -20 -46l-12 -27q-17 -42 -45 -115q-2 -6 -7 -18t-7 -18q-1 -4 -4 -11.5t-5 -11.5q-12 -30 -23 -63q-5 -13 -13.5 -39t-12.5 -39q-1 -4 -4 -11.5t-4 -11.5l-2 -3q-6 -18 -18 -56q-10 -34 -26 -80 l-1 -2q-4 -10 -9.5 -29.5t-6.5 -22.5l-1 -3q-1 -4 -3 -11t-3 -11v-80q0 -13 0.5 -41t0.5 -41q0 -115 1 -169q1 -28 2.5 -84t1.5 -84q0 -14 2 -42v-4q0 -6 0.5 -18t0.5 -18q0 -5 1 -33.5t2 -44.5q0 -14 -12 -22q-1 -11 -8 -18.5t-17 -7.5h-2q-25 3 -28 4q-10 2 -13 4 q-2 1 -5.5 2.5t-4.5 1.5t-3.5 1.5t-3.5 2.5h-1l-3 3q-22 2 -25 20q-2 12 -4 34v10l-1 16q0 3 -1 10t-1 10q0 4 -1 13t-1 14v9v1l-3 39q-4 46 -5 77q-2 48 -2 74v2q-1 33 -1 100q0 13 -0.5 37.5t-0.5 37.5q0 43 -3 82q-1 15 -3 49q-1 19 -5 43v3q-3 5 -8 14.5t-7 14.5 q-12 22 -14 26q-16 32 -34 74q-7 17 -23 51l-1 3l-1 1l-3 7q-1 2 -3.5 8t-3.5 8q-20 45 -38 81q-17 35 -35 78q-34 82 -57 132l-2 4q-8 18 -32.5 75t-38.5 89q-4 8 2 21q6 9 16 12q1 0 3 0.5t3 0.5q8 4 12 4h50h4h4h11q1 0 3 0.5t3 0.5h2h1h7h4z" />
<glyph unicode="z" horiz-adv-x="927" d="M221 1409h36q28 0 42 -1h17.5t17.5 -1q8 -1 23 -2t23 -1q13 0 38.5 -1t37.5 -1q56 -2 167 -2h51h35h7q47 0 71 3h2q9 0 17 -8t8 -19v-4q1 -2 1 -5q3 -12 -2 -21q-8 -14 -11 -21l-27 -63l-8 -18q-14 -33 -37 -84l-1 -3q-3 -7 -29.5 -65.5t-40.5 -89.5q-3 -8 -49 -122 q-2 -6 -7.5 -19t-8.5 -19q-4 -10 -11.5 -29.5t-11.5 -29.5q-37 -94 -40 -101q-5 -11 -17.5 -40.5t-19.5 -46.5q-7 -16 -28 -63l-9 -18q-16 -34 -66 -151q0 -1 -0.5 -1t-0.5 -1q-49 -118 -66 -163q-25 -70 -27 -76t-4 -12.5t-5 -14.5t-4 -12q0 -1 -1 -3.5t-1 -3.5 q0 -2 -1 -5.5t-2 -5.5l-3 -9q12 1 34.5 2.5t33.5 1.5q8 0 23.5 1t23.5 1q7 0 20.5 1t20.5 1t21.5 1t21.5 1q48 3 83 3q5 0 14 0.5t14 0.5h11h17h23h1h3q3 0 8.5 0.5t8.5 0.5h20q9 0 25 -2q5 -1 14 -1h7q4 0 14 0.5t14 0.5h3h7q14 0 21 -1h3l18 -3q11 -2 17 -11t4 -20 q-1 -9 -9 -15.5t-17 -6.5h-5q-12 3 -25 3h-1h-18h-1q-4 0 -10.5 -0.5t-9.5 -0.5h-1q-17 0 -26 1q-1 0 -3.5 0.5t-3.5 0.5t-4 0.5t-4 0.5h-15h-26h-10l-28 -1h-27h-11q-31 0 -46 -1q-4 0 -13 -1t-14 -1t-14 -0.5t-13 -0.5q-7 0 -20.5 -1t-20.5 -1t-21.5 -1t-22.5 -1 q-7 0 -22 -1t-23 -1q-6 0 -18.5 -1t-19.5 -1q-6 0 -17 -1t-16 -1l-51 -3h-25q-36 0 -69 3q-11 2 -17 11t-4 21l1 1v1q0 7 2 19l3 14q1 2 1 6.5t1 6.5l3 15q8 39 21 83q18 60 25 81q15 47 30 85l2 4q18 50 28 75q3 7 35 79q7 15 19.5 46t14.5 37q5 14 35 82q7 15 18 42t15 35 q9 22 29 66l5 10q6 12 18 40t19 43q6 12 19 38.5t19 39.5q16 35 31 61l6 12l1 2q3 6 9.5 18t9.5 18q1 3 4 8.5t4 8.5l12 24q3 7 21 40q1 2 13 23q1 2 3.5 6.5t4.5 7.5q4 7 8.5 15t9 17.5t7.5 14.5t8.5 15.5t8.5 15.5q12 22 29 56h-15q-104 0 -149 1q-85 2 -175 7 q-23 1 -62 1h-22q-5 0 -14 -0.5t-14 -0.5q-21 -1 -64 -1h-1q-11 0 -19 8t-8 19t8 19t19 8h1q38 0 57 1q4 0 11.5 0.5t11.5 0.5z" />
<glyph unicode="{" horiz-adv-x="522" d="M411 25q9 -9 10 -18q2 -11 -7 -20q-6 -7 -18 -9q-14 -2 -23 -2q-13 0 -19 2q-2 1 -5.5 2t-6.5 2l-6 2q-4 2 -16 12q-20 16 -28 36q-6 16 -8 24q-10 43 -13 62q-9 55 -9 58q-1 10 -3 30.5t-3 30.5q-3 26 -7 85q-4 52 -7 85q-6 64 -10 91q-9 61 -13 85q-1 4 -2.5 12 t-2.5 13q-8 35 -22 63q-11 19 -20 30q-7 8 -21 17q-6 4 -9 5l-12 6q-6 3 -11 8l-7 7q-20 23 -3 49q7 11 23 33l12 21q10 18 15 28q10 21 23 55v-1l-1 -1q8 22 11 34q1 4 3.5 12.5t3.5 12.5l3 18q0 3 2 10t3 10q1 4 2 12.5t1 12.5q4 28 5 42q1 12 2.5 33.5t3.5 39t6 32.5 q7 29 20 66q11 31 25 54q20 34 33 50q7 9 21.5 25t15.5 18q8 10 20 10q5 0 11 -3q2 1 8 1h5q11 -2 17 -11.5t4 -20.5q-6 -36 -8 -50q-2 -11 -4 -37q-3 -24 -7 -72q-6 -57 -16 -171q-7 -86 -12 -175q-4 -72 -6 -146q-2 -91 0 -181q2 -95 7 -169q4 -55 7 -86q3 -29 11 -87 q2 -14 5.5 -41.5t5.5 -41.5q3 -24 13 -80q0 -1 2 -9.5t4 -12.5zM348 43l2 -2v4t-1 4q-3 13 -7 41q-8 54 -12 82q-16 112 -20 168q-8 112 -9 169q-1 60 -1 179q0 75 5 168t12 186q4 57 16 171q2 14 4.5 42.5t3.5 42.5q1 5 2 13t1 13q0 1 0.5 3.5t0.5 3.5q-7 -8 -14 -19 q-16 -26 -22 -40q-10 -23 -17 -41q-14 -43 -19 -92q-1 -8 -2 -22.5t-2 -21.5t-2 -21t-2 -22q-1 -3 -2 -9.5t-1 -10.5q0 -3 -1 -9.5t-2 -9.5q-8 -35 -9 -40t-3.5 -14t-3.5 -13l-6 -18q-2 -4 -3.5 -12t-3.5 -12t-5 -12t-5 -12q-2 -6 -18 -40q-13 -25 -41 -66q6 -2 9 -4 q9 -4 17 -11q18 -13 31 -29q26 -33 38 -75q11 -32 20 -84q3 -21 16 -129q3 -25 5.5 -53.5t5 -62.5t4.5 -53q3 -43 9 -91q3 -28 13 -84v2q9 -39 14 -50q1 -1 2.5 -3.5t2.5 -3.5z" />
<glyph unicode="|" horiz-adv-x="397" d="M295 310q2 -87 0 -175q-2 -140 -4 -168q-1 -7 -1 -22.5t-1 -23.5q-3 -32 -4 -39q-3 -19 -12 -33l-6 -9q-1 0 -1 -2q0 -1 -1 -2t-4 -6t-5 -7q-1 -1 -16 -13q-1 0 -4.5 -3t-5.5 -4q-17 -8 -24 -10q-3 -1 -9 -2t-9 -2q-9 -1 -19 7q-9 9 -10 18q0 6 1 9q-19 5 -19 24 q-1 51 -5.5 144.5t-5.5 130.5q-4 116 -4 174v179v175q0 28 0.5 85t0.5 86v172v185q0 25 -2 77q-2 58 -4 89q-4 58 -7 87q-2 21 -5.5 62.5t-5.5 61.5q-1 8 4 17q-1 6 0 11q1 10 9 16t18 6q1 0 2.5 -0.5t2.5 -0.5q42 -8 63 -15q20 -8 28 -16q2 -2 6 -6.5t6 -6.5q15 -18 19 -38 q13 -53 15 -173q0 -30 1 -88t1 -88q0 -29 1 -86.5t2 -86.5t1 -86.5t1 -86.5q1 -14 1 -42t1 -42t1 -43t1 -44q1 -59 5 -177q1 -25 1.5 -53t1 -62.5t0.5 -53.5zM241 120q2 204 -2 349l-3 84t-2 84q0 30 -2 90l-3 90q-1 58 -1 174q0 33 -2 91.5t-2 77.5q0 29 -1 86.5t-1 85.5 q0 29 -2 87q-2 48 -8 80q-4 14 -7 21q-1 2 -3 4.5t-3 3.5q-5 5 -8 7q-2 0 -4.5 1.5t-3.5 2.5q-4 1 -12.5 3.5t-12.5 3.5q10 -94 13 -145q1 -13 2.5 -39.5t2.5 -40.5q2 -20 2 -31v-21.5t1 -21.5q2 -55 2 -165v-181q0 -114 -1 -171q-1 -58 -1 -174v-177q0 -116 2 -174 q6 -174 6 -176q3 -57 7 -178v-6q1 0 5 2q14 9 16 11l1 1l1 1q1 2 2.5 4t2.5 4l1 2q1 2 2 3q3 4 4 8q4 15 5 25q0 5 1 14t1 14q3 62 5 186z" />
<glyph unicode="}" horiz-adv-x="473" d="M353 775q21 -23 18 -40q-2 -12 -16 -36q-2 -3 -5.5 -9t-4.5 -9q-9 -17 -18 -42q-5 -15 -10 -35q-1 -3 -3 -8.5t-2 -8.5q0 -4 -2 -12t-2 -12q-2 -12 -4 -36q0 -6 -1 -17.5t-2 -17.5q-2 -28 -2 -43q0 -9 -0.5 -28t-0.5 -28q0 -29 1.5 -86t1.5 -86q0 -31 -2 -93 q-1 -8 -2 -23.5t-1 -23.5q-2 -30 -7 -44q-5 -16 -11 -25q-5 -11 -15 -22q-7 -8 -18.5 -9t-19.5 6q-1 1 -6 8q-19 5 -21 24q-1 27 -5 80.5t-6 79.5q-2 27 -4 85q0 9 -0.5 37.5t-1.5 43.5q-2 29 -5.5 88t-5.5 88q-1 19 -3 54t-3.5 63.5t-2.5 53.5q-2 56 -8 176q-5 87 -12 169 q-10 120 -16 179q-17 150 -22 180q-1 11 6 19.5t18 9.5h2q11 0 18 -6q6 -1 12 -6q22 -19 36 -41q13 -21 24 -47q18 -46 27 -92q7 -36 8 -46q1 -8 2.5 -23t2.5 -22q6 -54 8 -81q2 -25 8 -91q1 -15 5 -40q2 -13 8 -39q9 -34 14 -44q2 -4 18 -28q6 -10 10 -15q10 -15 23 -29z M292 696l12 21t11 21q-3 3 -8.5 9.5t-8.5 9.5q-3 4 -9 12.5t-9 12.5q-16 24 -23 37q-11 21 -17 41q-1 5 -3 14t-3 14q-10 47 -14 85q-2 15 -4 45l-3 45q-2 31 -8 85q-1 8 -3.5 23.5t-3.5 23.5q-1 6 -3 18.5t-3 19.5q-10 42 -23 73q1 -13 4 -38.5t5 -38.5q3 -25 5.5 -53.5 t5 -62.5t4.5 -53q5 -59 13 -179q6 -112 8 -168q2 -58 8 -174q2 -29 6.5 -87.5t5.5 -87.5q1 -28 2.5 -85.5t3.5 -86.5q1 -27 5 -76q0 2 0.5 6.5t0.5 6.5v-7q2 40 -1 241q0 59 1 89q0 13 2 41q0 9 2 27q0 12 1 18q6 42 6 44q2 12 4 20l6 24q14 48 25 70z" />
<glyph unicode="~" horiz-adv-x="907" d="M799 638q19 -26 -20 -72q-2 -2 -5.5 -6t-5.5 -6q-1 -1 -4 -3t-4 -3q-18 -14 -28 -20q-20 -11 -44 -21q-26 -12 -39 -16q-28 -8 -42 -11q-40 -8 -48 -8q-46 -3 -87 1q-27 2 -41 5q-8 1 -23.5 5t-17.5 4q-7 2 -20.5 5t-19.5 4l-42 9q-24 4 -74 8q-12 1 -35 1q-17 0 -26 -1 l-9 -9q-9 -9 -18 -10q-5 0 -11 2q-11 -2 -17 2q-11 6 -14 15q-3 6 -1 14q1 1 1 3.5t1 3.5q3 11 22 19q14 7 17 8l1 1h1q12 12 19 18q26 21 47 32q38 20 53 24q33 9 56 8q34 -2 51 -5q29 -4 40 -7q54 -10 82 -15q38 -6 74 -9q15 -1 47 -1q15 0 45 4q22 6 33 10q13 5 37 15 q3 2 9.5 5t9.5 4q7 3 22 5h2q9 0 14 -3q10 -6 12 -9zM644 547q22 8 32 13h-2q-37 -8 -88 -6q-40 1 -90 8q-42 6 -84 15q-28 6 -42 8q-30 4 -40 5q-23 0 -34 -2q-25 -6 -49 -18q-1 0 -2.5 -1t-2.5 -2t-2 -1q49 -3 105 -14q13 -2 39 -8.5t39 -9.5q35 -7 77 -10q7 0 21 0.5 t21 0.5q13 0 20 1q3 0 11 1t11 2q4 1 13 3.5t13 3.5q15 4 34 11z" />
<glyph unicode="&#xa1;" horiz-adv-x="514" d="M398 68q11 -8 13 -21q2 -24 -25 -28l-1 -1h-2q-2 -1 -6 -1h-2h-2q-4 -1 -12.5 -2t-12.5 -1q-25 -4 -35 -5q-11 -1 -32.5 -2.5t-31.5 -2.5q-44 -4 -68 -4h-3q-13 0 -37 2q-1 0 -3 0.5t-3 0.5q-10 2 -15 4t-12 11q-4 5 -4 14q0 10 1 16q-1 3 -1 10q0 2 -0.5 5.5t-0.5 5.5 v22v45v29.5v35v29.5q2 104 8 176q1 15 4 43.5t4 42.5t3 43.5t3 44.5q3 49 7 154q2 51 8 161q0 5 1 17t1 18v-8q2 47 8 141q1 18 1 55v31v15q0 14 3 27q4 17 14 23q10 7 23 5q18 -3 24 -24q3 -11 7 -33q2 -9 5 -26.5t5 -26.5l30 -174q5 -28 14 -84.5t13 -84.5 q5 -30 14.5 -90.5t13.5 -90.5q4 -31 14.5 -88.5t14.5 -79.5q4 -27 8.5 -57.5t10 -68t8.5 -57.5q4 -27 12.5 -82.5t12.5 -83.5zM325 65q3 1 9.5 1t9.5 1q-1 11 -5 33.5t-5 33.5q-5 30 -13.5 89t-12.5 89q-8 52 -12 77q-2 15 -7.5 44.5t-8.5 44.5q-3 14 -5.5 29.5t-5 34.5 t-4.5 29q-2 14 -6.5 42t-6.5 42q-9 65 -26 169l-27 162q-2 -18 -2 -26v2q-1 -7 -1 -21.5t-1 -21.5q0 1 0.5 3.5t0.5 3.5q-1 -11 -2.5 -34t-1.5 -35v2q-6 -104 -8 -160q-2 -62 -10 -181q-2 -28 -6.5 -84t-6.5 -84q-5 -82 -5 -146v-75q0 -6 0.5 -18t0.5 -18v-9.5v-12v-9.5 q1 -2 3 -8h4q17 -1 51 1q9 1 26.5 3t26.5 2q10 1 29 2.5t28 2.5zM175 1293q-26 3 -50 30q-17 20 -15 47q0 6 2 20q1 6 5 18q11 29 30 42q14 9 28 12q12 2 18 2q7 0 11 -1q8 -2 11 -3q18 -6 31 -21q5 -7 10 -16q4 -10 5 -15q4 -16 -1 -37t-13 -34q-11 -21 -24 -29 q-5 -4 -26 -13q-2 -1 -12 -1q-1 0 -2.5 -0.5t-2.5 -0.5h-5zM167 1387q-2 -7 -4 -17q0 -1 0.5 -4t0.5 -4v-1q1 -1 1 -2l1 -1q0 -2 1 -2q2 -2 8 -6q1 0 2 -1l2 -2h2l4 2t4 1q4 2 6 4q1 1 3 5l7 14q0 1 3 17v9q0 1 -0.5 1t-0.5 1l-1 1q0 2 -1 2q-1 1 -4 3q-1 1 -2.5 2t-2.5 1 h-3h-5q-1 0 -3.5 -1t-3.5 -2q-4 -2 -5 -3l-3 -3q-1 -2 -6 -14z" />
<glyph unicode="&#xa2;" horiz-adv-x="983" d="M876 293q7 -12 4 -26q-4 -17 -24 -43q-3 -3 -9 -11t-9 -11q-8 -8 -13 -12q-22 -18 -34 -26q-20 -14 -31 -20q-78 -43 -147 -63q-3 -1 -9.5 -3t-9.5 -3q0 -3 0.5 -7t0.5 -7q1 -7 2 -21.5t1 -21.5t1 -19.5t1 -18.5q1 -13 -10 -24q-10 -10 -24 -10q-13 0 -23 10q-8 8 -10 24 q-1 9 -2 27t-2 27q-1 5 -1 14.5t-1 13.5q-1 0 -3 -0.5t-3 -0.5q-50 -2 -86 2q-13 1 -34 5q-18 3 -45 16q-22 9 -36 18q-20 13 -37 25q-19 13 -38 29q-6 5 -16 15l-15 15q-10 11 -30 35q-18 23 -28 39q-10 18 -20 37q-11 23 -19 45q-8 24 -11 43q-4 30 -4 45q0 14 2 44 q1 5 2.5 14.5t1.5 13.5q3 16 4 20q10 37 12 43q11 33 32 67q13 20 25 37q20 26 32 37q11 10 35 28q67 47 108 62q30 11 61 15q36 4 55 4h3q7 0 22 -0.5t22 -0.5h7q0 2 -0.5 6.5t-0.5 6.5l-9 96q-2 13 9 24q10 10 24 10t24 -10q6 -6 9 -15q0 -2 0.5 -5t0.5 -4q3 -21 10 -116 q4 -1 11 -3t10 -2q20 -4 40 -12q18 -6 44 -19q13 -7 37 -23q2 -1 23 -17q16 -12 28 -28q22 -26 31 -40q1 -2 3.5 -5t3.5 -5q3 -5 12 -25q9 -21 11 -51q1 -13 -10 -23.5t-24 -10.5q-14 0 -24 10q-7 7 -9 24q0 1 -0.5 3t-0.5 3q-1 11 -6 22q-8 18 -27 42q-20 23 -25 27 q-9 8 -19 16q-22 14 -33 20l-18 9l-10 5q-5 2 -22 7q-3 1 -11 3t-11 3l-1 1v-65q0 -15 -1 -43.5t-2 -42.5q-1 -28 -1 -85v-174v-183q1 1 2.5 1h2.5q24 8 56 20q69 30 118 66q10 8 15 13q10 10 14 15q10 14 14 21q0 1 0.5 2t0.5 2q3 13 15.5 20t25.5 3q14 -4 20 -15zM270 225 q12 -12 19 -18q-1 1 -2 3t-2 3q-9 16 -20 43q-10 26 -14 40q-16 55 -20 86q-5 31 -3 93q1 45 14 92q7 26 16 44q16 33 28 50q22 28 36 41q1 0 2 2t2 2q-2 -1 -5.5 -3t-5.5 -3q-13 -8 -37 -26q-21 -18 -39 -39q-14 -18 -20 -28q-21 -37 -26 -48q-10 -23 -16 -52 q-3 -10 -5 -32q-4 -50 -1 -75q5 -27 19 -62q1 -3 4.5 -9.5t5.5 -9.5q8 -16 10 -19t6 -9.5t6 -9.5l12 -15q30 -35 36 -41zM525 568q0 14 2.5 73t1.5 91q-3 0 -8 -0.5t-8 -0.5q-22 -4 -52 -16l-18 -9q-16 -8 -19 -10l-18 -12l-7.5 -5t-6.5 -5q-16 -12 -24 -20q-12 -12 -23 -26 q-15 -21 -28 -48q-7 -18 -12 -36q-3 -12 -7 -36q-3 -27 -3 -54q0 -38 1 -57q2 -11 14 -63q6 -24 20 -59q10 -22 16 -32q14 -22 21 -32q12 -15 26 -29q10 -10 32 -28l15 -9q2 -1 6 -3.5t6 -3.5q16 -7 38 -10q24 0 35 1q-1 28 -1 84v175q0 120 1 180z" />
<glyph unicode="&#xa3;" horiz-adv-x="962" d="M826 66q13 1 23.5 -9.5t10.5 -23.5q0 -14 -10 -24q-8 -8 -24 -10q-12 -1 -36 1q-30 4 -44 7q-5 1 -11 2.5t-13.5 3.5t-11.5 3q-5 2 -16.5 4.5t-17.5 3.5q-29 7 -76 16q-11 2 -34 6t-34 6q-44 5 -100 7q-41 1 -97 -4q-41 -7 -50 -10q-11 -3 -50 -17q1 0 1 0.5t1 0.5 q-3 -2 -9.5 -5t-9.5 -4q-28 -13 -34 -16q-10 -6 -28 -18q-11 -7 -25 -3.5t-21 15.5q0 1 -1 2.5t-2 2.5q-11 17 0 34q1 3 12 16l8 8q3 4 9.5 10t9.5 9q4 5 7.5 11t7.5 13.5t6 11.5q2 3 5.5 9t5.5 9q6 9 16 27q3 8 13 37q10 32 13 48q2 19 4 55q2 27 2 83q0 14 -0.5 42.5 t-0.5 42.5q-1 29 -2 86.5t-1 85.5q-1 60 1 178q2 97 7 176q2 27 8 81q4 36 7 54q4 24 7 35q8 31 21 59q15 35 30 54q22 29 42 45q31 23 53 34q29 14 52 20q5 2 16 4t12 2q8 2 28 4q16 2 24 2q11 0 31 -2q32 -5 55 -14q26 -11 49 -25q23 -15 41 -30q7 -6 13 -13 q16 -16 25 -29q17 -23 31 -62q18 -49 23 -83q5 -43 5 -50q0 -5 0.5 -16t0.5 -16q-1 -27 -8 -62q-2 -12 -15 -20q-10 -6 -26 -3q-14 4 -20 15q-5 8 -5 17q0 2 1 5t1 4q0 3 1 9.5t2 9.5q1 9 1 54q0 8 -2 26q-3 25 -9 47q-10 34 -16 50l-6 12q-10 20 -17 29q-13 17 -37 37 q-16 12 -23 15q-14 8 -28 14q-2 1 -7 2.5t-8 2.5l-11 -11q-8 -8 -11 -12q-4 -4 -10 -12t-10 -12q-2 -3 -5.5 -7t-5.5 -6q-14 -18 -24 -39q-10 -19 -17 -37q-13 -34 -14 -37q-5 -15 -13 -45t-18 -85q-7 -60 -7 -101q0 -71 1 -106q1 -25 3 -73q108 4 162 5h1q14 0 23.5 -9.5 t9.5 -23.5t-10 -24t-24 -10q-51 -1 -158 -5q1 -10 1 -31q4 -116 5 -174q2 -114 1 -171q0 -28 -1 -42q0 -7 -1 -15t-2.5 -17l-2.5 -15q-4 -28 -7 -41q-1 -5 -5 -20q-1 -2 -1 -5t-1 -5q4 0 11.5 -0.5t11.5 -0.5q62 -4 93 -9q12 -2 26 -4.5t31.5 -5.5t26.5 -5q80 -17 86 -18 q7 -2 21.5 -5.5t21.5 -5.5l30 -6q24 -2 36 -1zM395 1104q7 33 25 79q32 77 53 104q6 8 25 32h-1q-3 -1 -9.5 -3t-10.5 -2q-24 -6 -36 -11q-30 -14 -49 -28q-14 -11 -32 -32q-16 -22 -29 -52q-14 -36 -19 -66q-1 -5 -2.5 -15t-2.5 -15q-1 -4 -2 -12.5t-1 -12.5 q-9 -86 -12 -170q-3 -89 -3 -176q0 -58 2 -175t2 -175q0 -57 -2 -85q-2 -30 -4 -43q-4 -30 -9 -46q-1 -3 -3 -9.5t-3 -10.5q-15 -44 -25 -62q-2 -3 -5.5 -9t-5.5 -9q7 3 31 10q24 6 36 8q8 1 23 3t23 3q2 0 6.5 0.5t6.5 0.5q0 7 1 10q2 4 4 12.5t2 10.5q3 9 4 19q1 6 3.5 18 t3.5 18q4 34 4 52q1 20 1 59q0 57 -2 173q-2 114 -5 170q0 14 -2 43t-3 43q0 9 -1 26.5t-1.5 31.5t-0.5 26q0 60 1 89q2 57 6 86q4 33 18 92z" />
<glyph unicode="&#xa5;" horiz-adv-x="956" d="M852 1346q3 -9 0 -18q0 -2 -1 -4.5t-2 -3.5q-3 -7 -9.5 -21t-9.5 -21q-22 -50 -34 -74q-13 -26 -41 -76q-21 -38 -40 -74q-6 -12 -19.5 -37t-20.5 -38q-3 -6 -11 -18.5t-11 -19.5l-21 -36q-30 -52 -44 -78q-6 -12 -20 -36t-20 -36q-4 -7 -12 -20.5t-12 -20.5 q-4 -6 -8.5 -13t-10 -15.5t-8.5 -13.5q-2 -4 -4 -6q0 -8 0.5 -23t0.5 -23q42 2 62 2q14 0 44 -2q16 -2 23 -9q10 -10 10 -24t-10 -24q-11 -11 -23 -10q-42 4 -104 0v-27q0 -10 0.5 -31t0.5 -31q15 1 101 11h2q12 0 22 -10t10 -24t-10 -24q-4 -5 -15 -8q-1 0 -4 -1t-5 -1 q-30 -4 -100 -10q0 -5 0.5 -15.5t0.5 -15.5q0 -52 2 -79q1 -14 3 -42.5t3 -42.5t3.5 -41.5t3.5 -41.5q0 -6 1 -19.5t1 -20.5q0 -5 1 -13.5t1.5 -15.5t0.5 -13q0 -13 -10.5 -23.5t-23.5 -10.5t-23 10t-10 24q0 1 -3 40q-1 6 -1 17.5t-1 17.5q-1 13 -3.5 39.5t-3.5 39.5 t-2.5 38.5t-2.5 38.5q-1 7 -1 20t-1 20q-1 11 -1 35q0 34 -1 51q-52 0 -78 1q-14 1 -24 10t-10 23t10.5 24.5t23.5 9.5q25 -1 76 -1v51q0 6 -0.5 18t-0.5 18q-25 -2 -83 -8q-12 -1 -23 10q-10 10 -10 23q0 14 10 24q6 6 15 9q1 0 4 0.5t4 0.5q52 6 82 8q-1 10 -1 31.5 t-1 32.5v1q-2 5 -7.5 15t-8.5 15q-69 134 -78 151q-20 41 -71 153q-48 106 -73 158q-32 64 -38 77l-42 90q-5 8 -5 17q0 2 1 5t1 4t1 3t1 3q2 12 9 19q6 6 15 9q2 0 5 0.5t4 0.5q11 1 34 3.5t35 3.5q18 2 27 2h4h4q15 0 21 -5q10 -7 15 -16q5 -7 5 -8q14 -30 47 -112 q20 -46 31 -69q6 -11 17 -33.5t16 -33.5q13 -26 37 -78l36 -72q6 -12 18.5 -36.5t18.5 -37.5l24 -48q4 7 12 21.5t12 21.5q3 6 10 18.5t11 18.5t11.5 18t10.5 18q8 14 22.5 40t18.5 34q7 13 21 39.5t21 39.5q7 12 20 35t19 35q14 25 38 77q6 13 17.5 39t17.5 39q4 11 20 15 q3 1 9 1q10 0 17 -4q11 -6 15 -20zM467 749l24 42q-3 2 -7 8q-15 28 -28 56q-5 9 -13.5 27t-12.5 27q-4 7 -24.5 47t-30.5 62q-24 52 -37 78q-7 13 -37 76q-14 27 -38 83q-5 13 -15.5 39t-15.5 38q0 -2 2 -4t2 -4q-2 3 -4.5 9t-3.5 9q-2 0 -5 -0.5t-4 -0.5q-4 -1 -11.5 -2 t-11.5 -1q-5 -1 -15 -1l3 -6q14 -31 42.5 -88.5t33.5 -68.5q14 -29 38 -82t33 -72q37 -82 72 -152q7 -14 28.5 -56.5t33.5 -65.5q1 0 1 1t1 2z" />
<glyph unicode="&#xa9;" horiz-adv-x="917" d="M814 776q2 -28 2 -41q0 -15 -2 -47q0 -2 -6 -49q-6 -40 -20 -79q-17 -44 -33 -70q-26 -42 -48 -62q-17 -16 -37 -31q-20 -16 -29 -21q-25 -17 -59 -28q-40 -13 -75 -19q-29 -4 -67 -4h-56q-43 4 -63 12q-12 5 -34 15q-28 14 -41 24q-15 11 -31 27q-40 40 -61 83 q-10 20 -23 52q-20 50 -25 84q-4 24 -4 36q0 19 1 29q1 5 2 16.5t1 17.5q1 12 5 31q1 4 2 11.5t2 11.5q6 34 24 80q11 26 21 42q16 27 25 37l18 21q14 15 29 29q45 41 75 56q20 10 52 23q21 8 35 10l30 3q8 1 18 -5q4 2 6 2q3 1 9.5 2t10.5 2q20 3 38 3h10q5 0 13.5 -1 t12.5 -2q21 -3 42 -9q57 -18 101 -58q18 -15 35 -32q14 -13 31 -35q6 -7 25 -39q15 -25 22 -47q2 -5 4.5 -16t3.5 -16q2 -8 4 -20q0 -4 1.5 -14t2.5 -15zM306 899q12 39 35 83q-16 -8 -34 -21q-25 -20 -41 -37q-12 -12 -34 -38q-14 -19 -29 -52q-9 -22 -15 -45 q-1 -4 -3.5 -12.5t-3.5 -13.5t-2.5 -14.5t-2.5 -13.5q-8 -64 -5 -97q5 -32 29 -92q1 -3 3.5 -9t4.5 -9q16 -32 31 -52q20 -24 44 -44l15 -9q-2 4 -5 11.5t-4 11.5q-18 46 -25 113q-4 42 -3 83q2 43 6 83q8 62 15 90q10 42 24 84zM387 398h1v-1v1h-1zM748 718v33q0 16 -1 24 q-7 46 -18 73l-12 24q-5 11 -7 13q-1 2 -17 23q-33 37 -64 62q-25 17 -47 27q-22 8 -33 11l-18 3q-28 2 -41 1q-24 -4 -37 -8q-7 -3 -23 -15q-2 -2 -7.5 -6.5t-7.5 -7.5q-16 -23 -31 -56q-6 -15 -16 -45q-5 -15 -13 -45q-1 -3 -5.5 -20.5t-6.5 -26.5q-3 -14 -7 -42 q-7 -54 -8 -95q-2 -51 4 -96q3 -20 13 -58q6 -23 20 -57q8 -15 9 -17q2 -3 6 -8.5t6 -8.5q8 -2 14 -8h35q29 0 57 3q10 2 38 8q33 9 46 14q24 11 45 27l12 9q18 15 19 16q24 24 29 30q20 28 36 62q11 28 17 53q3 14 10 52q4 34 4 52zM611 629q12 -7 15.5 -20.5t-3.5 -25.5 q-18 -33 -49 -46q-14 -6 -28 -9q-12 -3 -26 -3q-9 0 -27 2q-54 9 -82 44q-18 22 -25 39q-7 13 -10 32q-3 24 -3 25q0 29 7 51q1 3 3 10t3 10q2 4 4.5 11t3.5 10q6 14 10 20q15 25 39 42q20 14 48 16h6q9 0 27 -2q14 -2 19 -4q21 -7 26 -10q3 -2 7.5 -6t5.5 -4q4 -2 6 -4 q7 -10 9 -13q6 -10 7 -15q3 -14 3 -26q0 -13 -10.5 -23.5t-23.5 -10.5q-14 0 -24 10t-10 24v7l-1 1l-6 3l-21 6h-18q-2 0 -4.5 -1t-3.5 -1q-5 -2 -8 -5q-6 -4 -10 -10q-2 -2 -12 -23q-10 -26 -14 -44q-1 -15 0 -30q1 -6 5 -16l4 -8q5 -9 8 -13q6 -8 14 -14q2 -1 5.5 -3.5 t5.5 -3.5q10 -4 23 -6h17q7 1 21 5l9 6l6 6q1 1 3 4t3 4q7 12 21 15.5t25 -3.5z" />
<glyph unicode="&#xad;" horiz-adv-x="661" d="M558 613q3 -8 1 -20q0 -4 -2 -14q0 -15 -2 -23q-8 -31 -30 -36q-1 0 -29 -3q-4 0 -11 -0.5t-10 -0.5q-55 -4 -85 -5q0 -1 -42 -1l-42 1h-39h-44q-7 0 -20.5 0.5t-20.5 0.5q-52 3 -53 3q-9 1 -17 11q-6 9 -4 21l-1 1q-6 9 -4 21q1 13 10 27q5 9 8 17q3 10 7 16q9 17 16 21 q10 6 22 6h7h17h20q10 0 29 -0.5t28 -0.5q29 0 85 -2q32 -2 47 -3l36 -3q1 0 28.5 -1t41.5 -2q5 0 13 -2q15 -3 27 -12q11 -9 13 -17zM504 579v11q-10 2 -13 2h-26t-26 1l-30 3t-30 2q-74 4 -112 4h-55h-26h-1h-5h-5l-3 -6q-2 -8 -4 -12q0 -1 -5 -8q-1 -1 -2.5 -4.5 t-2.5 -5.5h8q2 0 7 -0.5t8 -0.5q27 -1 82 -1h37h48q41 0 83 3q7 1 21 1t21 1q3 0 10 1t11 1h9q0 1 0.5 3.5t0.5 4.5z" />
<glyph unicode="&#xae;" horiz-adv-x="942" d="M840 742q1 -47 -9 -107q-8 -44 -22 -80q-9 -24 -21 -48q-9 -19 -20 -37q-6 -10 -29 -38q-24 -29 -50 -48q-20 -15 -50 -27l-30 -12q-30 -12 -61 -15q-8 0 -16 -1t-18 -2.5t-16 -2.5q-30 -4 -59 0q-15 2 -43 8q-46 11 -59 17q-17 7 -51 23q-16 8 -19 10q-16 12 -24 20 q-11 11 -16 17q-5 5 -14.5 16t-14.5 17q-11 13 -33 41q-10 14 -22 39q-2 5 -6 14.5t-6 13.5q-17 45 -21 66q-8 40 -8 61v20q0 28 1 42q1 17 5 51q8 52 17 79q17 47 37 82q24 41 51 68q23 23 37 32q3 3 10 7.5t10 6.5q8 6 33 17q13 6 25 11q17 6 32 9q9 2 31 4q3 0 11 0.5 t11 0.5h1q16 0 26 -14h5q23 2 41 -1q23 -3 50 -9q34 -8 77 -25q30 -12 44 -20q6 -4 18.5 -11.5t18.5 -10.5q13 -8 37 -28q33 -29 48 -51q17 -24 31 -62q4 -11 11 -37q8 -28 11 -42q8 -34 8 -64zM255 899q6 16 20 48q14 33 41 72q1 2 4 5t4 5q-1 0 -8 -5q-3 -2 -9 -5.5 t-9 -5.5t-9 -6.5t-9 -6.5q-20 -18 -24 -22q-1 -1 -16 -19q-12 -16 -20 -32q-3 -6 -18 -35q-11 -27 -18 -52q-5 -19 -11 -55q-3 -29 -3 -56q-2 -41 2 -70q6 -33 24 -80l12 -27q8 -14 12 -20q-5 27 -7 62q-1 14 -1 44q0 31 1 46q1 38 10 88q8 47 19 85q8 28 13 42zM768 664 q7 60 4 97q-1 9 -5 27q-1 5 -3.5 15l-3.5 14q-6 23 -19 59q-10 23 -20 37q-18 21 -51 49q-7 5 -35 21q-4 2 -35 18q-17 7 -51 19q-27 8 -63 15q-6 1 -19 1h-24q-10 -2 -15 -4q-7 -3 -23 -15q-15 -14 -22 -21q-5 -5 -13 -17q1 1 2.5 3.5t2.5 3.5q-15 -21 -26 -41 q-14 -28 -20 -42q-10 -24 -14 -37q-6 -19 -13 -44q-9 -34 -16 -80q-6 -60 -7 -91q-1 -36 4 -87q7 -50 19 -79q12 -26 25 -44q0 -1 1.5 -3t2.5 -2q2 -1 6.5 -4l7.5 -5q8 -5 13 -15q22 -8 43 -12q40 -9 43 -9q26 -3 44 -1q4 0 12 2t12 2q7 1 22 2t16 1q18 4 44 14q46 21 59 30 q18 14 41 41q21 31 26 39q2 4 5.5 11.5t5.5 10.5t5 8.5t4 8.5q10 27 18 54q3 9 10 50zM601 640q6 -21 9 -43q2 -12 -10 -24q-10 -10 -24 -10t-24 10q-4 4 -8 15q0 1 -0.5 3t-0.5 3q-3 21 -11 42q0 1 -5 8l-12 12q-13 10 -25 15q-6 2 -25 7l6 -48q0 -1 0.5 -3.5t0.5 -3.5 q3 -9 0 -18q0 -1 -1 -4t-2 -4q-6 -11 -20 -15q-16 -3 -26 3q-13 8 -15 20q-10 68 -14 102q-2 15 -6 45.5t-6 46.5q-2 1 -7 9q-6 10 -3 26q4 14 15 20q27 12 50 16q12 2 19 2q10 0 15 -1q16 -2 26 -5q30 -9 46 -26q4 -4 10 -12q1 -1 2 -2.5t2 -2.5q1 -2 3 -8t3 -8q2 -8 2 -13 q-2 -36 -22 -56q-9 -9 -14 -12q26 -15 40 -29q10 -10 14 -16q8 -11 12 -22l2 -6t2 -7t2 -6zM497 789q0 1 0.5 1t0.5 1q-1 1 -4 3l-9 6q-5 2 -19 4q-2 0 -6 0.5t-6 0.5q-1 0 -2.5 -0.5t-2.5 -0.5q1 -6 2.5 -19.5t2.5 -20.5q2 1 6.5 2.5t6.5 2.5q15 6 25 13l3 3q1 1 1 2t1 2z " />
<glyph unicode="&#xb0;" horiz-adv-x="473" d="M367 1475q3 -13 3 -27q0 -15 -3 -30q-3 -19 -10 -34q-12 -28 -38 -48q-16 -13 -32 -18q-20 -8 -32 -9q-15 -2 -47 2q-8 2 -11 3q-24 7 -29 10q-23 12 -39 31q-7 8 -14 24q-5 13 -8 27q-2 10 -4 26q-3 30 3 57q1 6 8 26l9 24q15 28 38 46q14 11 46 25q8 3 18 0q14 4 22 4 q10 0 14 -1q15 -4 24 -9q12 -8 17 -12q4 -3 10 -11q2 -2 5 -5.5t4 -5.5q23 -32 31 -52q12 -28 15 -43zM310 1412q4 15 6 30q0 8 -2 24q-6 20 -15 40q-11 21 -29 42q-4 4 -7 6q-6 4 -10 5q-4 2 -7 2h-1q-1 -1 -2.5 -1t-2.5 -1q-10 -3 -17 -1l-15 -6q-12 -8 -17 -12 q-5 -5 -15 -17q-9 -16 -13 -28q-5 -16 -7 -37q0 -24 4 -43q0 -1 2 -8t4 -11l6 -9q4 -4 12 -10q3 -1 9.5 -4t9.5 -5q15 -4 31 -6q6 0 20 2q11 3 20 7q6 3 16 11q5 5 13 15q3 5 7 15z" />
<glyph unicode="&#xb5;" horiz-adv-x="983" d="M880 675q1 -14 1 -41q0 -28 -5 -171l-6 -168v-84v-84q0 -13 -2 -39q-2 -25 -9 -39l-9 -12q-7 -7 -11 -10q-3 -3 -7 -5q-10 -6 -32 -12q-6 -2 -16 -4q-29 -4 -39 -2q-19 3 -28 19q-5 10 -9 28q-6 34 -4 88q0 14 2 42.5t2 42.5v9q-8 -17 -17 -34q-8 -17 -20 -35 q-25 -38 -46 -57q-2 -2 -28 -22q-23 -15 -26 -17q-27 -16 -55 -20q-33 -4 -68 2q-16 3 -46 11q-31 10 -40 13q-21 8 -28 13q-16 10 -24 18q-20 18 -36 46q0 -9 1 -26.5t1 -26.5q0 -14 1 -42t2 -41q0 -9 1 -26.5t1.5 -31.5t0.5 -26v-40v-19q0 -6 -2 -16q-1 -6 -4 -13 q-2 -4 -8 -12q-10 -12 -26 -19q-14 -6 -23 -7q-27 -5 -50 -2q-9 0 -17 5q-1 1 -3.5 2.5t-3.5 2.5q-5 5 -8 13q-23 7 -25 33q-1 21 -4.5 72t-4.5 78q-2 89 0 178q1 29 2 87.5t1 87.5q2 112 1 168q-2 132 -2 197v1q-2 8 -2 12q0 13 10 23q7 7 14 9q1 0 4 0.5t5 0.5q29 4 62 6 h2q17 0 25 -2q2 -1 4 -1t4 -1q10 -4 15 -7q10 -6 15 -12q1 0 2 -2l1 -2q7 -7 8 -15q4 -10 5 -16q2 -9 4 -27q3 -38 1 -86q0 -10 -1 -29t-1 -28v-8q4 -128 9 -170q2 -14 6 -41.5t6 -40.5q0 -3 9 -43q10 -43 13 -51q5 -10 17 -28q12 -14 19 -20q12 -8 19 -11q15 -6 47 -14 q26 -8 40 -10q18 -2 36 0q13 2 23 6q16 8 44 28q13 11 29 30q28 40 57 102q9 21 23 65q7 23 17 69q15 75 23 131l3 36q4 36 4 83q0 26 1 39q0 3 0.5 9t0.5 9v9q0 6 2 14q1 6 10 17q13 15 48 17q2 0 7 0.5t7 0.5h5q13 0 25 -3q14 -3 25.5 -15t15.5 -27q5 -19 7 -59zM215 -126 v28q0 7 -0.5 21.5t-0.5 21.5q0 29 -2 85q-1 19 -2.5 53.5t-2.5 62.5t-1 53q0 111 1 167q1 14 2 44t1 45q0 14 2 41.5t2 40.5q0 3 0.5 7t0.5 6q-1 27 -3 80.5t-3 80.5l-2 1q-9 1 -28 -1q-1 0 -3.5 -0.5t-3.5 -0.5q0 -49 2 -149q1 -117 -3 -353q-2 -118 -1 -176q0 -44 3 -86 q4 -53 5 -77q16 0 24 1q1 0 4.5 1t5.5 2q2 0 3 1zM758 70h-1h1zM812 541q2 56 2 84q0 52 -3 78q-1 1 -1 4t-1 5h-4l-3 -78q-1 -28 -5 -79q0 -2 -2.5 -33t-3.5 -47q-2 -54 -4 -81q-1 -14 -4 -42.5t-4 -42.5q-2 -28 -4 -84q-1 -14 -2 -42t-2 -42q-1 -31 2 -69l21 6l6 3 q0 1 0.5 2.5t0.5 2.5q2 21 2 64v72q0 100 2 150q1 28 3.5 84.5t3.5 84.5z" />
<glyph unicode="&#xb6;" horiz-adv-x="987" d="M861 1441q13 -4 20 -15.5t4 -24.5v-16q0 -85 -1 -127q0 -23 -2 -67q-2 -50 -2 -77q-1 -38 -1 -113q0 -11 -0.5 -34t-0.5 -35q0 -3 -3 -102q-1 -12 -1 -36t-1 -36q-4 -163 -3 -348q0 -59 1 -86q0 -29 1 -43q2 -28 2 -40v-24q0 -22 2 -64q2 -26 3 -40q0 -3 0.5 -8.5 t0.5 -8.5l3 -30q1 -12 -7.5 -21t-19.5 -11q-4 -8 -8 -12q-10 -10 -22 -10h-2q-1 0 -4 0.5t-5 0.5q-1 0 -2.5 -0.5t-2.5 -0.5h-1h-4q-1 0 -3.5 0.5t-3.5 0.5q-14 0 -26 3q-6 2 -10 3q-1 0 -5 2q-1 0 -2 0.5t-2 0.5q-6 1 -11 5h-1q-7 4 -13 10q-4 4 -8 10v1l-1 1l-1 2 q-6 14 -6 16q-2 17 -4 47q0 9 -1 26t-1.5 31t-0.5 26q0 43 -3 84l-3 42l-3 39q-4 55 -4 166v7q0 109 1 162q-41 -8 -71 -10q0 -100 6 -284q1 -43 5 -122q1 -8 2 -25t1 -25q0 -10 1 -28t1.5 -32.5t0.5 -26.5q1 -14 1.5 -42t0.5 -42t-8 -22q-11 -11 -25 -11t-24 10t-10 23 q-2 66 -3 98q0 19 -2 55q-2 64 -4 92l-3 60q-2 42 -4 132l-1 37q-3 144 -3 148h-4h-3q-17 0 -51 2q-52 4 -92 12q-53 10 -83 22q-34 15 -44 21q-17 11 -35 25q-16 14 -33 30q-18 18 -38 51q-14 24 -20 38t-16 44q-9 31 -13 44q-4 12 -11 61q-1 8 -3 22l-1 8q-1 4 -2 13 t-2 14q-1 16 0 34v5q2 36 6 53l12 39l1 3q3 10 11 28q12 24 29 41l14 16q18 18 31 28q16 13 41 30q12 8 53 26l3 1l3 2q12 5 36 13q6 1 16.5 4.5t15.5 5.5l10 3q4 1 11 3t11 3l21 6q34 9 87 14q13 1 37.5 1.5t32.5 0.5l14 1q14 0 44 2q6 0 17 1t16 1q36 2 46 2q4 0 13 -0.5 t14 -0.5q4 0 12.5 -0.5t12.5 -0.5q2 0 7 -0.5t7 -0.5l5 -1q5 0 16 -1t17 -1q9 0 17 -5h1q12 -2 17 -4zM704 1222v166q-13 0 -53 -2q-4 -94 -5 -134q-1 -16 -1 -49q-2 -72 -4 -106q-4 -72 -7 -107q-4 -47 -5 -68q-5 -73 -7 -168q4 0 11 1t10 1l17 3l18 3t17 3v26v30 q0 9 0.5 28t0.5 29q0 19 2 56t2 56q0 10 1 30.5t1 31.5q2 60 2 170zM816 1208q1 54 1 171h-3q-15 0 -22 1q-4 0 -10.5 1t-9.5 1v-68q0 -71 -2 -211l-3 -108q-1 -11 -1 -33t-1 -33q-2 -62 -2 -92q0 -53 -1 -79q-3 -173 -1 -345q0 -17 5 -92q4 -47 5 -74q2 -36 2 -54v-31 q3 -65 4 -76v-1q10 -4 19 -5h11h1h4h1h1q0 5 -1 13.5t-1 12.5q0 5 -1 15.5t-1 15.5q-1 10 -1.5 21t-1 25t-0.5 21q-1 11 -1 34t-1 34q-1 12 -1 35t-1 34q-1 46 -1 140v32q0 40 2 170q1 29 5 176q1 26 1.5 55.5t1 65t0.5 54.5v7q0 37 2 107q2 40 2 60z" />
<glyph unicode="&#xbf;" horiz-adv-x="888" d="M762 402q13 -4 20 -16t3 -26q-2 -7 -5.5 -21t-5.5 -21q-1 -5 -4.5 -14.5t-4.5 -11.5q-19 -52 -37 -88q-6 -12 -20 -34q-9 -13 -29 -39q-23 -28 -28 -33q-30 -30 -52 -45q-38 -25 -125 -43q-32 -6 -48 -8q-20 -2 -30 -2q-18 0 -36 3t-38 9q-22 8 -41 16q-32 14 -46 25 q-9 6 -25 20q-2 2 -14 11.5t-17 15.5l-15 18q-3 3 -8.5 11t-8.5 11q-15 20 -19 27q-6 12 -14 38q-12 38 -12 70q0 29 2 44q3 27 14 54q5 15 10 25q14 31 43 74q13 20 25 37q6 8 17.5 23t13.5 17q38 49 50 64q37 51 51 71q30 47 44 76q7 18 20 66q6 22 8 34q1 6 2.5 17 t2.5 16q1 9 3 25.5t3.5 30t2.5 25.5q1 14 2.5 42t2.5 42q0 3 2 9q-1 2 -1 8q0 15 9 24q7 7 24 9q33 2 64 6q5 0 13.5 1t12.5 2q23 2 38 -9q4 -2 10 -8q3 -3 7 -11q6 -10 7 -17q5 -25 7 -58q1 -42 0 -83q-2 -49 -10 -91q-7 -41 -23 -82q-8 -23 -34 -81q-9 -20 -20 -40 q-3 -6 -11 -18t-11 -18q-10 -18 -46 -69q-13 -18 -22 -32q-21 -31 -23 -35q-14 -23 -38 -71l-9 -24q-5 -17 -6 -20q-1 -2 -1 -6t-1 -6q-1 -13 -1 -37q0 -14 2 -42q1 -5 3 -15.5t3 -15.5q2 -12 10 -31q14 -31 45 -75q22 -25 27 -29q1 -1 4.5 -3t5.5 -3t5.5 -2t4.5 -1 q6 -1 11 -5q37 7 60 17q17 8 33 19q31 25 60 61q15 19 30 44q3 4 7 13t7 14q7 12 11 23q1 4 4 11.5t5 11.5l9 24q10 28 18 61q4 13 16 20.5t25 3.5zM374 68h2q-10 12 -14 18q-18 26 -26 40q-16 28 -20 36q-5 10 -10 25q-1 4 -3 11.5t-3 10.5q-3 13 -7 39q-4 32 -4 48 q-2 50 10 87q11 33 17 45q6 13 20 39q15 27 42 69q2 3 23 32q4 6 11.5 17t11.5 17q8 11 22 35q2 3 10 15.5t11 19.5q19 36 33 70q20 48 27 73q8 33 9 38q1 6 2.5 16t2.5 16q5 43 5 79q0 49 -3 73q-1 2 -1 6.5t-1 6.5q-2 0 -6 -0.5t-6 -0.5q-26 -4 -39 -5h-5q-1 -9 -2 -25.5 t-1 -24.5q-1 -11 -2.5 -32.5t-2.5 -31.5q-1 -13 -5 -37.5t-5 -36.5q-4 -28 -14 -63q-13 -48 -32 -84q-13 -25 -45 -73q-26 -37 -106 -140q-19 -24 -44 -63q-4 -7 -12 -19.5t-12 -18.5q-6 -10 -16 -30q-13 -36 -15 -50q-3 -32 0 -64q5 -25 13 -45q7 -14 25 -38q8 -10 12 -14 q8 -9 17 -17q9 -9 29 -25q6 -5 20 -13q10 -6 15 -8q42 -18 72 -23zM393 1258q-5 11 -7 25t-1 20q0 4 2 14q1 5 5 15q7 17 10 21q8 12 14 18q2 2 5.5 5t6.5 5.5t6 4.5q10 8 28 13l21 3h7q7 1 7 0q17 -2 21 -4q14 -6 20 -10q30 -20 36 -44q6 -27 2 -52q-3 -11 -8 -26 q-5 -12 -10 -23q-6 -12 -16 -22q-4 -3 -21 -16q-8 -5 -16 -5q-13 0 -21 7q-14 -2 -22 -1q-13 1 -26 8t-25 20q-13 13 -18 24zM452 1299q0 -1 -0.5 -2t-0.5 -2q0 -2 2 -6q1 -1 1 -2q0 -2 1 -2q5 -6 11 -11l1 -1h1h2q15 2 24 -4h1v1l9 15q3 7 7 21q0 2 -0.5 7t-0.5 8 q0 1 -0.5 2t-0.5 2l-4 4q-4 4 -7 5q-2 1 -6 1h-6q-1 -1 -4.5 -1t-5.5 -1q-6 -3 -7 -4t-3.5 -4t-4.5 -5l-6 -9z" />
<glyph unicode="&#xc0;" horiz-adv-x="915" d="M809 88q7 -12 3.5 -25.5t-15.5 -20.5t-25.5 -3.5t-20.5 15.5q-4 7 -17 47q-2 5 -4 15t-4 15q-3 10 -9 30.5t-9 30.5q-6 22 -17 64.5t-17 62.5q-7 25 -40 168l-24 105q-40 2 -59 2h-59q-36 0 -108 4q-4 -24 -11 -72.5t-10 -72.5q-3 -23 -9 -69.5t-9 -69.5l-18 -135 q-6 -42 -8 -63q-4 -42 -7 -63q9 -11 9 -22q0 -13 -10 -23t-24 -10q-17 -1 -49 1q-20 2 -60 8q-24 5 -29 7t-15 8q-8 6 -10 8q-1 2 -3.5 5.5t-4.5 5.5q-6 11 -9 26q-5 32 -5 59q0 28 2 85t2 86q0 14 1 42.5t2 42.5q1 27 7 81q1 15 4 43.5t4 42.5q2 15 5.5 44.5t4.5 44.5 q2 21 6.5 80.5t8.5 91.5q4 29 29 177q9 52 16 86l18 81q10 41 24 85t30 83q15 35 18 41q17 31 23 38q15 18 40 23q6 1 12.5 2t15 2t12.5 2q10 2 29.5 5t28.5 4h2q12 0 22 -10q3 -3 5 -8q10 -4 14 -8q10 -10 10 -21q6 -25 19.5 -76.5t20.5 -77.5q30 -119 33 -130 q17 -77 71 -348q12 -62 37 -169q7 -29 20 -85t19 -85q15 -63 43 -167q14 -54 22 -81q4 -14 12 -40q11 -38 12 -41q1 -1 1 -2q0 -2 1 -2zM171 78q-1 0 -1 1t-1 2l1 -1q0 -2 1 -2zM173 76q1 0 1 -1t1 -1q-1 0 -1 1t-1 1zM363 878q9 56 25 168q4 26 10 79t9 80t10 81.5t11 82.5 q-5 -1 -14 -2t-13 -2q-32 -5 -43 -8l-3 -3q-8 -13 -20 -41q-24 -61 -29 -76q-13 -39 -24 -83q-23 -94 -37 -171q-13 -75 -28 -169l-6 -54q-1 -10 -2 -27t-2 -31.5t-2 -26.5l-9 -87q-2 -15 -5 -44.5t-4 -44.5q0 -3 -4 -34.5t-5 -48.5q-4 -42 -6 -172q0 -14 -1 -42t-1 -42 q0 -66 1 -74q1 -2 1 -5t1 -4q5 -2 33 -7q15 -2 41 -4q9 81 13 115q6 47 17 124q1 3 2 11t1 11q0 -1 -1 -4t-1 -5q1 6 2.5 18t2.5 18q27 212 51 354q4 28 14.5 85t14.5 85zM552 661q29 0 43 -1l-36 174q-6 29 -17.5 87t-17.5 87q-10 48 -49 205q-3 -23 -7 -62 q-8 -67 -25 -187q-15 -107 -26 -167q-15 -81 -23 -133q49 -3 100 -3h26h32zM272 1552q-16 12 -84 71q-10 9 -9.5 24t9.5 24t23 9q13 0 24 -9q63 -56 138 -115q3 -2 8.5 -6.5t8.5 -6.5q14 -10 16 -20q3 -14 -4 -26q-6 -11 -20 -15q-16 -4 -26 3q-17 12 -47.5 37t-36.5 30z " />
<glyph unicode="&#xc1;" horiz-adv-x="999" d="M896 35q3 -16 -3 -26q-7 -12 -20 -15q-16 -3 -26 3q-12 7 -15 20q-3 14 -8.5 42t-8.5 42t-9.5 41.5t-9.5 41.5q-2 12 -21 83q-9 33 -19 80q-23 102 -40 173q0 3 -1.5 8t-2.5 7q-7 0 -11 1q-2 0 -6.5 1t-6.5 1q-23 2 -70 2q-53 0 -79 1q-54 2 -83 4q-28 2 -84 8v-4 q-3 -14 -8 -41.5t-7 -41.5q-17 -105 -25 -163l-15 -126q-11 -81 -19 -131q-2 -13 -16 -21l-1 -1h-1q-5 -5 -9 -7q-1 -1 -4 -2t-4 -2q-16 -7 -45 -7q-25 0 -44 4q-16 4 -32 14q-9 6 -17 14q-9 12 -11 15q-9 20 -9 23v6l-3 21q0 39 8 115q1 14 4 42.5t5 42.5q6 62 10 92 q4 28 11.5 84t11.5 84q5 38 20 134q15 90 22 124q16 84 36 172q3 14 9.5 40.5t9.5 39.5q3 14 10 42.5t10 42.5q13 60 20 85q8 28 26 84q10 30 17 44q12 23 28 37q4 4 14 10q7 4 14 5q4 0 12 1.5t12 2.5q31 4 93 8h2q10 0 22 -10l1 -1q0 -2 1 -2q18 -7 22 -22q15 -60 49 -178 q28 -95 47 -166q32 -120 47 -180q7 -28 21.5 -84t21.5 -84t21 -84.5t21 -84.5q8 -32 20.5 -90.5t17.5 -78.5q4 -14 11 -42.5t10 -42.5q16 -60 20 -80q15 -64 20 -86q6 -28 16 -84zM368 887q3 14 9.5 42t9.5 42t9.5 42t9.5 42q2 12 9 41t10 45q1 5 15 83q20 102 26 140 q-34 -2 -53 -4q-3 0 -9 -2v-1q-1 -1 -3 -2.5t-3 -2.5l-9 -18q-14 -36 -24 -70q-16 -56 -23 -85q-8 -34 -19 -83q-5 -22 -20 -86l-18 -81q-24 -114 -35 -172q-11 -56 -27 -168q-4 -35 -14 -103.5t-15 -102.5q-3 -24 -7 -72q-2 -26 -8 -78q-3 -26 -7 -71t-2 -68q0 -3 2 -7v-1 l7 -7l1 -1h2q5 -2 15 -4q3 0 10 -0.5t11 -0.5q2 0 7 0.5t8 0.5h2q9 57 14 92q2 17 5.5 49t5.5 49q6 56 15 111q9 61 28 169q29 168 30 173q2 13 8.5 40.5t8.5 41.5q3 14 9 44t9 44zM670 607q9 0 25 -2q-4 14 -11 42.5t-10 42.5q-7 28 -21 83t-21 83q-11 44 -47 179 q-19 71 -47 166l-21 72q-4 -21 -11.5 -63t-11.5 -63q-11 -58 -37 -172q-3 -14 -10 -42t-10 -42q-7 -28 -17 -86q-3 -16 -15.5 -76t-18.5 -93q0 -3 -1 -8.5t-2 -8.5q27 -3 81 -7q27 -2 81 -4q28 -1 84 -1h41zM483 1463q-11 -7 -25 -3.5t-21 15.5t-4 26q2 10 16 20 q18 12 55 36.5t55 36.5q69 45 98 62q8 5 16 5q21 0 30 -17q7 -12 3.5 -25.5t-15.5 -20.5q-29 -17 -98 -62q-19 -12 -55 -36.5t-55 -36.5z" />
<glyph unicode="&#xc2;" horiz-adv-x="989" d="M886 69q3 -16 -3 -26q-6 -11 -20 -15q-16 -3 -26 3q-13 8 -15 20q-3 16 -11.5 66.5t-14.5 77.5q-15 71 -33 141l-42 165q-1 3 -2.5 10t-2.5 10q-9 -9 -23 -9q-53 -3 -155 -5q-26 0 -80 -4q-21 -1 -56 -5q-2 -19 -6.5 -55t-6.5 -55q-16 -129 -19 -170q-1 -14 -3 -41 t-3 -41q-2 -29 -8 -87q0 -8 -2 -12q-4 -22 -24 -27q-33 -7 -60 -4q-8 1 -24.5 2.5t-25.5 2.5q-11 1 -33 5q-28 6 -41 13l-9 6q-8 6 -13 11q-14 16 -18 31q-4 16 -4 36q1 30 7.5 85t8.5 77q1 14 3 44t3 44q0 2 2 34t4 48q6 58 10 87q1 5 15 91q22 123 31 169q19 97 38 169 q5 20 23 83q14 54 20 81q14 67 19 85q9 36 26 82q10 28 15 41q2 5 11 26q8 20 27 41q14 16 30 21q9 3 19 3h19q8 0 22.5 1t21.5 2h1q13 0 22 -9q1 -1 3 -4q13 -11 12 -25v-2q5 -5 8 -15q9 -25 26.5 -73.5t26.5 -72.5q29 -78 47 -139q9 -28 26.5 -85t26.5 -86q15 -49 50 -172 q30 -112 45 -169q7 -27 21 -80.5t21 -80.5q23 -90 42 -175q6 -30 31 -170zM417 1357h1h-1zM415 1356l-1 -1zM389 872q19 124 26 173q8 61 19 164q8 76 12 149h-6q-4 0 -12 -1t-12 -1l-7 -7q-7 -11 -15 -30q-34 -92 -42 -124q-8 -29 -20 -87q-8 -34 -20 -82q-16 -54 -23 -81 q-8 -28 -20 -84q-18 -80 -33 -167q-25 -138 -29 -169q-10 -83 -11 -99q-10 -146 -13 -170q-2 -14 -5 -41.5t-4 -41.5q-6 -50 -4 -75v-2l1 -2l3 -3q1 -1 3.5 -2.5t3.5 -1.5q1 -1 26 -6q3 -1 8 -2t8 -1q14 -2 42 -4q16 -2 24 -2q1 0 1 0.5t1 0.5q4 42 10 126q6 75 15 150 q4 26 10.5 79.5t9.5 79.5q-1 2 -4 10q-3 15 3 25q4 6 7 8q7 56 20 149q4 29 13 86t14 86zM694 579q5 0 7 -1q-4 16 -12.5 47.5t-12.5 46.5q-23 89 -48 170q-8 27 -25 82t-25 82q-41 132 -53 165q-3 10 -11 30t-11 30q-1 -3 -1 -9t-1 -9q-1 -16 -5 -47.5t-5 -47.5 q-8 -79 -23 -177q-4 -29 -13.5 -86.5t-14.5 -86.5q-8 -48 -25 -169q-1 -5 -2 -16t-2 -17q14 2 42 4q54 4 81 4q106 2 159 5h1zM342 1465q-11 6 -15 20q-3 9 0 18q1 1 2 4t1 4q4 11 14 32t14 32q34 76 37 82q14 26 24 37q7 8 17 14q5 3 22 5q8 0 14 -2q1 0 6 -2t7 -4 q16 -10 28 -25q21 -24 30 -39q9 -14 20 -37q8 -16 19.5 -47t15.5 -40q4 -11 -4 -26q-7 -12 -20 -15q-16 -3 -26 3q-8 5 -12 12q0 1 -1 4t-2 4q-4 11 -12 31.5t-12 30.5q-10 22 -15 32t-19 28q-6 9 -14 17q-13 -20 -31 -64q-7 -16 -21 -48.5t-21 -48.5q-4 -11 -20 -15 q-16 -3 -26 3z" />
<glyph unicode="&#xc4;" horiz-adv-x="931" d="M828 47q5 -13 -3 -26q-7 -12 -20 -15q-16 -3 -26 3q-11 7 -16 20q-2 7 -5.5 19.5t-3.5 14.5l-6 30q-2 11 -8 32t-8 32q-3 13 -14 59.5t-18 71.5q-4 14 -12 40.5t-11 39.5l-24 90q-4 15 -11.5 45.5t-11.5 45.5l-1 -1h-1q-9 -3 -18 0l-1 1q-1 1 -2 1q-11 0 -29 -2 q-11 -1 -32 -1q-10 -1 -31.5 -2t-32.5 -1l-120 -3q-10 -84 -14 -127q-3 -28 -9.5 -85t-9.5 -86q-6 -60 -8 -86l-6 -84q-2 -16 -10 -24l-1 -1q-6 -12 -12 -18q-1 -1 -3 -2.5t-3 -2.5q-10 -8 -20 -14q-14 -6 -21 -8q-15 -4 -25 -5q-12 -2 -37 0q-25 3 -26 3t-6 1t-7 2 q-7 3 -14 7q-5 3 -15 15q-16 20 -12 66q1 6 2.5 19t1.5 20q6 53 22 170q8 64 11 96q1 8 2.5 25.5t2.5 26.5q1 8 3 25.5t3 26.5q4 33 11.5 91t14 106.5t13.5 91.5q17 108 30 167q3 14 9.5 42t9.5 42q6 28 16 84q4 24 13 85q3 18 17 83q11 48 23 80q8 20 14 30q1 1 3 5t3 5 q4 7 10 12q13 11 26 15q9 3 36 3q4 0 11.5 0.5t11.5 0.5q7 0 15 -4q14 0 24 -10q12 -12 10 -24q0 -3 -1 -9.5t-1 -9.5t-1 -9.5t-1 -9.5q17 -38 30 -73q2 -4 5 -12t5.5 -14.5t4.5 -12.5l15 -45q22 -67 45 -148q44 -163 85 -343q43 -185 85 -337q20 -70 23 -82q6 -22 22 -88 q4 -14 10.5 -42t9.5 -42l9 -39q7 -31 11 -43zM343 896l9 75t10 75q7 52 37 312q-1 3 -1 8q0 2 1 5t1 4v1h-14h-2v-1q-8 -14 -11 -21q-12 -31 -23 -77q-11 -50 -17 -83q-2 -14 -5.5 -41t-6.5 -41q-5 -29 -17 -85l-18 -81q-5 -23 -16 -85q-15 -84 -27 -166 q-5 -38 -14.5 -114.5t-14.5 -114.5q0 1 0.5 4t0.5 5q-3 -24 -7 -68.5t-6 -61.5q-2 -20 -5 -43t-7 -50.5t-6 -43.5q-9 -67 -9 -70q-1 -6 -2 -19t-2 -20q-1 -11 -1 -32l2 -1h2q28 -2 42 -1q10 2 15 4q8 4 11 6l1 1q2 7 6 11q1 13 3.5 52.5t4.5 61.5q3 28 9.5 85t9.5 86l9 87 t10 87q4 30 11.5 90t11.5 90q4 29 12.5 85.5t12.5 84.5zM607 549h1h-1zM611 617q1 0 1 -0.5t1 -0.5q-1 1 -1 4t-1 5q-11 44 -40 172q-8 34 -24 97t-18 73q-18 73 -47 166q-15 48 -28 86q0 1 -1 4t-2 4q-15 -130 -22 -184q-3 -21 -7.5 -58.5t-8.5 -68.5t-8 -59 q-1 -6 -10.5 -68.5t-13.5 -95.5v2q-2 -15 -5.5 -43.5t-5.5 -42.5l120 3q11 0 32.5 1t31.5 1t32 2h14q2 0 4 0.5t4 0.5h3zM233 1565q-8 14 -9 23q-2 12 -2 18q0 11 1 17q1 3 3 10t2 11q3 13 15 20q3 2 11 4q8 5 17 5q2 0 6.5 -0.5t6.5 -0.5q1 0 10 -1t13 -2q25 -8 41 -28 q13 -17 16 -28q4 -16 4 -24q0 -16 -4 -28q-4 -11 -14 -23t-19 -16q-15 -7 -27 -6q-16 3 -17 3q-13 5 -16 7q-9 5 -20 16q-2 2 -4.5 5t-3.5 5l-5 5q-4 5 -5 8zM300 1583l-1 -1zM291 1603h-1v-1l1 -2q0 -1 0.5 -2.5t1.5 -2.5q2 -3 8 -7v1q0 2 -2 6l-1 1q0 2 -1 2l-3 3 q0 1 -1 1t-2 1zM538 1554l-1 2l-1 2q-3 14 -2 26q2 12 6 20q2 6 4 8q2 3 8 9.5t8 10.5q8 10 23 10q9 7 19 7h2q26 -2 42 -13t20 -17q9 -11 12 -18l6 -15l3 -15q1 -10 -2 -23t-13 -23q-2 -2 -12 -10q-1 -1 -2.5 -2t-2.5 -1t-6 -2.5t-8 -3.5q-1 -1 -16 -3q-12 -2 -23 0 q-14 2 -16 3t-6 2.5t-6 2.5q-12 7 -20 17q-8 11 -10 14zM621 1572v-2v2zM620 1570v1v-1zM603 1580q-1 0 -1 -1t-1 -2q1 -1 3 -4l3 -3h12q-1 0 -1 1t-1 2l-4 4q-1 0 -3.5 1.5t-3.5 2.5h-1q0 -1 -1 -1h-1zM601 1582v-1v1z" />
<glyph unicode="&#xc5;" horiz-adv-x="944" d="M840 82q5 -13 -3 -26q-6 -11 -20 -15q-16 -3 -26 3q-7 4 -12 12l-2 4t-1 4q-2 5 -4 11l-4.5 13.5t-3.5 11.5q-2 6 -5.5 17t-4.5 16q-3 10 -9 30.5t-9 30.5q-18 64 -33 129q-14 58 -22 87q-4 15 -10.5 43t-9.5 40q-5 22 -16.5 64t-13.5 49q-10 -4 -15 -4h-2l-2 1 q-35 3 -60 1q-10 -1 -29.5 -3t-29.5 -3q-18 -2 -38 -3.5t-44.5 -3t-38.5 -2.5q-1 -8 -3.5 -24t-3.5 -24q-1 -13 -4 -37.5t-5 -36.5t-4 -36l-3 -36q-1 -6 -9 -70t-12 -97q-1 -14 -4 -42.5t-5 -42.5q-6 -64 -12 -94q-3 -13 -15.5 -20t-25.5 -3q-9 2 -14 7q-5 -3 -11 -4 q-9 -3 -31 -5q-22 -3 -42 3q-2 1 -5.5 2t-5.5 2q-12 4 -17 7l-12 9q-19 15 -24 41q-3 15 -1 33q0 8 1 16t2.5 18t2.5 16q9 59 13 82q12 65 28 167q9 56 25 170q9 63 13 88l15 87l15 84q2 13 6.5 41t7.5 42q8 44 18 83q4 14 11.5 42t10.5 42q4 14 10 42t10 42q12 48 20 82 q2 9 8.5 38.5t11.5 45.5q1 3 3 10.5t3 11.5q7 25 17 40q6 11 15 18q-24 18 -36 41q-7 14 -10 31q-3 16 -2 29q2 18 5 27q4 14 12 28q18 31 39 48q12 11 34 20q3 4 11 10q1 1 3.5 2t4.5 1q11 5 28 5q30 0 53 -17q27 -19 39 -47q10 -23 13 -42q0 -1 2 -12t1 -17q-1 -10 -3 -28 q-3 -19 -10 -36q-10 -28 -30 -44q-1 -1 -3.5 -3t-4.5 -3.5t-4 -2.5t-7 -3t-7 -3q-1 -1 -3.5 -2t-3.5 -1v-1q0 -35 -1 -53q4 -10 12 -31.5t12 -32.5q16 -44 20 -56q4 -15 13 -44t13 -44q5 -18 15 -56q60 -230 88 -345q7 -31 23 -87t21 -76q7 -29 22 -87.5t22 -87.5 q14 -52 20 -78q3 -14 10 -42.5t10 -42.5q5 -19 23 -80q2 -7 6.5 -21.5t6.5 -21.5q8 -28 13 -41zM389 1529v-13l3 -12q2 -4 6 -10l10 -10q2 -1 5 -3t5 -3q6 -2 18 -4q20 -2 30 -1l9 3l6 3q1 1 2 2.5t2 2.5t2.5 4l2.5 5q6 17 9 33v23q-3 16 -7 25q-8 15 -9 17l-6 6q-7 5 -8 5 q-4 2 -6 2q-7 -6 -14 -9q-8 -2 -12 -4q-7 -3 -14 -8q-10 -10 -15 -16q-10 -13 -15 -25q-3 -7 -4 -13zM350 877q8 47 32 173q3 15 8.5 45.5t8.5 45.5q4 22 13 79q4 26 5 40q2 17 4 51q1 11 1 35q-2 5 -5 13.5t-4 12.5l-1 1v1q-5 -7 -5 -8q-7 -18 -15 -54l-12 -51 q-16 -70 -25 -105q-3 -14 -9 -41t-10 -40q-3 -14 -10.5 -42t-11.5 -42q-10 -42 -18 -84q-2 -14 -7 -43t-8 -43q-20 -112 -29 -169q-4 -28 -12.5 -84.5t-12.5 -84.5l-27 -171q-16 -87 -27 -164q-4 -30 -3 -46v-3l1 -1q1 0 3.5 -1.5t3.5 -2.5q2 -1 7.5 -2t6.5 -1h17q5 1 20 5 q1 0 3.5 2t3.5 2q4 2 12 4q2 13 4 39.5t4 39.5q2 14 4.5 41.5t4.5 41.5q3 24 11 83q5 33 11.5 94t8.5 80q15 117 26 182q20 124 28 172zM603 604q1 0 3.5 -0.5t3.5 -0.5h-3q-1 0 -2 0.5t-2 0.5zM574 672q1 0 40 -3q-7 27 -20 80t-20 80q-8 29 -23.5 88t-22.5 89 q-4 15 -11.5 44t-11.5 44q-7 27 -23 79q-1 3 -3 11.5t-3 11.5q-7 -47 -25 -141q-26 -136 -32 -172q-18 -96 -37 -226q76 4 113 8l60 6q3 0 9.5 0.5t9.5 0.5z" />
<glyph unicode="&#xc7;" d="M819 294q13 -4 20 -16t3 -25q-10 -30 -21 -56q-8 -18 -24 -45q-9 -13 -20 -26q-3 -4 -9 -11t-7 -8q-15 -19 -34 -34q-3 -3 -8.5 -7t-8.5 -7q-4 -4 -7 -6l-2 -2t-2 -1h-1l-4 -4l-2 -1q-2 -1 -2 -2q-2 -2 -6.5 -5t-6.5 -4q-25 -15 -67 -30q-43 -15 -80 -15q-2 0 -7 0.5 t-8 0.5q1 -4 1 -12.5t1 -12.5v-3q15 4 31 3q8 0 17 -3q14 -6 16 -7q16 -10 24 -20q25 -28 32 -53q9 -28 2 -68q-2 -14 -6 -26q-5 -16 -13 -25q-1 -1 -5 -6.5t-6 -7.5q-8 -8 -13 -12q-12 -9 -29 -14q-31 -8 -58 -1q-13 4 -20 16.5t-3 25.5t15.5 20t25.5 3q1 0 3 -0.5t3 -0.5 h9q1 0 4 1t5 1q1 0 3.5 1.5t3.5 2.5t2.5 3t2.5 3l2.5 5t2.5 4q4 12 6 24t0 24q0 1 -1 5.5t-1 5.5l-12 18q-3 4 -10 11l-6 3h-5q-2 0 -5.5 -1t-5.5 -2q-1 0 -2.5 -1t-2.5 -2t-2 -1q-2 -1 -5.5 -3t-5.5 -3q-7 -4 -17 -4q-7 0 -11 1q-16 5 -23 20q-5 11 -7 25q-1 5 -1 14 q-1 10 -2 29t-2 29q-38 8 -71 18q-14 4 -40 14q-13 5 -45 22q-10 6 -35 24q-32 24 -56 56q-43 56 -59 97q-18 47 -26 105q-5 32 -9 96q-4 75 -4 168q0 59 1 89q2 60 4 88q6 111 18 176q14 70 19 88q11 40 33 88q10 21 19 37q14 24 21 35q33 51 55 77q39 47 84 79 q24 16 47 26q32 13 44 16q15 4 20 5q20 4 35 5h14h13q3 0 10 -1t10 -2q19 -3 39 -9q49 -15 86 -38q19 -12 40 -30q9 -8 32 -35q26 -34 43 -68q18 -38 20 -45q1 -3 12 -44q5 -21 7 -49q1 -16 1 -47q0 -14 -10 -24t-23 -10q-14 0 -24 10t-10 24v36q0 9 -2 23q-4 21 -7 35 q-8 26 -13 38q-21 46 -48 82q-12 15 -15 17l-18 15q-29 21 -57 35q-24 8 -36 11q-4 1 -12.5 3t-12.5 3q-5 -12 -14 -16q-11 -6 -13 -7q-5 -4 -13 -14q-13 -18 -35 -56q-8 -14 -20 -42q-24 -63 -29 -79q-4 -13 -10 -39q-1 -7 -4.5 -19.5t-5.5 -18.5q-15 -63 -30 -165 q-7 -50 -17 -150q-8 -83 -12 -161q-4 -73 -4 -166q0 -60 1 -90q1 -41 6 -81q4 -32 8 -47q7 -28 15 -48q7 -15 18 -31q5 -6 17 -18q9 -6 29 -16q2 -1 4 -3q4 -1 12 -2.5t12 -2.5q14 -4 35 -7q2 0 5.5 -0.5t5.5 -0.5q31 -2 47 0q23 4 67 20q21 10 23 12t6.5 4.5t6.5 3.5l2 2 q1 0 2.5 2t2.5 2t2.5 2t2.5 2q0 1 1 1l18 15q12 10 17 15q1 1 19 22l12 15q14 20 21 33q2 5 7 16t8 16q8 20 11 30q4 13 15.5 20t25.5 3zM267 326v83q0 57 1 85q4 116 9 172q2 29 8 87l9 84q16 122 28 183q5 27 19 81q11 45 25 82q15 39 19 49q16 34 18 38q7 13 23 39 q1 2 4 6.5l5 7.5q-29 -13 -52 -30q-24 -19 -44 -41q-7 -8 -26 -31q-28 -38 -47 -69q-9 -15 -19 -34t-17 -35q-12 -30 -16 -45q-6 -20 -13 -52q-8 -33 -17 -94q-10 -110 -13 -191q-1 -58 -1 -174q0 -85 9 -169q12 -71 27 -110q16 -34 48 -77q16 -21 27 -29q3 -2 7.5 -6 t6.5 -6l-1 1v2q-2 5 -3.5 11t-3 13.5t-2.5 11.5q-3 10 -7 37q-4 29 -5 41q-4 38 -6 79zM668 110v1q0 1 1 1q-1 0 -1 -1t-1 -1h1z" />
<glyph unicode="&#xc8;" horiz-adv-x="948" d="M497 1394q-2 0 -172 6q-28 2 -41 2q1 -8 1 -52v-53v-163q0 -56 1 -84l3 -87q6 -164 6 -166v-13q42 -1 127 -1q26 0 78.5 0.5t78.5 0.5q13 0 23 -10t10 -24t-10 -24t-23 -10q-26 0 -78.5 -0.5t-78.5 -0.5q-42 0 -126 2v-87q0 -29 1 -86t1 -86q0 -14 0.5 -42.5t0.5 -42.5 q0 -1 3 -82q0 -14 1 -42.5t2 -42.5l3 -87q0 -26 -1 -39q0 -2 -0.5 -7t-0.5 -8h22q19 1 59 2t59 1q60 1 175 5q56 1 168 7h1q13 0 22.5 -10.5t9.5 -23.5q0 -14 -10 -24t-23 -10q-77 -4 -118 -5l-123 -3q-115 -4 -175 -5q-15 -1 -45.5 -1t-45.5 -1h-1q-15 -12 -32 -12h-22 q-28 2 -46 9q-1 0 -2.5 1t-2.5 1q-17 0 -28 18l-3 3q-14 14 -17 25q-2 5 -4 15q-2 8 -4 46q-1 14 -2.5 43t-2.5 44l-3 84q0 15 -1 44.5t-2 44.5t-1 44.5t-1 44.5q-1 14 -1 42.5t-1 42.5q-1 29 -1 88v84v177q0 33 2 93t2 80q2 112 1 169q-1 32 -1 96.5t-1 96.5q-5 8 -5 17 q0 14 10 24t24 10q8 0 24.5 -0.5t24.5 -0.5q24 4 35 4h5q9 0 21 -5q20 0 62 -2q27 -1 81.5 -3t81.5 -3q87 -3 174 -3q112 0 168 2q13 1 23.5 -9.5t10.5 -24.5t-10 -23t-24 -10q-104 -2 -157 -2t-159 2zM240 67q1 13 1 40q0 7 -0.5 21.5t-0.5 21.5l-3 87q-4 109 -5 166 q0 29 -1 86.5t-1 86.5v84.5t-1 84.5q0 27 -2 83q-1 14 -2 41.5t-1 41.5l-3 84l-3 87v162v83q0 63 -1 75h-1v1q-4 0 -12 0.5t-13 0.5l-15 -3l-1 -1q2 -197 1 -296q0 -29 -1.5 -88t-2.5 -89q-1 -58 -1 -174q0 -29 0.5 -86t0.5 -86q0 -1 3 -175l3 -84q0 -15 1 -44t1 -43 q1 -29 5 -87q1 -7 1 -21t1 -21q1 -6 2 -17.5t1 -16.5t1 -7q1 0 1 -1t1 -1q7 0 23 0.5t23 0.5l1 1v2zM276 1663q-13 10 -16 21q-3 14 4 25q10 17 29 17q8 0 16 -5q16 -10 48.5 -31t48.5 -32q59 -39 78 -53q8 -5 12 -12q0 -2 1 -4l2 -4q3 -16 -3 -26q-7 -12 -20 -15 q-16 -4 -26 3q-5 4 -80 54q-16 11 -47 31.5t-47 30.5z" />
<glyph unicode="&#xc9;" horiz-adv-x="985" d="M849 1450q13 1 23.5 -9t10.5 -24t-10 -23.5t-24 -10.5h-8q-28 0 -82 2q-15 1 -44.5 2t-44.5 2q-85 3 -170 3q-134 0 -172 2q-4 0 -11 0.5t-10 0.5q1 -9 1 -27v-42q-1 -42 0 -42q0 -14 2 -42t2 -42t2 -42.5t2 -43.5q2 -30 2 -88q0 -28 -2 -84t-2 -84v-73l1 1h1 q16 0 44.5 -1t52 -1.5t44.5 -0.5h25q63 0 95 2q13 1 23.5 -9.5t10.5 -24.5q0 -13 -10 -23q-8 -8 -24 -10q-32 -2 -95 -2h-25q-47 0 -141 2h-2v-32q0 -28 -1 -83.5t-1 -83.5q0 -29 0.5 -88t0.5 -89q0 -28 0.5 -85t0.5 -86q0 -56 -2 -84q0 -3 -2 -13h93q117 2 175 5 q114 6 172 7q13 0 23 -10t10 -24t-9.5 -23.5t-23.5 -9.5q-80 -2 -119 -4q-13 -1 -35.5 -2.5t-41.5 -2.5t-36 -1q-15 -1 -45 -1t-45 -1q-27 -1 -81 -1q-65 0 -130 3h-9q-19 -2 -35 1q-1 0 -6 1t-7 2q-13 2 -21 10t-10 21l-3 12q-2 9 -7 51q-2 19 -2 83v172v343q0 57 -2 171 q-2 116 -4 176q-2 56 -2 84q0 14 -0.5 44t-0.5 44q0 132 1 197q-7 11 -7 20q0 13 10 23t22 10h2q2 0 7 -0.5t8 -0.5q15 -1 44.5 -3.5t44.5 -3.5q60 -4 90 -5q19 -1 171 -1q60 0 90 -1q14 -1 42.5 -2t43.5 -2l87 -3q71 -3 85 -2zM250 1391l1 -1zM242 76v-1v1zM250 981 q2 58 1 87q-2 56 -4 84q-2 31 -4 89q-2 56 -2 83q0 7 -0.5 21.5t-0.5 21.5v26h-4q-2 1 -6.5 1t-6.5 1q-17 2 -47 4q0 -25 -0.5 -73t-0.5 -72q0 -50 2 -148q1 -30 3 -89.5t2 -88.5q2 -112 2 -168q1 0 0 -174v-174v-170v-26v-30.5v-25.5q0 -13 2 -43q0 -6 1 -17.5t2 -16.5 q0 -1 1 -3v-2q18 -2 27 -2h1l2 1h22l3 12q1 12 1 72v72v151q0 20 -1 81t0 95q2 112 2 169q0 14 -0.5 42t-0.5 42q0 57 1 85q1 14 2 41.5t1 41.5zM511 1510q-12 -7 -25.5 -3.5t-20.5 15.5t-3.5 25.5t15.5 20.5q102 60 172 104q7 4 17 4q19 0 29 -17q7 -12 3.5 -25.5 t-15.5 -20.5q-48 -30 -172 -103z" />
<glyph unicode="&#xca;" horiz-adv-x="954" d="M843 1430q10 -10 10 -24q0 -11 -7 -20.5t-18 -11.5q-3 -1 -9 -1v-1v1h-6q-9 1 -28 1q-6 0 -17 0.5t-16 0.5q-12 1 -35 1h-35q-24 0 -72.5 1t-72.5 2q-120 2 -178 5q-7 0 -20 1t-19 1q2 -15 2 -45q2 -42 0 -84q0 -12 -3 -40.5t-3 -43.5q-1 -32 0.5 -91t1.5 -82 q0 -112 1 -168q0 -8 0.5 -24.5t0.5 -24.5q46 -3 131 -7q79 -4 116 -5q14 0 23.5 -9.5t9.5 -23.5t-10 -24t-23 -10q-43 1 -119 5q-83 4 -128 7v-62v-176q0 -26 0.5 -54.5t1.5 -64t1 -54.5q1 -14 1 -44v-44t1 -43t2 -43v-43q0 -12 -1 -18q0 -2 -1 -6t-1 -6v-4q30 0 90 2l174 6 q169 3 170 3h2q13 0 22.5 -10.5t9.5 -23.5q0 -14 -10 -24t-24 -10q-29 -1 -61.5 -1.5t-72.5 -1t-62 -0.5q-28 0 -86 -3t-86 -3q-63 -2 -188 0q-18 0 -29 18q-8 4 -12 8q-13 12 -19 29l-6 21q-1 4 -5 18t-5 22q-3 19 -8 87q0 14 -2 41.5t-2 41.5q0 16 -1 46.5t-1 45.5 q-4 113 -5 172q-1 29 -1 86.5t-1 86.5q-1 59 -1 178q0 15 -0.5 44.5t-0.5 44.5v83q2 60 4 88q1 14 2.5 42t2.5 42q2 33 5.5 99t5.5 99q2 16 10 24q9 9 24 9h7h1h2q6 0 17 -1t17 -2q3 0 8 0.5t8 0.5q21 0 48 -5q50 -4 75 -5q51 -3 149 -5q29 -1 86.5 -2t86.5 -1q13 0 40 -1 t40 -1q6 0 19 -0.5t19 -0.5q26 0 39 -1q16 -2 24 -10zM258 64q4 30 2 73q0 13 -1 39t-2 40q-1 26 -1 78q0 13 -1 38.5t-1 38.5q-1 59 -1 351q0 28 -1 85t-1 85q0 115 -1 172q-1 29 -1 87q0 29 4 85q2 28 2 85q0 26 -1 39q0 10 -2 30q-8 0 -25.5 1.5t-26.5 2.5q-2 0 -6 -0.5 t-6 -0.5q-1 -24 -3.5 -68t-4.5 -80.5t-4 -68.5q-4 -56 -5 -89q-1 -31 -1 -92q1 -58 1 -173q0 -158 5 -355q4 -114 5 -171q1 -14 2 -42.5t1 -43.5q2 -39 6 -78q1 -3 2 -9.5t2 -11.5t2 -9q0 -2 3.5 -16t5.5 -21q9 -1 27 -1q3 0 8.5 -0.5t8.5 -0.5h9v1zM387 1512 q-12 7 -15.5 21t3.5 25t21.5 32t21.5 32q17 25 19 28q10 14 15 20q4 6 7 8q7 7 14 10q7 4 17 4h2l2 1q12 0 24 -7q12 -8 18 -15q8 -9 17 -22q4 -5 11 -14.5t10 -14.5q26 -38 38 -57q7 -11 3.5 -25t-15.5 -21q-10 -6 -26 -3q-11 2 -20 15q-34 53 -57 84l-1 1q0 2 -1 2 q-4 -6 -11.5 -17.5t-11.5 -16.5q-7 -9 -20 -29t-19 -29q-9 -13 -20 -15q-16 -3 -26 3z" />
</font>
</defs>
</svg>
